<svg width="88" height="77" viewBox="0 0 88 77" fill="none" xmlns="http://www.w3.org/2000/svg">
<g clip-path="url(#clip0_2731_385)">
<path fill-rule="evenodd" clip-rule="evenodd" d="M9.07387 31.4914C7.38906 30.4927 6.76 28.3511 7.68927 26.6304L8.33499 25.4346C9.41092 23.4422 12.0475 22.9317 13.7987 24.3711C15.6154 25.8642 17.3603 27.2904 19.0447 28.6673C25.7853 34.1769 31.5567 38.8945 37.087 43.938C37.1027 43.9523 37.1061 43.9756 37.0951 43.9939C37.0824 44.0148 37.0892 44.0422 37.1104 44.055L37.3812 44.2168C37.402 44.2294 37.4216 44.2439 37.4394 44.2603C42.8913 49.2555 48.1229 54.5918 53.8359 61.3465C57.3466 65.4973 62.489 68.0465 68.0018 68.0465H81.7136C83.2014 68.0465 84.4075 69.2492 84.4075 70.7326C84.4075 72.2162 83.2014 73.4186 81.7136 73.4186H66.1421C61.0397 73.4186 56.1336 71.4498 52.4851 67.9076C51.4009 66.855 50.3389 65.8218 49.296 64.8072C35.0627 50.9586 24.3802 40.5649 9.07387 31.4914ZM43.9907 41.0203C42.6564 42.2942 42.8458 44.3955 44.1673 45.6827C48.2287 49.6391 52.2773 53.9482 56.5817 59.0377C59.4538 62.4334 63.6138 64.4651 68.0018 64.4651C69.5039 64.4651 70.5525 62.9814 70.0473 61.5708L68.7284 57.8885C68.2178 56.4631 66.8637 55.5117 65.3458 55.5117H60.163C59.39 55.5117 58.7038 55.0185 58.4594 54.2872L53.5077 39.4754C52.9179 37.7116 51.0507 36.6551 49.3463 37.4091C47.3498 38.2925 45.5647 39.5175 43.9907 41.0203ZM48.9322 33.7051C50.1999 33.222 50.9603 31.8558 50.5313 30.5721C50.1823 29.5283 49.1439 28.8544 48.0646 29.0831C43.4466 30.061 39.7382 32.6445 36.9308 36.2595C36.2072 37.191 36.4031 38.5101 37.2855 39.2937C38.3144 40.2076 39.8958 40.069 40.8543 39.082C43.1131 36.7561 45.8057 34.8966 48.9322 33.7051ZM21.2431 25.8316C19.331 24.2688 17.3461 22.6468 15.2728 20.9403C13.7129 19.6563 13.5242 17.3329 14.9313 15.884C15.3605 15.4421 15.7857 15.0159 16.2069 14.6049C17.4368 13.4044 19.3473 13.3778 20.8658 14.1856C24.1047 15.9088 27.726 16.6247 31.1185 16.7858C34.8842 16.9646 38.5042 16.4687 41.2873 15.8019C42.4015 15.535 43.5777 15.7495 44.551 16.3522C44.6281 16.3998 44.7053 16.447 44.7829 16.4937C45.5871 16.9774 46.2288 17.7023 46.5257 18.5907L47.417 21.2563C48.1246 23.3733 46.7207 25.5943 44.6085 26.3317C41.0192 27.5852 37.9785 29.709 35.4897 32.416C34.0394 33.9934 31.5728 34.3522 29.9274 32.9781C27.1763 30.6802 24.3028 28.3319 21.2431 25.8316ZM72.5228 57.8338C72.1175 56.7021 72.9589 55.5117 74.1639 55.5117C74.3241 55.5117 74.4854 55.5337 74.6391 55.5788C78.3594 56.6715 80.8128 58.4932 82.3303 60.4778C83.7191 62.2937 82.0453 64.4651 79.7548 64.4651H77.4293C75.9114 64.4651 74.5572 63.5137 74.0467 62.0884L72.5228 57.8338ZM65.4848 48.721C66.0353 50.2894 64.8677 51.9303 63.2013 51.9303C62.1598 51.9303 61.2353 51.2659 60.9061 50.2809L51.5607 22.3265C51.0684 20.8536 52.4173 19.3842 53.9651 19.5548C54.7504 19.6413 55.4551 20.1482 55.7163 20.8919L56.8123 24.0145C56.9933 24.5303 56.6094 25.0698 56.0614 25.0698C55.6222 25.0698 55.2659 25.4249 55.2659 25.8631V26.8605C55.2659 27.8495 56.0701 28.6512 57.0618 28.6512H57.1658C57.9288 28.6512 58.6088 29.1322 58.8607 29.8502L59.3453 31.2305C59.5172 31.7203 59.1528 32.2326 58.6323 32.2326C58.2151 32.2326 57.8769 32.5698 57.8769 32.9858V34.0233C57.8769 35.0123 58.6851 35.814 59.677 35.814C60.4403 35.814 61.1231 36.295 61.375 37.013L61.8156 38.2678C62.009 38.8188 61.5986 39.3954 61.0132 39.3954C60.5437 39.3954 60.163 39.7748 60.163 40.2429V41.1861C60.163 42.1751 60.9672 42.9768 61.9589 42.9768H62.0966C62.9183 42.9768 63.6503 43.4945 63.9216 44.2679L65.4848 48.721ZM64.7253 32.2326C63.9929 32.2326 63.3405 31.7711 63.0986 31.0819L62.5532 29.5277C62.4027 29.0994 62.7216 28.6512 63.1769 28.6512C63.5418 28.6512 63.8378 28.3561 63.8378 27.9922V26.7317C63.8378 25.8138 63.0914 25.0698 62.1708 25.0698C61.4625 25.0698 60.8316 24.6234 60.5976 23.9569L58.2663 17.3154C58.0142 16.5972 57.3344 16.1163 56.5711 16.1163C46.8789 16.1163 39.5101 9.45363 39.5099 1.79094C39.5101 1.79094 39.5099 1.79082 39.5099 1.79094L39.5095 0.895371C39.5095 0.400884 39.108 -0.00130673 38.6123 0.0110181C35.0014 0.100783 30.758 0.770329 25.9281 3.1126C20.7124 5.64196 14.91 10.0742 8.50404 17.6479C8.42419 17.7423 8.35435 17.8447 8.29564 17.9534L2.00993 29.5929C1.54113 30.4611 1.8643 31.5437 2.73287 32.0148C9.05542 35.4449 14.5334 39.0401 19.697 42.9583C22.3474 44.9696 20.8607 49.041 17.5299 49.041H6.48949C5.49762 49.041 4.69357 49.8427 4.69357 50.8317C4.69357 51.8207 5.49762 52.6224 6.48947 52.6224H30.5693C31.0204 52.6224 31.4484 52.7828 31.7819 53.0854C33.0008 54.1916 32.2154 56.2036 30.5673 56.2036H16.8584C15.8665 56.2036 15.0625 57.0053 15.0625 57.9943C15.0625 58.9833 15.8665 59.785 16.8584 59.785H38.2221C38.6874 59.785 39.1254 59.9553 39.4607 60.2769C40.628 61.3959 39.84 63.3666 38.2208 63.3666H27.6317C26.6398 63.3666 25.8358 64.1683 25.8358 65.1573C25.8358 66.1463 26.6398 66.948 27.6317 66.948H45.6288C46.093 66.948 46.539 67.1288 46.8712 67.452C47.8864 68.4396 48.922 69.4469 49.9794 70.4737C54.3059 74.6739 60.1139 77 66.1421 77H86.2034C87.1953 77 87.9993 76.1983 87.9993 75.2093V66.2558V66.1545V64.5373C87.9993 64.4976 87.967 64.4651 87.927 64.4651C87.8912 64.4651 87.8607 64.4394 87.8553 64.4041C87.0022 58.9172 82.3197 53.0742 72.4099 51.4095C71.0283 51.1775 69.8327 50.2667 69.3699 48.948L67.5562 43.781C67.4183 43.3879 67.7108 42.9768 68.1286 42.9768C68.4633 42.9768 68.7349 42.706 68.7349 42.3722V40.9807C68.7349 40.1052 68.023 39.3954 67.145 39.3954C66.4692 39.3954 65.8673 38.9696 65.6441 38.3337L65.0861 36.7439C64.9265 36.2894 65.2648 35.814 65.7477 35.814C66.1349 35.814 66.4487 35.501 66.4487 35.1149V33.9511C66.4487 33.0021 65.6772 32.2326 64.7253 32.2326ZM34.0392 13.212C36.7436 13.096 37.8643 9.87299 36.9197 7.34347C36.9065 7.30823 36.8934 7.27291 36.8805 7.23757C36.2036 5.38534 34.4449 3.9451 32.5338 4.45018C30.9493 4.86894 29.2723 5.47342 27.4992 6.33328C26.8111 6.66687 26.1068 7.03994 25.3859 7.45698C23.2615 8.68581 23.4023 11.6237 25.7571 12.3189C27.5327 12.8431 29.4075 13.1191 31.2893 13.2085C32.219 13.2526 33.1403 13.2505 34.0392 13.212Z" fill="#E8E8E5"/>
<path fill-rule="evenodd" clip-rule="evenodd" d="M6.01531 29.7308L10.4167 21.5806C13.4802 24.1185 16.3407 26.4567 19.0452 28.6673C25.7966 34.1859 31.5756 38.9095 37.1141 43.9623L37.0721 44.032L37.4138 44.2363C42.8748 49.2385 48.1143 54.581 53.8364 61.3464C57.3471 65.4973 62.4895 68.0465 68.0021 68.0465H84.408V73.4186H66.1426C61.04 73.4186 56.1341 71.4497 52.4855 67.9076C51.4013 66.855 50.3394 65.8218 49.2965 64.8071C34.1339 50.0547 23.0009 39.2227 6.01531 29.7308ZM41.8192 43.4344C46.6802 48.009 51.4491 52.9687 56.5822 59.0377C59.4542 62.4334 63.6141 64.4651 68.0021 64.4651H71.0841L67.8771 55.5116H60.1631H58.8686L58.4593 54.2871L52.4651 36.3567C48.0825 37.4086 44.5336 39.9356 41.8192 43.4344ZM51.3255 32.9481L49.9326 28.7819C43.717 29.4806 38.9924 32.932 35.7415 37.9334C36.8996 38.9453 38.0427 39.9617 39.1767 40.9919C42.2407 37.1403 46.2898 34.2288 51.3255 32.9481ZM21.2435 25.8315C18.4739 23.5681 15.5517 21.18 12.4292 18.5914C14.4977 16.2461 16.4799 14.2639 18.3747 12.5891C22.1627 15.4888 26.824 16.5819 31.1184 16.7858C35.7397 17.0052 40.1413 16.2086 43.0465 15.3269C43.984 16.0286 44.9937 16.6574 46.0624 17.2048L48.775 25.3187C41.8761 26.3161 36.6141 30.2284 33.0034 35.5717C29.3255 32.4363 25.4616 29.2786 21.2435 25.8315ZM71.6911 55.5116H74.4052C80.7524 57.2982 83.4949 61.1812 84.2095 64.4651H74.898L71.6911 55.5116ZM66.6113 51.9302H61.4574L50.4091 18.8815C51.9706 19.3055 53.6053 19.5723 55.2848 19.6629L57.1827 25.0698H55.266V28.6512H58.4399L59.697 32.2326H57.8771V35.814H60.9542L62.2113 39.3953H60.1631V42.9767H63.4685L66.6113 51.9302ZM63.5024 32.2326L62.2453 28.6512H63.8377V25.0698H60.9881L58.2662 17.3154L57.8454 16.1163H56.5712C46.8788 16.1163 39.51 9.45347 39.51 1.7907V0C35.7111 0 31.1646 0.573378 25.9286 3.11259C20.7129 5.64195 14.9105 10.0742 8.50445 17.6479L8.38436 17.7898L8.29606 17.9534L2.01034 29.5929L1.1626 31.1626L2.73329 32.0148C12.1891 37.1446 19.7558 42.644 27.2069 49.0409H4.69326V52.6223H31.2705C32.5593 53.7856 33.8541 54.9784 35.1643 56.2036H15.0627V59.7849H38.9475C40.1652 60.9496 41.4022 62.1428 42.6656 63.3663H25.8357V66.9477H46.3532C46.5256 67.1155 46.6985 67.2837 46.872 67.4525C47.8873 68.4401 48.9222 69.4468 49.9799 70.4736C54.3062 74.6739 60.1144 77 66.1426 77H86.2039H87.9998V75.2093V66.2558V66.2431V64.4651H87.8646C86.9761 58.5558 81.6473 52.2135 70.1292 51.111L67.2738 42.9767H68.7348V39.3953H66.0167L64.7595 35.814H66.4488V32.2326H63.5024ZM39.9475 12.4353C37.8483 9.98205 36.4503 7.03128 36.0421 3.78011C33.484 4.08732 30.6425 4.80912 27.4995 6.33327C25.5459 7.28069 23.4586 8.54648 21.2392 10.2339C24.1379 12.189 27.7008 13.038 31.2892 13.2084C34.4604 13.359 37.5329 12.9717 39.9475 12.4353Z" fill="#E8E8E5"/>
</g>
<defs>
<clipPath id="clip0_2731_385">
<rect width="88" height="77" fill="white"/>
</clipPath>
</defs>
</svg>
