<svg width="80" height="80" viewBox="0 0 80 80" fill="none" xmlns="http://www.w3.org/2000/svg">
<g clip-path="url(#clip0_2731_376)">
<path fill-rule="evenodd" clip-rule="evenodd" d="M40 0C39.0795 0 38.3643 0.775238 38.0055 1.6229C37.3727 3.11782 35.8922 4.16667 34.1667 4.16667H20.8333C17.1515 4.16667 14.1667 7.15143 14.1667 10.8333C14.1667 14.5152 17.1515 17.5 20.8333 17.5H34.8853C36.7897 17.5 38.3333 19.0437 38.3333 20.948V25.4208C38.3333 28.005 35.9187 29.0375 34.77 26.7227C34.5778 26.3355 34.387 25.9258 34.1978 25.494C33.637 24.2137 32.4042 23.3333 31.0063 23.3333H28.3333C12.6853 23.3333 0 36.0187 0 51.6667V76.6667C0 78.5077 1.49632 80.0158 3.33333 79.8955C16.6412 79.0233 20.211 72.8445 23.542 67.079C26.6542 61.6925 29.5577 56.6667 40 56.6667C50.4423 56.6667 53.3458 61.6925 56.458 67.079C59.789 72.8445 63.3588 79.0233 76.6667 79.8955C78.5037 80.0158 80 78.5077 80 76.6667V51.6667C80 36.0187 67.3147 23.3333 51.6667 23.3333H48.9902C47.594 23.3333 46.3623 24.2115 45.8007 25.4898C45.6147 25.913 45.4272 26.315 45.2383 26.6955C44.0875 29.0142 41.6667 27.9818 41.6667 25.3932V20.948C41.6667 17.2028 38.6305 14.1667 34.8853 14.1667H20.8333C18.9923 14.1667 17.5 12.6743 17.5 10.8333C17.5 8.99238 18.9923 7.5 20.8333 7.5H34.1667C37.7407 7.5 40.7307 5.00017 41.4838 1.65366C41.6858 0.755645 40.9205 0 40 0ZM73.116 76.1263C75.02 76.464 76.6667 74.9105 76.6667 72.9768V51.6667C76.6667 51.525 76.6655 51.3835 76.6632 51.2423C76.6353 49.5717 75.1985 48.3333 73.5277 48.3333H73.3333C71.4923 48.3333 70 49.8257 70 51.6667V72.9337C70 74.3842 70.9352 75.687 72.3557 75.9805C72.603 76.0315 72.8565 76.0802 73.116 76.1263ZM66.6667 73.2115C66.6667 73.5265 66.3267 73.7217 66.062 73.5513C63.346 71.803 61.7177 69.4553 60.0593 66.641C59.842 66.2723 59.6198 65.886 59.3907 65.4872C57.9755 63.0257 56.2848 60.085 53.738 57.8212C51.5848 55.9073 48.934 54.5317 45.5085 53.8402C43.619 53.4587 42.1687 51.7653 42.5952 49.8855C43.5588 45.6362 45.2647 41.741 47.6745 38.6627C50.8118 34.655 55.152 32.0057 60.7637 31.697C61.3767 31.6633 61.875 31.169 61.875 30.555C61.875 29.7492 62.7047 29.2147 63.4157 29.5938C64.1515 29.9863 64.8655 30.4147 65.5552 30.8763C66.2683 31.3537 66.6667 32.1697 66.6667 33.0278V41.6667C66.6667 43.5077 65.1743 45 63.3333 45H58.3333C57.4128 45 56.6667 45.7462 56.6667 46.6667C56.6667 47.5872 57.4128 48.3333 58.3333 48.3333H63.3333C65.1743 48.3333 66.6667 49.8257 66.6667 51.6667V73.2115ZM74.1737 40.7708C73.0188 38.3897 70 39.4423 70 42.089V42.5067C70 43.8837 71.1163 45 72.4933 45C74.1405 45 75.3345 43.4262 74.6912 41.9098C74.528 41.5252 74.3553 41.1455 74.1737 40.7708ZM51.6667 26.6667C53.7978 26.6667 53.7332 29.7668 51.8572 30.7782C49.1957 32.213 46.9235 34.2145 45.0498 36.608C45.0043 36.6658 44.9593 36.724 44.9143 36.7825C42.9193 39.3775 37.289 39.3775 35.294 36.7825C35.249 36.724 35.204 36.6658 35.1585 36.6078C33.2415 34.159 30.9073 32.1205 28.1658 30.6795C26.317 29.7077 26.2447 26.6667 28.3333 26.6667H28.8818C30.2117 26.6667 31.396 27.467 32.0088 28.6473C32.6193 29.8232 33.2708 30.8603 33.969 31.7368C35.3725 33.4987 37.3783 35.1018 39.9952 35.1012C42.6103 35.1003 44.6162 33.4977 46.0207 31.7373C46.7207 30.86 47.3743 29.8213 47.9872 28.6437C48.6003 27.4652 49.7837 26.6667 51.1122 26.6667H51.6667ZM18.3333 30.5118C18.3333 29.6792 17.4798 29.1237 16.7423 29.5103C14.5858 30.6408 12.6146 32.077 10.8863 33.7613C9.9747 34.6497 11.5508 36.6667 12.8237 36.6667C15.6422 36.6667 18.1737 37.8953 19.9118 39.8463C21.0572 41.1318 23.2783 41.6667 25.0002 41.6667C27.7615 41.6667 30.0002 43.9053 30.0002 46.6667C30.0002 49.4282 27.7615 51.6667 25.0002 51.6667C23.075 51.6667 20.502 52.056 19.0497 53.3195C17.3832 54.7693 15.2059 55.647 12.8237 55.647C9.51445 55.647 6.60082 53.9533 4.90243 51.3853C4.5221 50.8103 3.33333 50.9772 3.33333 51.6667V72.9768C3.33333 74.9105 4.98032 76.464 6.88425 76.1262C10.0258 75.5688 12.2611 74.6307 13.938 73.5513C16.6541 71.803 18.2823 69.4553 19.9407 66.641C20.158 66.2723 20.3802 65.886 20.6093 65.4872C22.0245 63.0257 23.7152 60.085 26.262 57.8212C28.4522 55.8743 31.1577 54.4843 34.6695 53.805C36.5712 53.437 38.0353 51.7375 37.605 49.849C36.6397 45.6138 34.9368 41.7322 32.5338 38.6627C29.4045 34.6652 25.0785 32.0192 19.4877 31.6993C18.851 31.6628 18.3333 31.1497 18.3333 30.5118ZM18.9805 46.1568C18.9805 42.7565 16.224 40 12.8237 40C9.42335 40 6.66683 42.7565 6.66683 46.1568C6.66683 49.5572 9.42335 52.3137 12.8237 52.3137C16.224 52.3137 18.9805 49.5572 18.9805 46.1568ZM26.6668 46.6667C26.6668 45.7462 25.9205 45 25.0002 45C24.0797 45 23.3335 45.7462 23.3335 46.6667C23.3335 47.5872 24.0797 48.3333 25.0002 48.3333C25.9205 48.3333 26.6668 47.5872 26.6668 46.6667Z" fill="#E8E8E5"/>
<path fill-rule="evenodd" clip-rule="evenodd" d="M38.3333 0C38.3333 2.30118 36.4678 4.16667 34.1667 4.16667H20.8333C17.1515 4.16667 14.1667 7.15143 14.1667 10.8333C14.1667 14.5152 17.1515 17.5 20.8333 17.5H34.8853C36.7897 17.5 38.3333 19.0437 38.3333 20.948V31.277C36.6002 30.2478 34.9002 27.6002 33.3333 23.3333H28.3333C12.6853 23.3333 0 36.0187 0 51.6667V76.6667V80C1.17472 80 2.28428 79.9642 3.33333 79.8955C16.6412 79.0233 20.211 72.8445 23.542 67.079C26.6542 61.6925 29.5577 56.6667 40 56.6667C50.4423 56.6667 53.3458 61.6925 56.458 67.079C59.789 72.8445 63.3588 79.0233 76.6667 79.8955C77.7157 79.9642 78.8253 80 80 80V76.6667V51.6667C80 36.0187 67.3147 23.3333 51.6667 23.3333H46.6667C45.0973 27.5892 43.3973 30.2348 41.6667 31.2695V20.948C41.6667 17.2028 38.6305 14.1667 34.8853 14.1667H20.8333C18.9923 14.1667 17.5 12.6743 17.5 10.8333C17.5 8.99238 18.9923 7.5 20.8333 7.5H34.1667C38.3088 7.5 41.6667 4.14213 41.6667 0H38.3333ZM76.6667 76.5545V51.6667C76.6667 50.5365 76.5917 49.4238 76.4463 48.3333H70V75.3687C71.7892 75.9398 73.97 76.3635 76.6667 76.5545ZM66.6667 73.9197C66.4573 73.799 66.2558 73.6762 66.062 73.5513C63.346 71.803 61.7177 69.4553 60.0593 66.641C59.842 66.2723 59.6198 65.886 59.3907 65.4872C57.9755 63.0257 56.2848 60.085 53.738 57.8212C50.8968 55.2957 47.1887 53.7073 41.978 53.3915C42.6902 47.7965 44.6148 42.5712 47.6745 38.6627C51.016 34.3942 55.7218 31.6667 61.875 31.6667V28.839C63.5822 29.6037 65.188 30.5542 66.6667 31.6648V45H56.6667V48.3333H66.6667V73.9197ZM70 34.6698V45H75.768C74.6883 41.0883 72.682 37.5613 70 34.6698ZM51.6667 26.6667C54.864 26.6667 57.9212 27.2668 60.7315 28.3608C53.9988 28.6862 48.748 31.8837 45.0498 36.608C42.8582 39.4073 41.216 42.7327 40.1042 46.3117C38.9923 42.7327 37.3502 39.4073 35.1585 36.6078C31.4262 31.84 26.1123 28.6273 19.2898 28.3525C22.0943 27.2638 25.1442 26.6667 28.3333 26.6667H31.0728C31.9427 28.6798 32.9013 30.3965 33.969 31.7368C35.3725 33.4987 37.3783 35.1018 39.9952 35.1012C42.6103 35.1003 44.6162 33.4977 46.0207 31.7373C47.09 30.397 48.0512 28.6802 48.924 26.6667H51.6667ZM18.3333 28.7468C13.5937 30.8177 9.62035 34.3155 6.95625 38.6973C8.57097 37.4255 10.6087 36.6667 12.8237 36.6667C16.9137 36.6667 20.3995 39.254 21.7333 42.8813C22.6097 42.1245 23.7513 41.6667 25.0002 41.6667C27.7615 41.6667 30.0002 43.9053 30.0002 46.6667C30.0002 49.4282 27.7615 51.6667 25.0002 51.6667C23.6008 51.6667 22.3357 51.0918 21.4282 50.1655C19.9172 53.4033 16.6325 55.647 12.8237 55.647C8.30138 55.647 4.51787 52.4838 3.56495 48.2493C3.41223 49.3667 3.33333 50.5075 3.33333 51.6667V76.5545C8.43333 76.1933 11.6882 74.9993 13.938 73.5513C16.6541 71.803 18.2823 69.4553 19.9407 66.641C20.158 66.2723 20.3802 65.886 20.6093 65.4872C22.0245 63.0257 23.7152 60.085 26.262 57.8212C29.1407 55.2623 32.9093 53.6657 38.2288 53.3797C37.5155 47.789 35.5913 42.5683 32.5338 38.6627C29.1923 34.3942 24.4865 31.6667 18.3333 31.6667V28.7468ZM18.9805 46.1568C18.9805 42.7565 16.224 40 12.8237 40C9.42335 40 6.66683 42.7565 6.66683 46.1568C6.66683 49.5572 9.42335 52.3137 12.8237 52.3137C16.224 52.3137 18.9805 49.5572 18.9805 46.1568ZM26.6668 46.6667C26.6668 45.7462 25.9205 45 25.0002 45C24.0797 45 23.3335 45.7462 23.3335 46.6667C23.3335 47.5872 24.0797 48.3333 25.0002 48.3333C25.9205 48.3333 26.6668 47.5872 26.6668 46.6667Z" fill="#E8E8E5"/>
</g>
<defs>
<clipPath id="clip0_2731_376">
<rect width="80" height="80" fill="white"/>
</clipPath>
</defs>
</svg>
