<svg width="20" height="20" viewBox="0 0 20 20" fill="none" xmlns="http://www.w3.org/2000/svg">
<path fill-rule="evenodd" clip-rule="evenodd" d="M3.89417 5.8429C3.62113 5.69273 3.61707 5.30182 3.88694 5.14601L9.80007 1.73206C9.92383 1.66061 10.0763 1.66061 10.2001 1.73206L16.1132 5.14598C16.383 5.30179 16.379 5.6927 16.1059 5.84288L10.1928 9.0951C10.0728 9.16112 9.92728 9.16112 9.80725 9.0951L3.89417 5.8429ZM18.4603 4.88454C18.5841 4.95599 18.6603 5.08804 18.6603 5.23095V6.00677C18.6603 6.00966 18.6611 6.0125 18.6624 6.01503L18.6671 6.02351C18.6691 6.02711 18.6678 6.03163 18.6642 6.03361V6.03361C18.6618 6.03492 18.6603 6.03742 18.6603 6.04013V14.7691C18.6603 14.912 18.5841 15.044 18.4603 15.1155L10.2001 19.8845C10.0763 19.956 9.92383 19.956 9.80007 19.8845L1.53982 15.1155C1.41606 15.044 1.33982 14.912 1.33982 14.7691V6.04023C1.33982 6.03749 1.33832 6.03497 1.33592 6.03365V6.03365C1.33229 6.03165 1.33096 6.02708 1.33296 6.02345L1.33768 6.01488C1.33908 6.01232 1.33982 6.00946 1.33982 6.00654V5.23095C1.33982 5.08804 1.41605 4.95599 1.53982 4.88454L9.80007 0.11548C9.92383 0.0440264 10.0763 0.0440264 10.2001 0.115479L18.4603 4.88454ZM10.7 10.6504C10.7 10.5045 10.7794 10.3702 10.9073 10.2999L16.6676 7.13175C16.9341 6.98513 17.2603 7.178 17.2603 7.48224V13.9608C17.2603 14.1037 17.1841 14.2357 17.0603 14.3072L11.3 17.6329C11.0334 17.7869 10.7 17.5944 10.7 17.2865V10.6504ZM9.30002 10.6504C9.30002 10.5045 9.22061 10.3702 9.09279 10.2999L3.33258 7.13181C3.066 6.98519 2.73982 7.17805 2.73982 7.4823V13.9608C2.73982 14.1037 2.81606 14.2357 2.93982 14.3072L8.70002 17.6328C8.96669 17.7868 9.30002 17.5944 9.30002 17.2864V10.6504Z" fill="#4F4F4F"/>
<path fill-rule="evenodd" clip-rule="evenodd" d="M9.2997 12.1878C9.2997 11.0937 8.7041 10.0864 7.74546 9.55913L1.94238 6.36744C1.60363 6.18113 1.48006 5.75549 1.66637 5.41674V5.41674C1.85268 5.078 2.27832 4.95443 2.61706 5.14073L8.55395 8.40602C9.45419 8.90116 10.5452 8.90116 11.4455 8.40602L17.3823 5.14073C17.7211 4.95442 18.1467 5.078 18.333 5.41674V5.41674C18.5193 5.75549 18.3958 6.18113 18.057 6.36744L12.2539 9.55913C11.2953 10.0864 10.6997 11.0937 10.6997 12.1878V18.6751C10.6997 19.0617 10.3863 19.3751 9.9997 19.3751V19.3751C9.6131 19.3751 9.2997 19.0617 9.2997 18.6751V12.1878Z" fill="#4F4F4F"/>
<path d="M2.03975 5.40415L10 0.808291L17.9603 5.40415V14.5959L10 19.1917L2.03975 14.5959V5.40415Z" stroke="#4F4F4F" stroke-width="1.4"/>
</svg>
