<svg width="25" height="23" viewBox="0 0 25 23" fill="none" xmlns="http://www.w3.org/2000/svg">
<mask id="mask0_2747_5582" style="mask-type:luminance" maskUnits="userSpaceOnUse" x="-1" y="0" width="26" height="23">
<path d="M0 0.9H-0.1V1V22V22.1H0H24H24.1V22V1V0.9H24H0Z" fill="white" stroke="white" stroke-width="0.2"/>
</mask>
<g mask="url(#mask0_2747_5582)">
<mask id="path-2-outside-1_2747_5582" maskUnits="userSpaceOnUse" x="-0.510742" y="0.00292969" width="25" height="23" fill="black">
<rect fill="white" x="-0.510742" y="0.00292969" width="25" height="23"/>
<path fill-rule="evenodd" clip-rule="evenodd" d="M2.47443 9.58856C2.01493 9.31619 1.84337 8.73212 2.09681 8.26284L2.27291 7.93671C2.56635 7.39333 3.28542 7.2541 3.76302 7.64666C4.25848 8.05387 4.73436 8.44284 5.19374 8.81835C7.03209 10.321 8.60611 11.6076 10.1144 12.9831C10.1187 12.987 10.1196 12.9933 10.1166 12.9983C10.1131 13.004 10.115 13.0115 10.1208 13.015L10.1946 13.0591C10.2003 13.0626 10.2056 13.0665 10.2105 13.071C11.6974 14.4333 13.1242 15.8887 14.6823 17.7309C15.6397 18.8629 17.0422 19.5581 18.5457 19.5581H22.2853C22.691 19.5581 23.02 19.8861 23.02 20.2907C23.02 20.6953 22.691 21.0233 22.2853 21.0233H18.0385C16.6469 21.0233 15.3089 20.4863 14.3139 19.5203C14.0182 19.2332 13.7285 18.9514 13.4441 18.6747C9.56229 14.8978 6.64888 12.0632 2.47443 9.58856ZM11.9972 12.1874C11.6333 12.5348 11.685 13.1079 12.0454 13.4589C13.153 14.5379 14.2572 15.7131 15.4311 17.1012C16.2144 18.0273 17.349 18.5814 18.5457 18.5814C18.9553 18.5814 19.2413 18.1767 19.1035 17.792L18.7438 16.7878C18.6046 16.399 18.2353 16.1396 17.8213 16.1396H16.4078C16.197 16.1396 16.0099 16.005 15.9432 15.8056L14.5927 11.766C14.4319 11.285 13.9227 10.9968 13.4578 11.2025C12.9133 11.4434 12.4265 11.7775 11.9972 12.1874ZM13.3449 10.1923C13.6906 10.0605 13.898 9.68795 13.781 9.33785C13.6858 9.05317 13.4026 8.86938 13.1083 8.93175C11.8488 9.19845 10.8374 9.90305 10.0718 10.889C9.87443 11.143 9.92785 11.5028 10.1685 11.7165C10.4491 11.9657 10.8804 11.9279 11.1418 11.6587C11.7579 11.0244 12.4922 10.5173 13.3449 10.1923ZM5.79331 8.04498C5.27182 7.61876 4.73049 7.1764 4.16504 6.71099C3.73962 6.36081 3.68815 5.72715 4.07191 5.332C4.18896 5.21148 4.30492 5.09525 4.4198 4.98315C4.75522 4.65575 5.27627 4.64849 5.69041 4.8688C6.57374 5.33876 7.56137 5.53401 8.4866 5.57795C9.51361 5.62671 10.5009 5.49146 11.2599 5.30961C11.5638 5.23682 11.8846 5.29532 12.15 5.45969C12.171 5.47267 12.1921 5.48555 12.2133 5.49828C12.4326 5.6302 12.6076 5.8279 12.6886 6.07019L12.9316 6.79717C13.1246 7.37454 12.7417 7.98026 12.1657 8.18137C11.1868 8.52324 10.3575 9.10245 9.67874 9.84073C9.28321 10.2709 8.6105 10.3688 8.16175 9.99403C7.41145 9.36733 6.62777 8.72688 5.79331 8.04498ZM19.7787 16.7729C19.6681 16.4642 19.8976 16.1396 20.2263 16.1396C20.2699 16.1396 20.3139 16.1456 20.3559 16.1579C21.3705 16.4559 22.0396 16.9527 22.4535 17.4939C22.8322 17.9892 22.3757 18.5814 21.751 18.5814H21.1168C20.7028 18.5814 20.3335 18.3219 20.1943 17.9332L19.7787 16.7729ZM17.8592 14.2875C18.0094 14.7153 17.6909 15.1628 17.2365 15.1628C16.9524 15.1628 16.7003 14.9816 16.6105 14.713L14.0617 7.08905C13.9275 6.68735 14.2954 6.2866 14.7175 6.33313C14.9317 6.35672 15.1239 6.49496 15.1951 6.69779L15.494 7.54941C15.5434 7.69008 15.4387 7.83722 15.2892 7.83722C15.1694 7.83722 15.0723 7.93406 15.0723 8.05357V8.32559C15.0723 8.59532 15.2916 8.81396 15.562 8.81396H15.5904C15.7985 8.81396 15.984 8.94515 16.0527 9.14096L16.1848 9.51741C16.2317 9.65099 16.1323 9.79071 15.9904 9.79071C15.8766 9.79071 15.7843 9.88267 15.7843 9.99613V10.2791C15.7843 10.5488 16.0048 10.7675 16.2753 10.7675C16.4835 10.7675 16.6697 10.8986 16.7384 11.0945L16.8585 11.4367C16.9113 11.5869 16.7994 11.7442 16.6397 11.7442C16.5117 11.7442 16.4078 11.8477 16.4078 11.9753V12.2326C16.4078 12.5023 16.6272 12.7209 16.8976 12.7209H16.9352C17.1593 12.7209 17.3589 12.8621 17.4329 13.0731L17.8592 14.2875ZM17.6521 9.79071C17.4523 9.79071 17.2744 9.66485 17.2084 9.47688L17.0597 9.05301C17.0187 8.9362 17.1056 8.81396 17.2298 8.81396C17.3293 8.81396 17.41 8.73348 17.41 8.63424V8.29046C17.41 8.04013 17.2065 7.83722 16.9554 7.83722C16.7622 7.83722 16.5902 7.71547 16.5264 7.5337L15.8905 5.72238C15.8218 5.52651 15.6364 5.39535 15.4282 5.39535C12.7849 5.39535 10.7752 3.57826 10.7752 1.48844C10.7752 1.48844 10.7752 1.48841 10.7752 1.48844L10.7751 1.24419C10.7751 1.10933 10.6656 0.999644 10.5304 1.003C9.54557 1.02749 8.38828 1.21009 7.07103 1.84889C5.64857 2.53872 4.0661 3.74751 2.31902 5.81306C2.29724 5.83881 2.27819 5.86674 2.26218 5.89638L0.547896 9.07079C0.420041 9.30757 0.508179 9.60283 0.745062 9.73131C2.46939 10.6668 3.96339 11.6473 5.37164 12.7159C6.09448 13.2644 5.68902 14.3748 4.78062 14.3748H1.76959C1.49908 14.3748 1.2798 14.5935 1.2798 14.8632C1.2798 15.1329 1.49908 15.3516 1.76959 15.3516H8.33682C8.45984 15.3516 8.57657 15.3953 8.66752 15.4778C8.99995 15.7795 8.78575 16.3283 8.33627 16.3283H4.59748C4.32696 16.3283 4.10769 16.5469 4.10769 16.8166C4.10769 17.0864 4.32696 17.305 4.59748 17.305H10.4239C10.5508 17.305 10.6703 17.3514 10.7617 17.4392C11.0801 17.7443 10.8652 18.2818 10.4236 18.2818H7.53565C7.26513 18.2818 7.04586 18.5004 7.04586 18.7702C7.04586 19.0399 7.26513 19.2585 7.53565 19.2585H12.444C12.5706 19.2585 12.6922 19.3079 12.7828 19.396C13.0597 19.6653 13.3421 19.9401 13.6305 20.2201C14.8104 21.3656 16.3944 22 18.0385 22H23.5098C23.7803 22 23.9995 21.7814 23.9995 21.5116V19.0698V19.0421V18.6011C23.9995 18.5903 23.9907 18.5814 23.9798 18.5814C23.9701 18.5814 23.9617 18.5744 23.9603 18.5648C23.7276 17.0683 22.4506 15.4748 19.7479 15.0208C19.3711 14.9575 19.045 14.7091 18.9188 14.3495L18.4242 12.9403C18.3865 12.8331 18.4663 12.7209 18.5803 12.7209C18.6715 12.7209 18.7456 12.6471 18.7456 12.5561V12.1766C18.7456 11.9378 18.5515 11.7442 18.312 11.7442C18.1277 11.7442 17.9635 11.6281 17.9027 11.4546L17.7505 11.0211C17.707 10.8971 17.7992 10.7675 17.9309 10.7675C18.0365 10.7675 18.1221 10.6821 18.1221 10.5768V10.2594C18.1221 10.0006 17.9117 9.79071 17.6521 9.79071ZM9.28315 4.60327C10.0207 4.57164 10.3264 3.69263 10.0687 3.00276C10.0651 2.99315 10.0616 2.98352 10.0581 2.97388C9.87344 2.46873 9.3938 2.07594 8.87259 2.21369C8.44045 2.32789 7.98309 2.49275 7.49952 2.72726C7.31185 2.81824 7.11977 2.91998 6.92316 3.03372C6.34378 3.36886 6.38218 4.1701 7.0244 4.3597C7.50865 4.50266 8.01996 4.57794 8.53318 4.60232C8.78673 4.61435 9.038 4.61377 9.28315 4.60327Z"/>
</mask>
<path fill-rule="evenodd" clip-rule="evenodd" d="M2.47443 9.58856C2.01493 9.31619 1.84337 8.73212 2.09681 8.26284L2.27291 7.93671C2.56635 7.39333 3.28542 7.2541 3.76302 7.64666C4.25848 8.05387 4.73436 8.44284 5.19374 8.81835C7.03209 10.321 8.60611 11.6076 10.1144 12.9831C10.1187 12.987 10.1196 12.9933 10.1166 12.9983C10.1131 13.004 10.115 13.0115 10.1208 13.015L10.1946 13.0591C10.2003 13.0626 10.2056 13.0665 10.2105 13.071C11.6974 14.4333 13.1242 15.8887 14.6823 17.7309C15.6397 18.8629 17.0422 19.5581 18.5457 19.5581H22.2853C22.691 19.5581 23.02 19.8861 23.02 20.2907C23.02 20.6953 22.691 21.0233 22.2853 21.0233H18.0385C16.6469 21.0233 15.3089 20.4863 14.3139 19.5203C14.0182 19.2332 13.7285 18.9514 13.4441 18.6747C9.56229 14.8978 6.64888 12.0632 2.47443 9.58856ZM11.9972 12.1874C11.6333 12.5348 11.685 13.1079 12.0454 13.4589C13.153 14.5379 14.2572 15.7131 15.4311 17.1012C16.2144 18.0273 17.349 18.5814 18.5457 18.5814C18.9553 18.5814 19.2413 18.1767 19.1035 17.792L18.7438 16.7878C18.6046 16.399 18.2353 16.1396 17.8213 16.1396H16.4078C16.197 16.1396 16.0099 16.005 15.9432 15.8056L14.5927 11.766C14.4319 11.285 13.9227 10.9968 13.4578 11.2025C12.9133 11.4434 12.4265 11.7775 11.9972 12.1874ZM13.3449 10.1923C13.6906 10.0605 13.898 9.68795 13.781 9.33785C13.6858 9.05317 13.4026 8.86938 13.1083 8.93175C11.8488 9.19845 10.8374 9.90305 10.0718 10.889C9.87443 11.143 9.92785 11.5028 10.1685 11.7165C10.4491 11.9657 10.8804 11.9279 11.1418 11.6587C11.7579 11.0244 12.4922 10.5173 13.3449 10.1923ZM5.79331 8.04498C5.27182 7.61876 4.73049 7.1764 4.16504 6.71099C3.73962 6.36081 3.68815 5.72715 4.07191 5.332C4.18896 5.21148 4.30492 5.09525 4.4198 4.98315C4.75522 4.65575 5.27627 4.64849 5.69041 4.8688C6.57374 5.33876 7.56137 5.53401 8.4866 5.57795C9.51361 5.62671 10.5009 5.49146 11.2599 5.30961C11.5638 5.23682 11.8846 5.29532 12.15 5.45969C12.171 5.47267 12.1921 5.48555 12.2133 5.49828C12.4326 5.6302 12.6076 5.8279 12.6886 6.07019L12.9316 6.79717C13.1246 7.37454 12.7417 7.98026 12.1657 8.18137C11.1868 8.52324 10.3575 9.10245 9.67874 9.84073C9.28321 10.2709 8.6105 10.3688 8.16175 9.99403C7.41145 9.36733 6.62777 8.72688 5.79331 8.04498ZM19.7787 16.7729C19.6681 16.4642 19.8976 16.1396 20.2263 16.1396C20.2699 16.1396 20.3139 16.1456 20.3559 16.1579C21.3705 16.4559 22.0396 16.9527 22.4535 17.4939C22.8322 17.9892 22.3757 18.5814 21.751 18.5814H21.1168C20.7028 18.5814 20.3335 18.3219 20.1943 17.9332L19.7787 16.7729ZM17.8592 14.2875C18.0094 14.7153 17.6909 15.1628 17.2365 15.1628C16.9524 15.1628 16.7003 14.9816 16.6105 14.713L14.0617 7.08905C13.9275 6.68735 14.2954 6.2866 14.7175 6.33313C14.9317 6.35672 15.1239 6.49496 15.1951 6.69779L15.494 7.54941C15.5434 7.69008 15.4387 7.83722 15.2892 7.83722C15.1694 7.83722 15.0723 7.93406 15.0723 8.05357V8.32559C15.0723 8.59532 15.2916 8.81396 15.562 8.81396H15.5904C15.7985 8.81396 15.984 8.94515 16.0527 9.14096L16.1848 9.51741C16.2317 9.65099 16.1323 9.79071 15.9904 9.79071C15.8766 9.79071 15.7843 9.88267 15.7843 9.99613V10.2791C15.7843 10.5488 16.0048 10.7675 16.2753 10.7675C16.4835 10.7675 16.6697 10.8986 16.7384 11.0945L16.8585 11.4367C16.9113 11.5869 16.7994 11.7442 16.6397 11.7442C16.5117 11.7442 16.4078 11.8477 16.4078 11.9753V12.2326C16.4078 12.5023 16.6272 12.7209 16.8976 12.7209H16.9352C17.1593 12.7209 17.3589 12.8621 17.4329 13.0731L17.8592 14.2875ZM17.6521 9.79071C17.4523 9.79071 17.2744 9.66485 17.2084 9.47688L17.0597 9.05301C17.0187 8.9362 17.1056 8.81396 17.2298 8.81396C17.3293 8.81396 17.41 8.73348 17.41 8.63424V8.29046C17.41 8.04013 17.2065 7.83722 16.9554 7.83722C16.7622 7.83722 16.5902 7.71547 16.5264 7.5337L15.8905 5.72238C15.8218 5.52651 15.6364 5.39535 15.4282 5.39535C12.7849 5.39535 10.7752 3.57826 10.7752 1.48844C10.7752 1.48844 10.7752 1.48841 10.7752 1.48844L10.7751 1.24419C10.7751 1.10933 10.6656 0.999644 10.5304 1.003C9.54557 1.02749 8.38828 1.21009 7.07103 1.84889C5.64857 2.53872 4.0661 3.74751 2.31902 5.81306C2.29724 5.83881 2.27819 5.86674 2.26218 5.89638L0.547896 9.07079C0.420041 9.30757 0.508179 9.60283 0.745062 9.73131C2.46939 10.6668 3.96339 11.6473 5.37164 12.7159C6.09448 13.2644 5.68902 14.3748 4.78062 14.3748H1.76959C1.49908 14.3748 1.2798 14.5935 1.2798 14.8632C1.2798 15.1329 1.49908 15.3516 1.76959 15.3516H8.33682C8.45984 15.3516 8.57657 15.3953 8.66752 15.4778C8.99995 15.7795 8.78575 16.3283 8.33627 16.3283H4.59748C4.32696 16.3283 4.10769 16.5469 4.10769 16.8166C4.10769 17.0864 4.32696 17.305 4.59748 17.305H10.4239C10.5508 17.305 10.6703 17.3514 10.7617 17.4392C11.0801 17.7443 10.8652 18.2818 10.4236 18.2818H7.53565C7.26513 18.2818 7.04586 18.5004 7.04586 18.7702C7.04586 19.0399 7.26513 19.2585 7.53565 19.2585H12.444C12.5706 19.2585 12.6922 19.3079 12.7828 19.396C13.0597 19.6653 13.3421 19.9401 13.6305 20.2201C14.8104 21.3656 16.3944 22 18.0385 22H23.5098C23.7803 22 23.9995 21.7814 23.9995 21.5116V19.0698V19.0421V18.6011C23.9995 18.5903 23.9907 18.5814 23.9798 18.5814C23.9701 18.5814 23.9617 18.5744 23.9603 18.5648C23.7276 17.0683 22.4506 15.4748 19.7479 15.0208C19.3711 14.9575 19.045 14.7091 18.9188 14.3495L18.4242 12.9403C18.3865 12.8331 18.4663 12.7209 18.5803 12.7209C18.6715 12.7209 18.7456 12.6471 18.7456 12.5561V12.1766C18.7456 11.9378 18.5515 11.7442 18.312 11.7442C18.1277 11.7442 17.9635 11.6281 17.9027 11.4546L17.7505 11.0211C17.707 10.8971 17.7992 10.7675 17.9309 10.7675C18.0365 10.7675 18.1221 10.6821 18.1221 10.5768V10.2594C18.1221 10.0006 17.9117 9.79071 17.6521 9.79071ZM9.28315 4.60327C10.0207 4.57164 10.3264 3.69263 10.0687 3.00276C10.0651 2.99315 10.0616 2.98352 10.0581 2.97388C9.87344 2.46873 9.3938 2.07594 8.87259 2.21369C8.44045 2.32789 7.98309 2.49275 7.49952 2.72726C7.31185 2.81824 7.11977 2.91998 6.92316 3.03372C6.34378 3.36886 6.38218 4.1701 7.0244 4.3597C7.50865 4.50266 8.01996 4.57794 8.53318 4.60232C8.78673 4.61435 9.038 4.61377 9.28315 4.60327Z" fill="#4F4F4F"/>
<path d="M2.47443 9.58856L2.57641 9.41652L2.57641 9.41652L2.47443 9.58856ZM2.09681 8.26284L2.27278 8.35787L2.27279 8.35786L2.09681 8.26284ZM2.27291 7.93671L2.09693 7.84168L2.09693 7.84168L2.27291 7.93671ZM3.76302 7.64666L3.63602 7.80117L3.63603 7.80118L3.76302 7.64666ZM5.19374 8.81835L5.06716 8.9732L5.06717 8.97321L5.19374 8.81835ZM10.1144 12.9831L9.9796 13.1309L9.9797 13.131L10.1144 12.9831ZM10.1166 12.9983L10.2875 13.1022L10.288 13.1014L10.1166 12.9983ZM10.1208 13.015L10.0174 13.1862L10.0182 13.1867L10.1208 13.015ZM10.1946 13.0591L10.2982 12.8881L10.2972 12.8874L10.1946 13.0591ZM10.2105 13.071L10.075 13.2181L10.0754 13.2185L10.2105 13.071ZM14.6823 17.7309L14.5295 17.86L14.5295 17.86L14.6823 17.7309ZM14.3139 19.5203L14.4532 19.3768L14.4532 19.3768L14.3139 19.5203ZM13.4441 18.6747L13.3046 18.818L13.3046 18.818L13.4441 18.6747ZM11.9972 12.1874L12.1353 12.332L12.1353 12.332L11.9972 12.1874ZM12.0454 13.4589L12.1849 13.3157L12.1849 13.3157L12.0454 13.4589ZM15.4311 17.1012L15.2784 17.2303L15.2784 17.2303L15.4311 17.1012ZM19.1035 17.792L19.2918 17.7246L19.2918 17.7246L19.1035 17.792ZM18.7438 16.7878L18.9321 16.7203L18.9321 16.7203L18.7438 16.7878ZM15.9432 15.8056L16.1329 15.7422L16.1329 15.7422L15.9432 15.8056ZM14.5927 11.766L14.7824 11.7026L14.7824 11.7026L14.5927 11.766ZM13.4578 11.2025L13.3769 11.0196L13.3769 11.0196L13.4578 11.2025ZM13.3449 10.1923L13.2737 10.0054L13.2737 10.0054L13.3449 10.1923ZM13.781 9.33785L13.9707 9.27445L13.9707 9.27443L13.781 9.33785ZM13.1083 8.93175L13.1497 9.12742L13.1497 9.12741L13.1083 8.93175ZM10.0718 10.889L10.2297 11.0116L10.2297 11.0116L10.0718 10.889ZM10.1685 11.7165L10.3013 11.5669L10.3013 11.5669L10.1685 11.7165ZM11.1418 11.6587L10.9983 11.5194L10.9983 11.5194L11.1418 11.6587ZM5.79331 8.04498L5.66674 8.19984L5.66675 8.19985L5.79331 8.04498ZM4.16504 6.71099L4.03794 6.86541L4.03794 6.86541L4.16504 6.71099ZM4.07191 5.332L3.92844 5.19266L3.92843 5.19266L4.07191 5.332ZM4.4198 4.98315L4.55947 5.1263L4.5595 5.12628L4.4198 4.98315ZM5.69041 4.8688L5.78435 4.69223L5.78434 4.69223L5.69041 4.8688ZM8.4866 5.57795L8.47711 5.77772L8.47711 5.77772L8.4866 5.57795ZM11.2599 5.30961L11.2133 5.11511L11.2133 5.11511L11.2599 5.30961ZM12.15 5.45969L12.0447 5.62973L12.0449 5.62987L12.15 5.45969ZM12.2133 5.49828L12.1101 5.66964L12.1102 5.66967L12.2133 5.49828ZM12.6886 6.07019L12.4989 6.13358L12.4989 6.13361L12.6886 6.07019ZM12.9316 6.79717L13.1213 6.73377L13.1213 6.73375L12.9316 6.79717ZM12.1657 8.18137L12.0998 7.99255L12.0997 7.99256L12.1657 8.18137ZM9.67874 9.84073L9.82597 9.97609L9.82597 9.97609L9.67874 9.84073ZM8.16175 9.99403L8.03354 10.1475L8.03355 10.1475L8.16175 9.99403ZM19.7787 16.7729L19.5904 16.8403L19.5904 16.8403L19.7787 16.7729ZM20.3559 16.1579L20.4122 15.966L20.4122 15.9659L20.3559 16.1579ZM22.4535 17.4939L22.2946 17.6154L22.2946 17.6154L22.4535 17.4939ZM20.1943 17.9332L20.3826 17.8658L20.3826 17.8658L20.1943 17.9332ZM17.8592 14.2875L18.0479 14.2213L18.0479 14.2213L17.8592 14.2875ZM16.6105 14.713L16.8002 14.6496L16.8002 14.6496L16.6105 14.713ZM14.0617 7.08905L13.8721 7.15245L13.8721 7.15246L14.0617 7.08905ZM14.7175 6.33313L14.6956 6.53192L14.6956 6.53193L14.7175 6.33313ZM15.1951 6.69779L15.3838 6.63155L15.3838 6.63152L15.1951 6.69779ZM15.494 7.54941L15.6827 7.48319L15.6827 7.48317L15.494 7.54941ZM16.0527 9.14096L15.8639 9.20717L15.8639 9.20722L16.0527 9.14096ZM16.1848 9.51741L16.3735 9.45118L16.3735 9.45116L16.1848 9.51741ZM16.7384 11.0945L16.5496 11.1607L16.5497 11.1607L16.7384 11.0945ZM16.8585 11.4367L17.0472 11.3704L17.0472 11.3704L16.8585 11.4367ZM17.4329 13.0731L17.2442 13.1393L17.2442 13.1393L17.4329 13.0731ZM17.2084 9.47688L17.0197 9.54311L17.0197 9.54312L17.2084 9.47688ZM17.0597 9.05301L17.2484 8.98678L17.2484 8.98671L17.0597 9.05301ZM16.5264 7.5337L16.3376 7.59994L16.3376 7.59995L16.5264 7.5337ZM15.8905 5.72238L15.7018 5.78862L15.7018 5.78862L15.8905 5.72238ZM10.7751 1.24419L10.5751 1.24419L10.5751 1.24428L10.7751 1.24419ZM10.5304 1.003L10.5353 1.20294L10.5353 1.20294L10.5304 1.003ZM7.07103 1.84889L7.1583 2.02885L7.1583 2.02885L7.07103 1.84889ZM2.31902 5.81306L2.47172 5.94223L2.47172 5.94222L2.31902 5.81306ZM2.26218 5.89638L2.08621 5.80134L2.0862 5.80135L2.26218 5.89638ZM0.547896 9.07079L0.371917 8.97576L0.371913 8.97577L0.547896 9.07079ZM0.745062 9.73131L0.840434 9.55551L0.840416 9.5555L0.745062 9.73131ZM5.37164 12.7159L5.49254 12.5566L5.49254 12.5566L5.37164 12.7159ZM8.66752 15.4778L8.80193 15.3297L8.80192 15.3297L8.66752 15.4778ZM10.7617 17.4392L10.6233 17.5835L10.6233 17.5835L10.7617 17.4392ZM12.7828 19.396L12.6433 19.5394L12.6433 19.5394L12.7828 19.396ZM13.6305 20.2201L13.4911 20.3636L13.4912 20.3636L13.6305 20.2201ZM23.9603 18.5648L24.158 18.5345L24.1579 18.534L23.9603 18.5648ZM19.7479 15.0208L19.781 14.8235L19.781 14.8235L19.7479 15.0208ZM18.9188 14.3495L19.1075 14.2832L19.1075 14.2832L18.9188 14.3495ZM18.4242 12.9403L18.2354 13.0065L18.2354 13.0065L18.4242 12.9403ZM17.9027 11.4546L17.714 11.5209L17.714 11.5209L17.9027 11.4546ZM17.7505 11.0211L17.9392 10.9548L17.9392 10.9548L17.7505 11.0211ZM9.28315 4.60327L9.29171 4.80309L9.29172 4.80309L9.28315 4.60327ZM10.0687 3.00276L10.2561 2.9328L10.256 2.93261L10.0687 3.00276ZM10.0581 2.97388L10.2459 2.9053L10.2459 2.90523L10.0581 2.97388ZM8.87259 2.21369L8.92369 2.40705L8.92369 2.40705L8.87259 2.21369ZM7.49952 2.72726L7.58676 2.90722L7.58678 2.90721L7.49952 2.72726ZM6.92316 3.03372L7.0233 3.20685L7.02331 3.20684L6.92316 3.03372ZM7.0244 4.3597L6.96777 4.55152L6.96777 4.55152L7.0244 4.3597ZM8.53318 4.60232L8.52369 4.80209L8.5237 4.80209L8.53318 4.60232ZM2.57641 9.41652C2.20615 9.19704 2.07206 8.72955 2.27278 8.35787L1.92083 8.1678C1.61468 8.73469 1.82371 9.43534 2.37244 9.76061L2.57641 9.41652ZM2.27279 8.35786L2.44889 8.03174L2.09693 7.84168L1.92083 8.16781L2.27279 8.35786ZM2.44889 8.03174C2.68215 7.59979 3.25501 7.488 3.63602 7.80117L3.89001 7.49216C3.31582 7.0202 2.45054 7.18687 2.09693 7.84168L2.44889 8.03174ZM3.63603 7.80118C4.13173 8.20858 4.60782 8.59771 5.06716 8.9732L5.32032 8.66351C4.86091 8.28796 4.38523 7.89917 3.89 7.49215L3.63603 7.80118ZM5.06717 8.97321C6.90637 10.4765 8.47606 11.7597 9.9796 13.1309L10.2491 12.8353C8.73616 11.4555 7.15781 10.1654 5.32032 8.6635L5.06717 8.97321ZM9.9797 13.131C9.91319 13.0704 9.89928 12.9716 9.94516 12.8953L10.288 13.1014C10.3399 13.0151 10.3241 12.9036 10.249 12.8352L9.9797 13.131ZM9.94566 12.8945C9.88395 12.996 9.91812 13.1263 10.0174 13.1862L10.2241 12.8438C10.3118 12.8967 10.3423 13.012 10.2875 13.1022L9.94566 12.8945ZM10.0182 13.1867L10.092 13.2308L10.2972 12.8874L10.2233 12.8433L10.0182 13.1867ZM10.091 13.2302C10.0862 13.2273 10.0807 13.2233 10.075 13.2181L10.346 12.9239C10.3306 12.9097 10.3144 12.8978 10.2982 12.8881L10.091 13.2302ZM10.0754 13.2185C11.5564 14.5754 12.9772 16.0247 14.5295 17.86L14.835 17.6017C13.2711 15.7527 11.8384 14.2912 10.3456 12.9235L10.0754 13.2185ZM14.5295 17.86C15.5226 19.0342 16.9798 19.7581 18.5457 19.7581V19.3581C17.1046 19.3581 15.7568 18.6916 14.835 17.6017L14.5295 17.86ZM18.5457 19.7581H22.2853V19.3581H18.5457V19.7581ZM22.2853 19.7581C22.5811 19.7581 22.82 19.9971 22.82 20.2907H23.22C23.22 19.7751 22.8009 19.3581 22.2853 19.3581V19.7581ZM22.82 20.2907C22.82 20.5843 22.5811 20.8233 22.2853 20.8233V21.2233C22.8009 21.2233 23.22 20.8063 23.22 20.2907H22.82ZM22.2853 20.8233H18.0385V21.2233H22.2853V20.8233ZM18.0385 20.8233C16.6983 20.8233 15.4104 20.3061 14.4532 19.3768L14.1745 19.6638C15.2074 20.6665 16.5956 21.2233 18.0385 21.2233V20.8233ZM14.4532 19.3768C14.1576 19.0898 13.868 18.8081 13.5836 18.5313L13.3046 18.818C13.589 19.0947 13.8788 19.3766 14.1745 19.6638L14.4532 19.3768ZM13.5836 18.5313C9.70378 14.7564 6.77434 11.905 2.57641 9.41652L2.37244 9.76061C6.52341 12.2213 9.4208 15.0392 13.3046 18.818L13.5836 18.5313ZM11.8591 12.0427C11.3973 12.4836 11.4809 13.1883 11.9058 13.6022L12.1849 13.3157C11.889 13.0274 11.8693 12.586 12.1353 12.332L11.8591 12.0427ZM11.9058 13.6022C13.0088 14.6767 14.1086 15.8472 15.2784 17.2303L15.5838 16.972C14.4057 15.5791 13.2972 14.3992 12.1849 13.3157L11.9058 13.6022ZM15.2784 17.2303C16.0974 18.1986 17.2866 18.7814 18.5457 18.7814V18.3814C17.4113 18.3814 16.3314 17.856 15.5838 16.972L15.2784 17.2303ZM18.5457 18.7814C19.0929 18.7814 19.4766 18.2404 19.2918 17.7246L18.9153 17.8595C19.0061 18.1131 18.8178 18.3814 18.5457 18.3814V18.7814ZM19.2918 17.7246L18.9321 16.7203L18.5556 16.8552L18.9153 17.8595L19.2918 17.7246ZM18.9321 16.7203C18.7643 16.2518 18.3194 15.9396 17.8213 15.9396V16.3396C18.1511 16.3396 18.4449 16.5463 18.5556 16.8552L18.9321 16.7203ZM17.8213 15.9396H16.4078V16.3396H17.8213V15.9396ZM16.4078 15.9396C16.2827 15.9396 16.1722 15.8598 16.1329 15.7422L15.7535 15.869C15.8475 16.1503 16.1113 16.3396 16.4078 16.3396V15.9396ZM16.1329 15.7422L14.7824 11.7026L14.4031 11.8294L15.7535 15.869L16.1329 15.7422ZM14.7824 11.7026C14.5922 11.1338 13.9714 10.7566 13.3769 11.0196L13.5387 11.3854C13.8739 11.2371 14.2716 11.4362 14.4031 11.8294L14.7824 11.7026ZM13.3769 11.0196C12.8098 11.2705 12.3039 11.618 11.8591 12.0427L12.1353 12.332C12.549 11.937 13.0168 11.6163 13.5387 11.3854L13.3769 11.0196ZM13.4161 10.3792C13.8476 10.2147 14.1264 9.74028 13.9707 9.27445L13.5913 9.40124C13.6696 9.63562 13.5336 9.90634 13.2737 10.0054L13.4161 10.3792ZM13.9707 9.27443C13.8471 8.9048 13.472 8.65024 13.0668 8.7361L13.1497 9.12741C13.3332 9.08853 13.5245 9.20154 13.5913 9.40127L13.9707 9.27443ZM13.0668 8.73609C11.7552 9.01385 10.7045 9.74814 9.91381 10.7663L10.2297 11.0116C10.9704 10.0579 11.9424 9.38306 13.1497 9.12742L13.0668 8.73609ZM9.91383 10.7663C9.64443 11.1131 9.72565 11.5907 10.0357 11.866L10.3013 11.5669C10.1301 11.4148 10.1044 11.1729 10.2297 11.0116L9.91383 10.7663ZM10.0357 11.866C10.4047 12.1938 10.9574 12.1357 11.2853 11.7981L10.9983 11.5194C10.8034 11.7202 10.4935 11.7376 10.3013 11.5669L10.0357 11.866ZM11.2853 11.7981C11.8829 11.1828 12.5931 10.6928 13.4161 10.3792L13.2737 10.0054C12.3913 10.3417 11.6329 10.866 10.9983 11.5194L11.2853 11.7981ZM5.91987 7.89013C5.39835 7.46387 4.85728 7.02172 4.29214 6.55657L4.03794 6.86541C4.6037 7.33108 5.1453 7.77366 5.66674 8.19984L5.91987 7.89013ZM4.29215 6.55657C3.95208 6.27666 3.91745 5.77811 4.21538 5.47134L3.92843 5.19266C3.45885 5.67619 3.52715 6.44496 4.03794 6.86541L4.29215 6.55657ZM4.21537 5.47134C4.33121 5.35208 4.44591 5.23711 4.55947 5.1263L4.28012 4.84001C4.16394 4.95338 4.04671 5.07088 3.92844 5.19266L4.21537 5.47134ZM4.5595 5.12628C4.81595 4.87596 5.23641 4.85382 5.59648 5.04537L5.78434 4.69223C5.31613 4.44316 4.6945 4.43553 4.2801 4.84003L4.5595 5.12628ZM5.59647 5.04537C6.51339 5.5332 7.53222 5.73285 8.47711 5.77772L8.49608 5.37817C7.59052 5.33517 6.6341 5.14433 5.78435 4.69223L5.59647 5.04537ZM8.47711 5.77772C9.52632 5.82754 10.5327 5.6895 11.3065 5.5041L11.2133 5.11511C10.4691 5.29343 9.50089 5.42588 8.49608 5.37817L8.47711 5.77772ZM11.3065 5.50411C11.5555 5.44446 11.8219 5.49175 12.0447 5.62973L12.2553 5.28965C11.9472 5.09888 11.5721 5.02917 11.2133 5.11511L11.3065 5.50411ZM12.0449 5.62987C12.0665 5.64315 12.0882 5.65643 12.1101 5.66964L12.3164 5.32692C12.296 5.31466 12.2756 5.30219 12.2551 5.28951L12.0449 5.62987ZM12.1102 5.66967C12.2952 5.78094 12.4352 5.94313 12.4989 6.13358L12.8782 6.0068C12.78 5.71267 12.57 5.47946 12.3163 5.32689L12.1102 5.66967ZM12.4989 6.13361L12.742 6.8606L13.1213 6.73375L12.8782 6.00677L12.4989 6.13361ZM12.742 6.86057C12.8925 7.31105 12.5972 7.8189 12.0998 7.99255L12.2316 8.3702C12.8863 8.14162 13.3567 7.43803 13.1213 6.73377L12.742 6.86057ZM12.0997 7.99256C11.0867 8.34634 10.2303 8.94536 9.53151 9.70536L9.82597 9.97609C10.4848 9.25955 11.2869 8.70013 12.2316 8.37019L12.0997 7.99256ZM9.53151 9.70536C9.19586 10.0704 8.64342 10.1357 8.28995 9.84052L8.03355 10.1475C8.57758 10.6019 9.37056 10.4714 9.82597 9.97609L9.53151 9.70536ZM8.28996 9.84053C7.53869 9.21302 6.75415 8.57188 5.91986 7.89011L5.66675 8.19985C6.50138 8.88189 7.28421 9.52164 8.03354 10.1475L8.28996 9.84053ZM19.967 16.7054C19.9034 16.5278 20.0352 16.3396 20.2263 16.3396V15.9396C19.7601 15.9396 19.4329 16.4006 19.5904 16.8403L19.967 16.7054ZM20.2263 16.3396C20.2519 16.3396 20.2768 16.3431 20.2995 16.3498L20.4122 15.9659C20.351 15.948 20.288 15.9396 20.2263 15.9396V16.3396ZM20.2995 16.3497C21.278 16.6371 21.9093 17.1116 22.2946 17.6154L22.6123 17.3725C22.1699 16.7938 21.463 16.2746 20.4122 15.966L20.2995 16.3497ZM22.2946 17.6154C22.4276 17.7894 22.4131 17.966 22.3139 18.1098C22.2088 18.2622 22.0019 18.3814 21.751 18.3814V18.7814C22.1248 18.7814 22.4586 18.6045 22.6432 18.337C22.8337 18.0609 22.8581 17.6938 22.6123 17.3724L22.2946 17.6154ZM21.751 18.3814H21.1168V18.7814H21.751V18.3814ZM21.1168 18.3814C20.787 18.3814 20.4932 18.1747 20.3826 17.8658L20.006 18.0006C20.1738 18.4692 20.6187 18.7814 21.1168 18.7814V18.3814ZM20.3826 17.8658L19.967 16.7054L19.5904 16.8403L20.006 18.0006L20.3826 17.8658ZM17.6705 14.3538C17.7747 14.6507 17.5539 14.9628 17.2365 14.9628V15.3628C17.8279 15.3628 18.244 14.7799 18.0479 14.2213L17.6705 14.3538ZM17.2365 14.9628C17.0381 14.9628 16.8626 14.8363 16.8002 14.6496L16.4208 14.7764C16.538 15.1269 16.8667 15.3628 17.2365 15.3628V14.9628ZM16.8002 14.6496L14.2514 7.02563L13.8721 7.15246L16.4208 14.7764L16.8002 14.6496ZM14.2514 7.02565C14.1705 6.78338 14.3959 6.49889 14.6956 6.53192L14.7394 6.13433C14.1949 6.07431 13.6845 6.59131 13.8721 7.15245L14.2514 7.02565ZM14.6956 6.53193C14.842 6.54806 14.9634 6.64176 15.0064 6.76407L15.3838 6.63152C15.2843 6.34817 15.0213 6.16538 14.7394 6.13433L14.6956 6.53193ZM15.0064 6.76403L15.3053 7.61565L15.6827 7.48317L15.3838 6.63155L15.0064 6.76403ZM15.3053 7.61563C15.3087 7.62546 15.3016 7.63722 15.2892 7.63722V8.03722C15.5757 8.03722 15.778 7.7547 15.6827 7.48319L15.3053 7.61563ZM15.2892 7.63722C15.0595 7.63722 14.8723 7.82305 14.8723 8.05357H15.2723C15.2723 8.04508 15.2793 8.03722 15.2892 8.03722V7.63722ZM14.8723 8.05357V8.32559H15.2723V8.05357H14.8723ZM14.8723 8.32559C14.8723 8.70633 15.1817 9.01396 15.562 9.01396V8.61396C15.4015 8.61396 15.2723 8.4843 15.2723 8.32559H14.8723ZM15.562 9.01396H15.5904V8.61396H15.562V9.01396ZM15.5904 9.01396C15.7139 9.01396 15.8235 9.09181 15.8639 9.20717L16.2414 9.07475C16.1444 8.79848 15.8831 8.61396 15.5904 8.61396V9.01396ZM15.8639 9.20722L15.9961 9.58366L16.3735 9.45116L16.2414 9.07471L15.8639 9.20722ZM15.9961 9.58364C15.9965 9.58471 15.9965 9.58526 15.9965 9.5854C15.9966 9.58557 15.9966 9.58569 15.9965 9.58583C15.9965 9.58618 15.9962 9.58709 15.9954 9.58821C15.9946 9.58934 15.9938 9.58996 15.9933 9.59022C15.9931 9.59031 15.9925 9.59071 15.9904 9.59071V9.99071C16.2694 9.99071 16.4663 9.71557 16.3735 9.45118L15.9961 9.58364ZM15.9904 9.59071C15.7667 9.59071 15.5843 9.77166 15.5843 9.99613H15.9843C15.9843 9.99368 15.9865 9.99071 15.9904 9.99071V9.59071ZM15.5843 9.99613V10.2791H15.9843V9.99613H15.5843ZM15.5843 10.2791C15.5843 10.6604 15.8955 10.9675 16.2753 10.9675V10.5675C16.1141 10.5675 15.9843 10.4372 15.9843 10.2791H15.5843ZM16.2753 10.9675C16.3992 10.9675 16.5093 11.0457 16.5496 11.1607L16.9271 11.0282C16.83 10.7516 16.5677 10.5675 16.2753 10.5675V10.9675ZM16.5497 11.1607L16.6698 11.5029L17.0472 11.3704L16.9271 11.0282L16.5497 11.1607ZM16.6698 11.5029C16.6766 11.5223 16.6624 11.5442 16.6397 11.5442V11.9442C16.9363 11.9442 17.1459 11.6516 17.0472 11.3704L16.6698 11.5029ZM16.6397 11.5442C16.4018 11.5442 16.2078 11.7366 16.2078 11.9753H16.6078C16.6078 11.9587 16.6215 11.9442 16.6397 11.9442V11.5442ZM16.2078 11.9753V12.2326H16.6078V11.9753H16.2078ZM16.2078 12.2326C16.2078 12.6133 16.5173 12.9209 16.8976 12.9209V12.5209C16.737 12.5209 16.6078 12.3913 16.6078 12.2326H16.2078ZM16.8976 12.9209H16.9352V12.5209H16.8976V12.9209ZM16.9352 12.9209C17.0747 12.9209 17.1984 13.0088 17.2442 13.1393L17.6216 13.0069C17.5194 12.7155 17.2439 12.5209 16.9352 12.5209V12.9209ZM17.2442 13.1393L17.6705 14.3538L18.0479 14.2213L17.6216 13.0068L17.2442 13.1393ZM17.6521 9.59071C17.537 9.59071 17.4349 9.51818 17.3972 9.41065L17.0197 9.54312C17.1139 9.81151 17.3677 9.99071 17.6521 9.99071V9.59071ZM17.3972 9.41066L17.2484 8.98678L16.871 9.11923L17.0197 9.54311L17.3972 9.41066ZM17.2484 8.98671C17.2534 9.00084 17.2426 9.01396 17.2298 9.01396V8.61396C16.9687 8.61396 16.7839 8.87156 16.871 9.11931L17.2484 8.98671ZM17.2298 9.01396C17.4392 9.01396 17.61 8.84449 17.61 8.63424H17.21C17.21 8.62247 17.2194 8.61396 17.2298 8.61396V9.01396ZM17.61 8.63424V8.29046H17.21V8.63424H17.61ZM17.61 8.29046C17.61 7.92908 17.3163 7.63722 16.9554 7.63722V8.03722C17.0966 8.03722 17.21 8.15117 17.21 8.29046H17.61ZM16.9554 7.63722C16.8469 7.63722 16.7507 7.56883 16.7151 7.46745L16.3376 7.59995C16.4297 7.86212 16.6776 8.03722 16.9554 8.03722V7.63722ZM16.7151 7.46746L16.0793 5.65614L15.7018 5.78862L16.3376 7.59994L16.7151 7.46746ZM16.0793 5.65614C15.9823 5.37984 15.721 5.19535 15.4282 5.19535V5.59535C15.5518 5.59535 15.6613 5.67317 15.7018 5.78862L16.0793 5.65614ZM15.4282 5.19535C12.8658 5.19535 10.9752 3.44039 10.9752 1.48843L10.5752 1.48844C10.5752 3.71614 12.704 5.59535 15.4282 5.59535V5.19535ZM10.9752 1.48844C10.9752 1.51558 10.9695 1.55451 10.9452 1.5937C10.9198 1.63483 10.8823 1.66244 10.8429 1.6766C10.7747 1.70118 10.712 1.68375 10.6723 1.65992C10.6527 1.6482 10.6118 1.61903 10.5893 1.5622C10.5767 1.5306 10.5702 1.49018 10.5797 1.44626C10.5891 1.40257 10.6113 1.36944 10.6338 1.34701C10.6735 1.30728 10.7176 1.29635 10.7317 1.29323C10.7508 1.28895 10.7666 1.28844 10.7752 1.28844V1.68844C10.7837 1.68844 10.7995 1.68792 10.8187 1.68365C10.8327 1.68052 10.8769 1.66959 10.9166 1.62985C10.939 1.60743 10.9613 1.57429 10.9707 1.5306C10.9802 1.48668 10.9736 1.44626 10.9611 1.41466C10.9385 1.35783 10.8976 1.32865 10.8781 1.31693C10.8384 1.2931 10.7757 1.27567 10.7074 1.30025C10.6681 1.31441 10.6306 1.34202 10.6051 1.38316C10.5808 1.42236 10.5752 1.46129 10.5752 1.48844H10.9752ZM10.9752 1.48835L10.9751 1.2441L10.5751 1.24428L10.5752 1.48853L10.9752 1.48835ZM10.9751 1.24419C10.9751 0.999891 10.7759 0.796838 10.5254 0.803067L10.5353 1.20294C10.5552 1.20245 10.5751 1.21877 10.5751 1.24419H10.9751ZM10.5254 0.803067C9.51746 0.828123 8.33116 1.01551 6.98376 1.66894L7.1583 2.02885C8.4454 1.40467 9.57368 1.22685 10.5353 1.20294L10.5254 0.803067ZM6.98376 1.66894C5.53049 2.3737 3.92683 3.60247 2.16631 5.68391L2.47172 5.94222C4.20537 3.89255 5.76665 2.70373 7.1583 2.02885L6.98376 1.66894ZM2.16632 5.6839C2.13562 5.72019 2.10878 5.75955 2.08621 5.80134L2.43815 5.99143C2.44761 5.97392 2.45886 5.95743 2.47172 5.94223L2.16632 5.6839ZM2.0862 5.80135L0.371917 8.97576L0.723875 9.16583L2.43816 5.99142L2.0862 5.80135ZM0.371913 8.97577C0.191516 9.30985 0.3161 9.72617 0.649707 9.90712L0.840416 9.5555C0.700258 9.47948 0.648567 9.30529 0.72388 9.16582L0.371913 8.97577ZM0.649689 9.90711C2.3647 10.8375 3.85019 11.8125 5.25075 12.8752L5.49254 12.5566C4.07658 11.4821 2.57409 10.4961 0.840434 9.55551L0.649689 9.90711ZM5.25074 12.8752C5.8071 13.2974 5.51487 14.1748 4.78062 14.1748V14.5748C5.86317 14.5748 6.38186 13.2315 5.49254 12.5566L5.25074 12.8752ZM4.78062 14.1748H1.76959V14.5748H4.78062V14.1748ZM1.76959 14.1748C1.38918 14.1748 1.0798 14.4825 1.0798 14.8632H1.4798C1.4798 14.7045 1.60899 14.5748 1.76959 14.5748V14.1748ZM1.0798 14.8632C1.0798 15.2439 1.38918 15.5516 1.76959 15.5516V15.1516C1.60899 15.1516 1.4798 15.0219 1.4798 14.8632H1.0798ZM1.76959 15.5516H8.33682V15.1516H1.76959V15.5516ZM8.33682 15.5516C8.41168 15.5516 8.48009 15.5778 8.53313 15.626L8.80192 15.3297C8.67305 15.2128 8.50801 15.1516 8.33682 15.1516V15.5516ZM8.53312 15.6259C8.72834 15.8031 8.60526 16.1283 8.33627 16.1283V16.5283C8.96624 16.5283 9.27157 15.7559 8.80193 15.3297L8.53312 15.6259ZM8.33627 16.1283H4.59748V16.5283H8.33627V16.1283ZM4.59748 16.1283C4.21705 16.1283 3.90769 16.4359 3.90769 16.8166H4.30769C4.30769 16.6579 4.43687 16.5283 4.59748 16.5283V16.1283ZM3.90769 16.8166C3.90769 17.1974 4.21705 17.505 4.59748 17.505V17.105C4.43687 17.105 4.30769 16.9754 4.30769 16.8166H3.90769ZM4.59748 17.505H10.4239V17.105H4.59748V17.505ZM10.4239 17.505C10.501 17.505 10.5704 17.5327 10.6233 17.5835L10.9002 17.2948C10.7702 17.1702 10.6007 17.105 10.4239 17.105V17.505ZM10.6233 17.5835C10.8121 17.7645 10.6843 18.0818 10.4236 18.0818V18.4818C11.0461 18.4818 11.3481 17.7242 10.9001 17.2948L10.6233 17.5835ZM10.4236 18.0818H7.53565V18.4818H10.4236V18.0818ZM7.53565 18.0818C7.15522 18.0818 6.84586 18.3894 6.84586 18.7702H7.24586C7.24586 18.6114 7.37505 18.4818 7.53565 18.4818V18.0818ZM6.84586 18.7702C6.84586 19.1509 7.15522 19.4585 7.53565 19.4585V19.0585C7.37504 19.0585 7.24586 18.9289 7.24586 18.7702H6.84586ZM7.53565 19.4585H12.444V19.0585H7.53565V19.4585ZM12.444 19.4585C12.5186 19.4585 12.5902 19.4876 12.6433 19.5394L12.9223 19.2527C12.7942 19.1281 12.6225 19.0585 12.444 19.0585V19.4585ZM12.6433 19.5394C12.9202 19.8087 13.2027 20.0835 13.4911 20.3636L13.7698 20.0766C13.4815 19.7967 13.1991 19.522 12.9222 19.2526L12.6433 19.5394ZM13.4912 20.3636C14.7089 21.5458 16.3431 22.2 18.0385 22.2V21.8C16.4458 21.8 14.912 21.1854 13.7698 20.0766L13.4912 20.3636ZM18.0385 22.2H23.5098V21.8H18.0385V22.2ZM23.5098 22.2C23.8902 22.2 24.1995 21.8924 24.1995 21.5116H23.7995C23.7995 21.6704 23.6704 21.8 23.5098 21.8V22.2ZM24.1995 21.5116V19.0698H23.7995V21.5116H24.1995ZM24.1995 19.0698V19.0421H23.7995V19.0698H24.1995ZM24.1995 19.0421V18.6011H23.7995V19.0421H24.1995ZM24.1995 18.6011C24.1995 18.48 24.1014 18.3814 23.9798 18.3814V18.7814C23.8801 18.7814 23.7995 18.7005 23.7995 18.6011H24.1995ZM23.9798 18.3814C24.0667 18.3814 24.1442 18.4444 24.158 18.5345L23.7626 18.595C23.7793 18.7043 23.8734 18.7814 23.9798 18.7814V18.3814ZM24.1579 18.534C23.9101 16.9401 22.5556 15.2896 19.781 14.8235L19.7148 15.218C22.3455 15.6599 23.5451 17.1966 23.7626 18.5955L24.1579 18.534ZM19.781 14.8235C19.4675 14.7709 19.2069 14.5663 19.1075 14.2832L18.7301 14.4157C18.8832 14.8519 19.2747 15.1441 19.7148 15.218L19.781 14.8235ZM19.1075 14.2832L18.6129 12.874L18.2354 13.0065L18.7301 14.4157L19.1075 14.2832ZM18.6129 12.8741C18.6212 12.8977 18.6033 12.9209 18.5803 12.9209V12.5209C18.3293 12.5209 18.1519 12.7684 18.2354 13.0065L18.6129 12.8741ZM18.5803 12.9209C18.7815 12.9209 18.9456 12.7581 18.9456 12.5561H18.5456C18.5456 12.5361 18.5616 12.5209 18.5803 12.5209V12.9209ZM18.9456 12.5561V12.1766H18.5456V12.5561H18.9456ZM18.9456 12.1766C18.9456 11.8268 18.6614 11.5442 18.312 11.5442V11.9442C18.4416 11.9442 18.5456 12.0488 18.5456 12.1766H18.9456ZM18.312 11.5442C18.2123 11.5442 18.124 11.4814 18.0914 11.3884L17.714 11.5209C17.8031 11.7747 18.0431 11.9442 18.312 11.9442V11.5442ZM18.0914 11.3884L17.9392 10.9548L17.5618 11.0873L17.714 11.5209L18.0914 11.3884ZM17.9392 10.9548C17.9394 10.9555 17.9398 10.9574 17.9394 10.9598C17.9391 10.9617 17.9385 10.963 17.938 10.9637C17.9374 10.9645 17.9365 10.9654 17.935 10.9662C17.9342 10.9667 17.9333 10.967 17.9324 10.9672C17.932 10.9673 17.9316 10.9674 17.9313 10.9674C17.9311 10.9675 17.9309 10.9675 17.9309 10.9675V10.5675C17.6622 10.5675 17.4723 10.8325 17.5618 11.0873L17.9392 10.9548ZM17.9309 10.9675C18.1465 10.9675 18.3221 10.793 18.3221 10.5768H17.9221C17.9221 10.5711 17.9266 10.5675 17.9309 10.5675V10.9675ZM18.3221 10.5768V10.2594H17.9221V10.5768H18.3221ZM18.3221 10.2594C18.3221 9.88959 18.0216 9.59071 17.6521 9.59071V9.99071C17.8018 9.99071 17.9221 10.1116 17.9221 10.2594H18.3221ZM9.29172 4.80309C9.75191 4.78335 10.0718 4.49492 10.2322 4.13042C10.3904 3.77105 10.4025 3.32475 10.2561 2.9328L9.88138 3.07273C9.99263 3.37065 9.98073 3.70879 9.86608 3.96929C9.75369 4.22467 9.55196 4.39156 9.27458 4.40346L9.29172 4.80309ZM10.256 2.93261C10.2526 2.9234 10.2492 2.9143 10.2459 2.9053L9.87018 3.04246C9.87393 3.05274 9.8777 3.06291 9.88145 3.07292L10.256 2.93261ZM10.2459 2.90523C10.0423 2.34803 9.483 1.84549 8.82148 2.02032L8.92369 2.40705C9.30459 2.30638 9.70461 2.58942 9.8702 3.04253L10.2459 2.90523ZM8.82148 2.02032C8.37689 2.13782 7.90742 2.30717 7.41225 2.5473L7.58678 2.90721C8.05876 2.67833 8.50401 2.51796 8.92369 2.40705L8.82148 2.02032ZM7.41227 2.54729C7.22013 2.64044 7.02375 2.74448 6.82301 2.8606L7.02331 3.20684C7.21579 3.09549 7.40357 2.99604 7.58676 2.90722L7.41227 2.54729ZM6.82302 2.8606C6.46913 3.0653 6.29354 3.42064 6.31611 3.76439C6.33896 4.11256 6.56496 4.4326 6.96777 4.55152L7.08103 4.16788C6.84161 4.0972 6.7273 3.92182 6.71525 3.73819C6.7029 3.55013 6.79781 3.33728 7.0233 3.20685L6.82302 2.8606ZM6.96777 4.55152C7.47011 4.69982 7.99764 4.7771 8.52369 4.80209L8.54267 4.40254C8.04229 4.37877 7.54719 4.30551 7.08103 4.16788L6.96777 4.55152ZM8.5237 4.80209C8.78377 4.81443 9.04107 4.81382 9.29171 4.80309L9.27459 4.40346C9.03493 4.41372 8.7897 4.41426 8.54266 4.40254L8.5237 4.80209Z" fill="#4F4F4F" mask="url(#path-2-outside-1_2747_5582)"/>
<mask id="path-4-outside-2_2747_5582" maskUnits="userSpaceOnUse" x="-0.683105" y="0" width="25" height="23" fill="black">
<rect fill="white" x="-0.683105" width="25" height="23"/>
<path fill-rule="evenodd" clip-rule="evenodd" d="M1.64036 9.1084L2.84074 6.88562C3.67624 7.57777 4.45638 8.21546 5.19397 8.81835C7.03526 10.3234 8.61135 11.6117 10.1218 12.9897L10.1104 13.0087L10.2036 13.0644C11.6929 14.4287 13.1219 15.8857 14.6825 17.7308C15.6399 18.8629 17.0424 19.5581 18.5458 19.5581H23.0202V21.0233H18.0387C16.6471 21.0233 15.3091 20.4863 14.314 19.5203C14.0184 19.2332 13.7287 18.9514 13.4443 18.6747C9.30907 14.6513 6.27279 11.6971 1.64036 9.1084ZM11.4051 12.8457C12.7308 14.0934 14.0314 15.446 15.4313 17.1012C16.2146 18.0273 17.3491 18.5814 18.5458 18.5814H19.3864L18.5118 16.1395H16.4079H16.0549L15.9433 15.8056L14.3085 10.9155C13.1132 11.2023 12.1453 11.8915 11.4051 12.8457ZM13.9977 9.98585L13.6178 8.84961C11.9226 9.04016 10.6341 9.98145 9.7475 11.3455C10.0633 11.6214 10.3751 11.8986 10.6844 12.1796C11.52 11.1292 12.6243 10.3351 13.9977 9.98585ZM5.7935 8.04495C5.03816 7.42766 4.24119 6.77636 3.3896 6.07038C3.95374 5.43075 4.49434 4.89015 5.0111 4.43339C6.04419 5.22422 7.31546 5.52234 8.48666 5.57795C9.74701 5.63778 10.9474 5.42053 11.7398 5.18006C11.9955 5.37144 12.2708 5.54293 12.5623 5.69222L13.3021 7.9051C11.4206 8.17712 9.98549 9.24411 9.00075 10.7014C7.99769 9.84626 6.94389 8.98507 5.7935 8.04495ZM19.5519 16.1395H20.2921C22.0232 16.6268 22.7712 17.6858 22.9661 18.5814H20.4266L19.5519 16.1395ZM18.1665 15.1628H16.7609L13.7478 6.1495C14.1736 6.26514 14.6194 6.3379 15.0775 6.36261L15.5951 7.83722H15.0724V8.81396H15.938L16.2808 9.79071H15.7845V10.7675H16.6237L16.9665 11.7442H16.4079V12.7209H17.3094L18.1665 15.1628ZM17.3187 9.79071L16.9758 8.81396H17.4101V7.83722H16.6329L15.8906 5.72238L15.7758 5.39535H15.4283C12.7849 5.39535 10.7753 3.57822 10.7753 1.48837V1C9.73921 1 8.49926 1.15638 7.07126 1.84889C5.64879 2.53871 4.06632 3.74751 2.31922 5.81306L2.28647 5.85176L2.26238 5.89638L0.548096 9.07079L0.316895 9.49889L0.745265 9.73131C3.32412 11.1303 5.38777 12.6302 7.41989 14.3748H1.2798V15.3515H8.52814C8.87963 15.6688 9.23276 15.9941 9.59009 16.3283H4.10783V17.305H10.6219C10.954 17.6226 11.2913 17.948 11.6359 18.2817H7.04592V19.2585H12.6416C12.6886 19.3042 12.7358 19.3501 12.7831 19.3961C13.06 19.6655 13.3422 19.94 13.6307 20.2201C14.8106 21.3656 16.3947 22 18.0387 22H23.51H23.9998V21.5116V19.0698V19.0663V18.5814H23.9629C23.7206 16.9698 22.2673 15.24 19.126 14.9394L18.3472 12.7209H18.7457V11.7442H18.0044L17.6615 10.7675H18.1222V9.79071H17.3187ZM10.8946 4.39145C10.3221 3.72238 9.94081 2.91762 9.82949 2.03094C9.13182 2.11472 8.35687 2.31158 7.49969 2.72726C6.96689 2.98564 6.39762 3.33086 5.79233 3.79106C6.58289 4.32427 7.55459 4.55582 8.53324 4.60229C9.39811 4.64336 10.2361 4.53774 10.8946 4.39145Z"/>
</mask>
<path fill-rule="evenodd" clip-rule="evenodd" d="M1.64036 9.1084L2.84074 6.88562C3.67624 7.57777 4.45638 8.21546 5.19397 8.81835C7.03526 10.3234 8.61135 11.6117 10.1218 12.9897L10.1104 13.0087L10.2036 13.0644C11.6929 14.4287 13.1219 15.8857 14.6825 17.7308C15.6399 18.8629 17.0424 19.5581 18.5458 19.5581H23.0202V21.0233H18.0387C16.6471 21.0233 15.3091 20.4863 14.314 19.5203C14.0184 19.2332 13.7287 18.9514 13.4443 18.6747C9.30907 14.6513 6.27279 11.6971 1.64036 9.1084ZM11.4051 12.8457C12.7308 14.0934 14.0314 15.446 15.4313 17.1012C16.2146 18.0273 17.3491 18.5814 18.5458 18.5814H19.3864L18.5118 16.1395H16.4079H16.0549L15.9433 15.8056L14.3085 10.9155C13.1132 11.2023 12.1453 11.8915 11.4051 12.8457ZM13.9977 9.98585L13.6178 8.84961C11.9226 9.04016 10.6341 9.98145 9.7475 11.3455C10.0633 11.6214 10.3751 11.8986 10.6844 12.1796C11.52 11.1292 12.6243 10.3351 13.9977 9.98585ZM5.7935 8.04495C5.03816 7.42766 4.24119 6.77636 3.3896 6.07038C3.95374 5.43075 4.49434 4.89015 5.0111 4.43339C6.04419 5.22422 7.31546 5.52234 8.48666 5.57795C9.74701 5.63778 10.9474 5.42053 11.7398 5.18006C11.9955 5.37144 12.2708 5.54293 12.5623 5.69222L13.3021 7.9051C11.4206 8.17712 9.98549 9.24411 9.00075 10.7014C7.99769 9.84626 6.94389 8.98507 5.7935 8.04495ZM19.5519 16.1395H20.2921C22.0232 16.6268 22.7712 17.6858 22.9661 18.5814H20.4266L19.5519 16.1395ZM18.1665 15.1628H16.7609L13.7478 6.1495C14.1736 6.26514 14.6194 6.3379 15.0775 6.36261L15.5951 7.83722H15.0724V8.81396H15.938L16.2808 9.79071H15.7845V10.7675H16.6237L16.9665 11.7442H16.4079V12.7209H17.3094L18.1665 15.1628ZM17.3187 9.79071L16.9758 8.81396H17.4101V7.83722H16.6329L15.8906 5.72238L15.7758 5.39535H15.4283C12.7849 5.39535 10.7753 3.57822 10.7753 1.48837V1C9.73921 1 8.49926 1.15638 7.07126 1.84889C5.64879 2.53871 4.06632 3.74751 2.31922 5.81306L2.28647 5.85176L2.26238 5.89638L0.548096 9.07079L0.316895 9.49889L0.745265 9.73131C3.32412 11.1303 5.38777 12.6302 7.41989 14.3748H1.2798V15.3515H8.52814C8.87963 15.6688 9.23276 15.9941 9.59009 16.3283H4.10783V17.305H10.6219C10.954 17.6226 11.2913 17.948 11.6359 18.2817H7.04592V19.2585H12.6416C12.6886 19.3042 12.7358 19.3501 12.7831 19.3961C13.06 19.6655 13.3422 19.94 13.6307 20.2201C14.8106 21.3656 16.3947 22 18.0387 22H23.51H23.9998V21.5116V19.0698V19.0663V18.5814H23.9629C23.7206 16.9698 22.2673 15.24 19.126 14.9394L18.3472 12.7209H18.7457V11.7442H18.0044L17.6615 10.7675H18.1222V9.79071H17.3187ZM10.8946 4.39145C10.3221 3.72238 9.94081 2.91762 9.82949 2.03094C9.13182 2.11472 8.35687 2.31158 7.49969 2.72726C6.96689 2.98564 6.39762 3.33086 5.79233 3.79106C6.58289 4.32427 7.55459 4.55582 8.53324 4.60229C9.39811 4.64336 10.2361 4.53774 10.8946 4.39145Z" fill="#4F4F4F"/>
<path fill-rule="evenodd" clip-rule="evenodd" d="M1.64036 9.1084L2.84074 6.88562C3.67624 7.57777 4.45638 8.21546 5.19397 8.81835C7.03526 10.3234 8.61135 11.6117 10.1218 12.9897L10.1104 13.0087L10.2036 13.0644C11.6929 14.4287 13.1219 15.8857 14.6825 17.7308C15.6399 18.8629 17.0424 19.5581 18.5458 19.5581H23.0202V21.0233H18.0387C16.6471 21.0233 15.3091 20.4863 14.314 19.5203C14.0184 19.2332 13.7287 18.9514 13.4443 18.6747C9.30907 14.6513 6.27279 11.6971 1.64036 9.1084ZM11.4051 12.8457C12.7308 14.0934 14.0314 15.446 15.4313 17.1012C16.2146 18.0273 17.3491 18.5814 18.5458 18.5814H19.3864L18.5118 16.1395H16.4079H16.0549L15.9433 15.8056L14.3085 10.9155C13.1132 11.2023 12.1453 11.8915 11.4051 12.8457ZM13.9977 9.98585L13.6178 8.84961C11.9226 9.04016 10.6341 9.98145 9.7475 11.3455C10.0633 11.6214 10.3751 11.8986 10.6844 12.1796C11.52 11.1292 12.6243 10.3351 13.9977 9.98585ZM5.7935 8.04495C5.03816 7.42766 4.24119 6.77636 3.3896 6.07038C3.95374 5.43075 4.49434 4.89015 5.0111 4.43339C6.04419 5.22422 7.31546 5.52234 8.48666 5.57795C9.74701 5.63778 10.9474 5.42053 11.7398 5.18006C11.9955 5.37144 12.2708 5.54293 12.5623 5.69222L13.3021 7.9051C11.4206 8.17712 9.98549 9.24411 9.00075 10.7014C7.99769 9.84626 6.94389 8.98507 5.7935 8.04495ZM19.5519 16.1395H20.2921C22.0232 16.6268 22.7712 17.6858 22.9661 18.5814H20.4266L19.5519 16.1395ZM18.1665 15.1628H16.7609L13.7478 6.1495C14.1736 6.26514 14.6194 6.3379 15.0775 6.36261L15.5951 7.83722H15.0724V8.81396H15.938L16.2808 9.79071H15.7845V10.7675H16.6237L16.9665 11.7442H16.4079V12.7209H17.3094L18.1665 15.1628ZM17.3187 9.79071L16.9758 8.81396H17.4101V7.83722H16.6329L15.8906 5.72238L15.7758 5.39535H15.4283C12.7849 5.39535 10.7753 3.57822 10.7753 1.48837V1C9.73921 1 8.49926 1.15638 7.07126 1.84889C5.64879 2.53871 4.06632 3.74751 2.31922 5.81306L2.28647 5.85176L2.26238 5.89638L0.548096 9.07079L0.316895 9.49889L0.745265 9.73131C3.32412 11.1303 5.38777 12.6302 7.41989 14.3748H1.2798V15.3515H8.52814C8.87963 15.6688 9.23276 15.9941 9.59009 16.3283H4.10783V17.305H10.6219C10.954 17.6226 11.2913 17.948 11.6359 18.2817H7.04592V19.2585H12.6416C12.6886 19.3042 12.7358 19.3501 12.7831 19.3961C13.06 19.6655 13.3422 19.94 13.6307 20.2201C14.8106 21.3656 16.3947 22 18.0387 22H23.51H23.9998V21.5116V19.0698V19.0663V18.5814H23.9629C23.7206 16.9698 22.2673 15.24 19.126 14.9394L18.3472 12.7209H18.7457V11.7442H18.0044L17.6615 10.7675H18.1222V9.79071H17.3187ZM10.8946 4.39145C10.3221 3.72238 9.94081 2.91762 9.82949 2.03094C9.13182 2.11472 8.35687 2.31158 7.49969 2.72726C6.96689 2.98564 6.39762 3.33086 5.79233 3.79106C6.58289 4.32427 7.55459 4.55582 8.53324 4.60229C9.39811 4.64336 10.2361 4.53774 10.8946 4.39145Z" stroke="#4F4F4F" stroke-width="0.4" mask="url(#path-4-outside-2_2747_5582)"/>
</g>
</svg>
