<svg width="25" height="23" viewBox="0 0 25 23" fill="none" xmlns="http://www.w3.org/2000/svg">
<path fill-rule="evenodd" clip-rule="evenodd" d="M3.74768 7.94169C3.29137 7.56594 2.60479 7.69959 2.32454 8.22005V8.22005C2.08329 8.66809 2.24493 9.22574 2.68122 9.48763C6.46956 11.7617 9.22319 14.3377 12.6219 17.6447C14.7119 19.6782 17.5103 20.8117 20.4274 20.8117H22.1909C22.4786 20.8117 22.7119 20.5785 22.7119 20.2908V20.2908C22.7119 20.0031 22.4786 19.7699 22.1909 19.7699H20.6954C17.7143 19.7699 14.9689 18.3658 12.994 16.212C10.4507 13.4383 8.12189 11.5292 5.02375 8.98939C4.6127 8.65242 4.18811 8.30435 3.74768 7.94169ZM4.41318 5.24526C4.002 5.655 4.02491 6.35581 4.47289 6.72497C4.95568 7.12283 5.42124 7.5044 5.87226 7.87406L5.87233 7.87412C7.06843 8.85446 8.16227 9.75098 9.2041 10.645C9.97589 11.3073 11.1173 11.2127 11.9593 10.6423V10.6423C12.8021 10.0714 13.3889 9.03952 13.067 8.07384L12.4374 6.18489C12.3634 5.96289 12.2036 5.77964 12.004 5.65749V5.65749C11.765 5.5112 11.4794 5.46082 11.2066 5.52509C10.4377 5.70627 9.45011 5.83832 8.42239 5.78938C7.52853 5.74682 6.56551 5.56477 5.68615 5.12841C5.2553 4.91461 4.75389 4.90575 4.41318 5.24526V5.24526ZM14.5829 12.6214C14.3123 11.8097 13.4282 11.3335 12.7221 11.8168V11.8168C12.0289 12.2913 12.1031 13.2727 12.6945 13.8693C13.1356 14.3141 13.5779 14.7773 14.0259 15.2659C15.0368 16.3683 16.2596 17.2324 17.6 17.7659C18.1633 17.9902 18.666 17.434 18.462 16.863V16.863C18.3524 16.5561 18.0617 16.3512 17.7358 16.3512H16.3307V16.3512C16.0294 16.3512 15.7619 16.1584 15.6666 15.8726V15.8726L14.5829 12.6214ZM20.2117 16.3617C20.1881 16.3548 20.1633 16.3512 20.1388 16.3512V16.3512C19.957 16.3512 19.8302 16.5313 19.8913 16.7024L20.4153 18.1698C20.4578 18.2887 20.5691 18.3699 20.6954 18.3699V18.3699V18.3699C21.626 18.3699 22.2018 17.433 21.4283 16.9157C21.1011 16.6968 20.6997 16.5057 20.2117 16.3617ZM16.7335 14.6461C16.7943 14.8283 16.9648 14.9512 17.1569 14.9512V14.9512C17.4643 14.9512 17.6797 14.6477 17.5781 14.3575L14.9282 6.78636C14.8811 6.6517 14.7568 6.55844 14.615 6.54254V6.54254C14.3395 6.51164 14.1096 6.77419 14.1972 7.0372L16.7335 14.6461ZM8.7854 2.44171C9.22751 2.31832 9.64912 2.64046 9.80846 3.07092V3.07092C10.0254 3.657 9.72924 4.37744 9.10457 4.396C8.90242 4.402 8.69647 4.40085 8.48898 4.39097C8.21789 4.37806 7.94898 4.35057 7.68578 4.30623C6.92118 4.17743 6.8434 3.25675 7.54068 2.91762V2.91762C7.97768 2.70508 8.39224 2.55145 8.7854 2.44171ZM10.8201 1.48843C10.7616 1.48843 10.7142 1.441 10.7142 1.38249V1.13843C10.7142 0.945126 10.5576 0.787662 10.3644 0.794528C9.38051 0.829499 8.22979 1.02566 6.92836 1.65863C5.47738 2.36433 3.87711 3.59432 2.12092 5.67668V5.67668C2.0898 5.71358 2.06258 5.7536 2.03969 5.7961V5.7961L0.330385 8.97052V8.97052C0.147662 9.30987 0.273622 9.73308 0.612167 9.91727V9.91727C1.6698 10.4927 2.64028 11.0855 3.5578 11.706C4.70325 12.4806 4.1113 14.1632 2.72851 14.1632H1.94652C1.55992 14.1632 1.24652 14.4766 1.24652 14.8632V14.8632C1.24652 15.2498 1.55992 15.5632 1.94652 15.5632H7.89825C8.21599 15.5632 8.52263 15.6812 8.75653 15.8962C8.82357 15.9579 8.89071 16.0198 8.95798 16.0821C9.7284 16.7953 9.21387 18.0702 8.164 18.0702H7.6959C7.3093 18.0702 6.9959 18.3836 6.9959 18.7702V18.7702C6.9959 19.1568 7.3093 19.4702 7.6959 19.4702H11.8792C12.332 19.4702 12.7682 19.6286 13.1375 19.8907C15.2548 21.3932 17.7989 22.2117 20.4274 22.2117H23.4119V22.2117C23.7985 22.2117 24.1119 21.8983 24.1119 21.5117V21.5117V19.0699V19.0699C24.1119 19.0699 24.1119 19.0699 24.1119 19.0699H24.112C24.1121 19.0699 24.1121 19.0698 24.1121 19.0697L24.1119 19.0292V18.4085C24.1119 18.3872 24.0946 18.3699 24.0733 18.3699V18.3699C24.0549 18.3699 24.0391 18.357 24.0353 18.339C23.7438 16.9524 22.6104 15.5605 20.4338 14.9728C19.6908 14.7722 19.0344 14.2805 18.7802 13.5541L16.0147 5.65254V5.65254C15.9164 5.37178 15.6514 5.18378 15.354 5.18378V5.18378C12.8498 5.18378 10.9947 3.49523 10.9279 1.59446C10.9258 1.536 10.8786 1.48843 10.8201 1.48843V1.48843Z" fill="#4F4F4F"/>
<path fill-rule="evenodd" clip-rule="evenodd" d="M1.89057 9.02611L2.8665 7.21367C3.62942 7.84634 4.34507 8.43301 5.0238 8.98942L5.02381 8.98944C8.12195 11.5292 10.4508 13.4383 12.9941 16.2121C14.9689 18.3658 17.7143 19.7699 20.6955 19.7699H22.7119V20.8118H20.4275C17.5103 20.8118 14.7119 19.6783 12.622 17.6447C8.99126 14.112 6.09672 11.4134 1.89057 9.02611ZM5.8723 7.87409C5.17121 7.29947 4.43498 6.69605 3.6535 6.04745C4.11247 5.53578 4.55456 5.09166 4.97964 4.70621C6.02803 5.45358 7.28143 5.73509 8.4222 5.78941C9.65325 5.84803 10.8268 5.64696 11.6357 5.41284C11.8524 5.56898 12.0818 5.71147 12.3219 5.83911L15.6664 15.8726L15.826 16.3513H16.3305H18.2791L18.9308 18.176C17.0708 17.7652 15.3629 16.724 14.0259 15.2659C11.4096 12.4125 8.98794 10.4277 5.87238 7.87415L5.8723 7.87409ZM19.7657 16.3513H20.1756C21.6411 16.7729 22.3358 17.6173 22.591 18.3699H20.6955C20.6254 18.3699 20.5555 18.369 20.4856 18.3672L19.7657 16.3513ZM17.7857 14.9513H16.835L13.9992 6.44379C14.277 6.50203 14.5614 6.54275 14.8504 6.56472L17.7857 14.9513ZM10.4514 4.25284C10.019 3.66938 9.71847 2.9991 9.59235 2.26881C8.97074 2.3627 8.28858 2.55392 7.54072 2.91765C7.09591 3.13399 6.62296 3.41376 6.12217 3.7753C6.81831 4.16852 7.64292 4.35072 8.48879 4.391C9.18963 4.42437 9.87302 4.35818 10.4514 4.25284ZM10.7142 0.788452V1.48845H10.9258C10.9258 3.432 12.8032 5.18381 15.3538 5.18381H15.8504L16.0145 5.65256L19.196 14.7428C22.2073 15.076 23.7116 16.7308 24.0415 18.3699H24.1119V19.0663L24.1119 19.0699L24.1119 19.0699V21.5118V22.2118H23.4119H20.4275C17.5633 22.2118 14.7994 21.2399 12.5787 19.4702H6.99571V18.0702H11.0503C10.1277 17.1771 9.25394 16.3453 8.39205 15.5633H1.24633L1.24633 14.1633H6.79335C4.91407 12.5829 2.9819 11.2066 0.612211 9.9173L0 9.58421L0.330429 8.97055L2.03974 5.79613L2.07415 5.7322L2.12096 5.67671C3.87715 3.59435 5.47742 2.36436 6.9284 1.65866C8.3873 0.949105 9.6568 0.788452 10.7142 0.788452Z" fill="#4F4F4F"/>
</svg>
