<svg width="24" height="23" viewBox="0 0 24 23" fill="none" xmlns="http://www.w3.org/2000/svg">
<path fill-rule="evenodd" clip-rule="evenodd" d="M7.75 3.05C6.71993 3.05 5.84801 2.37285 5.55511 1.43942C5.43937 1.07056 5.1366 0.75 4.75 0.75C4.3634 0.75 4.04308 1.06634 4.11538 1.44612C4.44105 3.15679 5.9445 4.45 7.75 4.45H10.4656C10.9264 4.45 11.3 4.82357 11.3 5.28439V6.26701C11.3 7.04854 10.6296 7.46703 10.307 6.75517C10.1478 6.4037 9.74263 5.99589 9.35754 6.02031C4.13408 6.35151 0 10.693 0 16V21.6C0 22.3732 0.630423 23.011 1.4 22.9362C5.06564 22.5802 6.09753 20.7941 7.0626 19.1237C7.99623 17.5077 8.86731 16 12 16C15.1327 16 16.0038 17.5077 16.9374 19.1237C17.9025 20.7941 18.9344 22.5802 22.6 22.9362C23.3696 23.011 24 22.3732 24 21.6V16C24 10.6921 19.8645 6.35005 14.6398 6.02014C14.2562 5.99592 13.8525 6.40124 13.6936 6.75123C13.371 7.46171 12.7 7.04461 12.7 6.26431V5.28439C12.7 4.05037 11.6996 3.05 10.4656 3.05H7.75ZM14.1189 8.77065C14.1444 8.73872 14.1696 8.7062 14.1946 8.67309C14.7082 7.99339 15.4897 7.48553 16.3104 7.7139C17.7594 8.11705 19.0543 8.89005 20.087 9.9248C21.0446 10.8842 20.1988 12.3 18.8433 12.3H17.7C17.3134 12.3 17 12.6134 17 13C17 13.3866 17.3134 13.7 17.7 13.7H18.4C19.1732 13.7 19.8 14.3268 19.8 15.1V18.2646C19.8 19.2102 18.8425 19.604 18.3624 18.7892C18.3008 18.6847 18.2367 18.573 18.1696 18.4559C17.748 17.7212 17.2045 16.7739 16.3871 16.0474C15.3434 15.1196 13.9583 14.6 12 14.6C10.0417 14.6 8.65661 15.1196 7.61286 16.0474C6.79555 16.7739 6.25223 17.7208 5.83065 18.4556C5.76341 18.5728 5.69926 18.6846 5.6376 18.7892C5.14731 19.6212 4.69784 20.2573 3.96491 20.729C3.83981 20.8096 3.70183 20.8881 3.54858 20.963C2.47821 21.486 1.4 20.4876 1.4 19.2963V16C1.4 15.4397 2.17026 15.2156 2.68128 15.4452C3.0371 15.6051 3.43172 15.6941 3.84711 15.6941C5.41949 15.6941 6.69416 14.4194 6.69416 12.847C6.69416 11.2746 5.41949 9.99998 3.84711 9.99998C3.84402 9.99998 3.84246 9.99627 3.84461 9.99407C4.89927 8.91332 6.23619 8.10928 7.73623 7.70106C8.5294 7.48521 9.28479 7.97296 9.77334 8.63404C9.80772 8.68056 9.84255 8.72598 9.87782 8.77026C10.3329 9.34159 11.0375 9.93062 11.9987 9.93033C12.9591 9.93004 13.6636 9.34131 14.1189 8.77065ZM21.2 14.3185C21.2 13.9769 21.4769 13.7 21.8185 13.7C22.0965 13.7 22.3427 13.8851 22.402 14.1567C22.5317 14.7505 22.6 15.3673 22.6 16V20.6703C22.6 21.1284 22.1499 21.4823 21.7024 21.3843C21.3715 21.3118 21.2 21.0224 21.2 20.6837V14.3185ZM3.84711 11.4C4.64629 11.4 5.29416 12.0478 5.29416 12.847C5.29416 13.6462 4.64629 14.2941 3.84711 14.2941C3.04792 14.2941 2.40005 13.6462 2.40005 12.847C2.40005 12.0478 3.04792 11.4 3.84711 11.4Z" fill="#4F4F4F"/>
<path fill-rule="evenodd" clip-rule="evenodd" d="M7.75 3.05C6.47974 3.05 5.45 2.02025 5.45 0.75H4.05C4.05 2.79345 5.70655 4.45 7.75 4.45H10.4656C10.9264 4.45 11.3 4.82357 11.3 5.28439V8.2399C10.8496 7.86205 10.4096 7.11548 10 6C4.47715 6 0 10.4772 0 16V23C0.505519 23 0.970812 22.9779 1.4 22.9362C5.06564 22.5802 6.09753 20.7941 7.0626 19.1237C7.99623 17.5077 8.86731 16 12 16C15.1327 16 16.0038 17.5077 16.9374 19.1237C17.9025 20.7941 18.9344 22.5802 22.6 22.9362C23.0292 22.9779 23.4945 23 24 23V16C24 10.4772 19.5228 6 14 6C13.5898 7.11238 13.1499 7.85809 12.7 8.23693V5.28439C12.7 4.05037 11.6996 3.05 10.4656 3.05H7.75ZM14.9139 7.44799C14.6759 7.95462 14.4129 8.40217 14.1189 8.77065C13.6636 9.34131 12.9591 9.93004 11.9987 9.93033C11.0375 9.93062 10.3329 9.34159 9.87782 8.77026C9.58436 8.40186 9.32199 7.95449 9.08482 7.44812C7.03562 7.66489 5.20112 8.60135 3.83883 9.99999L3.84711 9.99998C5.41949 9.99998 6.69416 11.2746 6.69416 12.847C6.69416 14.4194 5.41949 15.6941 3.84711 15.6941C2.89186 15.6941 2.04649 15.2236 1.53005 14.5018C1.44457 14.9883 1.4 15.489 1.4 16V21.5288C2.63028 21.3932 3.41991 21.0798 3.96491 20.729C4.69784 20.2573 5.14731 19.6212 5.6376 18.7892C5.69926 18.6846 5.76341 18.5728 5.83065 18.4556C6.25223 17.7208 6.79555 16.7739 7.61286 16.0474C8.65661 15.1196 10.0417 14.6 12 14.6C13.9583 14.6 15.3434 15.1196 16.3871 16.0474C17.2045 16.7739 17.7478 17.7208 18.1694 18.4556C18.2365 18.5727 18.3008 18.6847 18.3624 18.7892C18.8527 19.6212 19.3022 20.2573 20.0351 20.729C20.5801 21.0798 21.3697 21.3932 22.6 21.5288V16C22.6 11.5591 19.2339 7.90431 14.9139 7.44799ZM5.29416 12.847C5.29416 12.0478 4.64629 11.4 3.84711 11.4C3.04792 11.4 2.40005 12.0478 2.40005 12.847C2.40005 13.6462 3.04792 14.2941 3.84711 14.2941C4.64629 14.2941 5.29416 13.6462 5.29416 12.847Z" fill="#4F4F4F"/>
</svg>
