<svg width="26" height="22" viewBox="0 0 26 22" fill="none" xmlns="http://www.w3.org/2000/svg">
<mask id="mask0_2747_5561" style="mask-type:luminance" maskUnits="userSpaceOnUse" x="0" y="0" width="26" height="22">
<path d="M1 0.9H0.9V1V21V21.1H1H25H25.1V21V1V0.9H25H1Z" fill="white" stroke="white" stroke-width="0.2"/>
</mask>
<g mask="url(#mask0_2747_5561)">
<mask id="path-2-outside-1_2747_5561" maskUnits="userSpaceOnUse" x="0" y="-3.52942" width="26" height="25" fill="black">
<rect fill="white" y="-3.52942" width="26" height="25"/>
<path fill-rule="evenodd" clip-rule="evenodd" d="M13 -2.52942C12.7239 -2.52942 12.5093 -2.30142 12.4017 -2.0521C12.2118 -1.61241 11.7677 -1.30393 11.25 -1.30393H7.24999C6.14545 -1.30393 5.25001 -0.426057 5.25001 0.656855C5.25001 1.73977 6.14545 2.61764 7.24999 2.61764H11.4656C12.0369 2.61764 12.5 3.07166 12.5 3.63176V4.94729C12.5 5.70735 11.7756 6.01102 11.431 5.3302C11.3733 5.21632 11.3161 5.09582 11.2593 4.96882C11.0911 4.59226 10.7213 4.33332 10.3019 4.33332H9.49999C4.80559 4.33332 1 8.06432 1 12.6667V20.0196C1 20.5611 1.4489 21.0046 2 20.9693C5.99236 20.7127 7.0633 18.8954 8.0626 17.1997C8.99626 15.6154 9.86731 14.1373 13 14.1373C16.1327 14.1373 17.0037 15.6154 17.9374 17.1997C18.9367 18.8954 20.0076 20.7127 24 20.9693C24.5511 21.0046 25 20.5611 25 20.0196V12.6667C25 8.06432 21.1944 4.33332 16.5 4.33332H15.6971C15.2782 4.33332 14.9087 4.59161 14.7402 4.96758C14.6844 5.09205 14.6282 5.21029 14.5715 5.3222C14.2263 6.00417 13.5 5.70052 13.5 4.93917V3.63176C13.5 2.53024 12.5892 1.63725 11.4656 1.63725H7.24999C6.69769 1.63725 6.25 1.19831 6.25 0.656855C6.25 0.115399 6.69769 -0.323537 7.24999 -0.323537H11.25C12.3222 -0.323537 13.2192 -1.05878 13.4451 -2.04304C13.5057 -2.30718 13.2762 -2.52942 13 -2.52942ZM22.9348 19.8607C23.506 19.96 24 19.5031 24 18.9343V12.6667C24 12.625 23.9997 12.5834 23.999 12.5418C23.9906 12.0505 23.5596 11.6863 23.0583 11.6863H23C22.4477 11.6863 22 12.1252 22 12.6667V18.9217C22 19.3483 22.2806 19.7315 22.7067 19.8178C22.7809 19.8328 22.857 19.8471 22.9348 19.8607ZM21 19.0034C21 19.096 20.898 19.1534 20.8186 19.1033C20.0038 18.5891 19.5153 17.8986 19.0178 17.0709C18.9526 16.9624 18.8859 16.8488 18.8172 16.7315C18.3927 16.0076 17.8854 15.1426 17.1214 14.4768C16.4754 13.9139 15.6802 13.5093 14.6526 13.3059C14.0857 13.1937 13.6506 12.6957 13.7786 12.1428C14.0676 10.893 14.5794 9.74735 15.3024 8.84196C16.2435 7.66323 17.5456 6.88402 19.2291 6.79323C19.413 6.78332 19.5625 6.63793 19.5625 6.45735C19.5625 6.22035 19.8114 6.06314 20.0247 6.17464C20.2455 6.29008 20.4597 6.41608 20.6666 6.55185C20.8805 6.69226 21 6.93226 21 7.18464V9.72549C21 10.267 20.5523 10.7059 20 10.7059H18.5C18.2238 10.7059 18 10.9253 18 11.1961C18 11.4668 18.2238 11.6863 18.5 11.6863H20C20.5523 11.6863 21 12.1252 21 12.6667V19.0034ZM23.2521 9.46199C22.9056 8.76167 22 9.07126 22 9.8497V9.97255C22 10.3776 22.3349 10.7059 22.748 10.7059C23.2422 10.7059 23.6004 10.243 23.4074 9.79699C23.3584 9.68387 23.3066 9.5722 23.2521 9.46199ZM16.5 5.31373C17.1393 5.31373 17.12 6.22552 16.5572 6.52299C15.7587 6.94499 15.0771 7.53367 14.5149 8.23764C14.5013 8.25464 14.4878 8.27176 14.4743 8.28896C13.8758 9.0522 12.1867 9.0522 11.5882 8.28896C11.5747 8.27176 11.5612 8.25464 11.5476 8.23758C10.9725 7.51735 10.2722 6.91779 9.44974 6.49396C8.8951 6.20814 8.87341 5.31373 9.49999 5.31373H9.66454C10.0635 5.31373 10.4188 5.54911 10.6026 5.89626C10.7858 6.24211 10.9812 6.54714 11.1907 6.80493C11.6118 7.32314 12.2135 7.79464 12.9986 7.79446C13.7831 7.7942 14.3849 7.32285 14.8062 6.80508C15.0162 6.54705 15.2123 6.24155 15.3962 5.8952C15.5801 5.54858 15.9351 5.31373 16.3337 5.31373H16.5ZM6.49999 6.44464C6.49999 6.19976 6.24394 6.03638 6.02269 6.15008C5.37574 6.48258 4.78438 6.90499 4.26589 7.40038C3.99241 7.66167 4.46524 8.25491 4.84711 8.25491C5.69266 8.25491 6.45211 8.61626 6.97354 9.19008C7.31716 9.56817 7.98349 9.72549 8.50006 9.72549C9.32845 9.72549 10.0001 10.3839 10.0001 11.1961C10.0001 12.0083 9.32845 12.6667 8.50006 12.6667C7.9225 12.6667 7.1506 12.7812 6.71491 13.1528C6.21496 13.5792 5.56177 13.8373 4.84711 13.8373C3.85434 13.8373 2.98025 13.3392 2.47073 12.5839C2.35663 12.4148 2 12.4639 2 12.6667V18.9343C2 19.5031 2.4941 19.96 3.06528 19.8606C4.00774 19.6967 4.67833 19.4208 5.1814 19.1033C5.99623 18.5891 6.48469 17.8986 6.98221 17.0709C7.0474 16.9624 7.11406 16.8488 7.18279 16.7315C7.60735 16.0076 8.11456 15.1426 8.8786 14.4768C9.53566 13.9042 10.3473 13.4954 11.4008 13.2956C11.9714 13.1873 12.4106 12.6875 12.2815 12.1321C11.9919 10.8864 11.481 9.74476 10.7601 8.84196C9.82135 7.66623 8.52355 6.88799 6.84631 6.79391C6.6553 6.78317 6.49999 6.63226 6.49999 6.44464ZM6.69415 11.0461C6.69415 10.046 5.8672 9.23529 4.84711 9.23529C3.82701 9.23529 3.00005 10.046 3.00005 11.0461C3.00005 12.0462 3.82701 12.857 4.84711 12.857C5.8672 12.857 6.69415 12.0462 6.69415 11.0461ZM9.00004 11.1961C9.00004 10.9253 8.77615 10.7059 8.50006 10.7059C8.22391 10.7059 8.00005 10.9253 8.00005 11.1961C8.00005 11.4668 8.22391 11.6863 8.50006 11.6863C8.77615 11.6863 9.00004 11.4668 9.00004 11.1961Z"/>
</mask>
<path fill-rule="evenodd" clip-rule="evenodd" d="M13 -2.52942C12.7239 -2.52942 12.5093 -2.30142 12.4017 -2.0521C12.2118 -1.61241 11.7677 -1.30393 11.25 -1.30393H7.24999C6.14545 -1.30393 5.25001 -0.426057 5.25001 0.656855C5.25001 1.73977 6.14545 2.61764 7.24999 2.61764H11.4656C12.0369 2.61764 12.5 3.07166 12.5 3.63176V4.94729C12.5 5.70735 11.7756 6.01102 11.431 5.3302C11.3733 5.21632 11.3161 5.09582 11.2593 4.96882C11.0911 4.59226 10.7213 4.33332 10.3019 4.33332H9.49999C4.80559 4.33332 1 8.06432 1 12.6667V20.0196C1 20.5611 1.4489 21.0046 2 20.9693C5.99236 20.7127 7.0633 18.8954 8.0626 17.1997C8.99626 15.6154 9.86731 14.1373 13 14.1373C16.1327 14.1373 17.0037 15.6154 17.9374 17.1997C18.9367 18.8954 20.0076 20.7127 24 20.9693C24.5511 21.0046 25 20.5611 25 20.0196V12.6667C25 8.06432 21.1944 4.33332 16.5 4.33332H15.6971C15.2782 4.33332 14.9087 4.59161 14.7402 4.96758C14.6844 5.09205 14.6282 5.21029 14.5715 5.3222C14.2263 6.00417 13.5 5.70052 13.5 4.93917V3.63176C13.5 2.53024 12.5892 1.63725 11.4656 1.63725H7.24999C6.69769 1.63725 6.25 1.19831 6.25 0.656855C6.25 0.115399 6.69769 -0.323537 7.24999 -0.323537H11.25C12.3222 -0.323537 13.2192 -1.05878 13.4451 -2.04304C13.5057 -2.30718 13.2762 -2.52942 13 -2.52942ZM22.9348 19.8607C23.506 19.96 24 19.5031 24 18.9343V12.6667C24 12.625 23.9997 12.5834 23.999 12.5418C23.9906 12.0505 23.5596 11.6863 23.0583 11.6863H23C22.4477 11.6863 22 12.1252 22 12.6667V18.9217C22 19.3483 22.2806 19.7315 22.7067 19.8178C22.7809 19.8328 22.857 19.8471 22.9348 19.8607ZM21 19.0034C21 19.096 20.898 19.1534 20.8186 19.1033C20.0038 18.5891 19.5153 17.8986 19.0178 17.0709C18.9526 16.9624 18.8859 16.8488 18.8172 16.7315C18.3927 16.0076 17.8854 15.1426 17.1214 14.4768C16.4754 13.9139 15.6802 13.5093 14.6526 13.3059C14.0857 13.1937 13.6506 12.6957 13.7786 12.1428C14.0676 10.893 14.5794 9.74735 15.3024 8.84196C16.2435 7.66323 17.5456 6.88402 19.2291 6.79323C19.413 6.78332 19.5625 6.63793 19.5625 6.45735C19.5625 6.22035 19.8114 6.06314 20.0247 6.17464C20.2455 6.29008 20.4597 6.41608 20.6666 6.55185C20.8805 6.69226 21 6.93226 21 7.18464V9.72549C21 10.267 20.5523 10.7059 20 10.7059H18.5C18.2238 10.7059 18 10.9253 18 11.1961C18 11.4668 18.2238 11.6863 18.5 11.6863H20C20.5523 11.6863 21 12.1252 21 12.6667V19.0034ZM23.2521 9.46199C22.9056 8.76167 22 9.07126 22 9.8497V9.97255C22 10.3776 22.3349 10.7059 22.748 10.7059C23.2422 10.7059 23.6004 10.243 23.4074 9.79699C23.3584 9.68387 23.3066 9.5722 23.2521 9.46199ZM16.5 5.31373C17.1393 5.31373 17.12 6.22552 16.5572 6.52299C15.7587 6.94499 15.0771 7.53367 14.5149 8.23764C14.5013 8.25464 14.4878 8.27176 14.4743 8.28896C13.8758 9.0522 12.1867 9.0522 11.5882 8.28896C11.5747 8.27176 11.5612 8.25464 11.5476 8.23758C10.9725 7.51735 10.2722 6.91779 9.44974 6.49396C8.8951 6.20814 8.87341 5.31373 9.49999 5.31373H9.66454C10.0635 5.31373 10.4188 5.54911 10.6026 5.89626C10.7858 6.24211 10.9812 6.54714 11.1907 6.80493C11.6118 7.32314 12.2135 7.79464 12.9986 7.79446C13.7831 7.7942 14.3849 7.32285 14.8062 6.80508C15.0162 6.54705 15.2123 6.24155 15.3962 5.8952C15.5801 5.54858 15.9351 5.31373 16.3337 5.31373H16.5ZM6.49999 6.44464C6.49999 6.19976 6.24394 6.03638 6.02269 6.15008C5.37574 6.48258 4.78438 6.90499 4.26589 7.40038C3.99241 7.66167 4.46524 8.25491 4.84711 8.25491C5.69266 8.25491 6.45211 8.61626 6.97354 9.19008C7.31716 9.56817 7.98349 9.72549 8.50006 9.72549C9.32845 9.72549 10.0001 10.3839 10.0001 11.1961C10.0001 12.0083 9.32845 12.6667 8.50006 12.6667C7.9225 12.6667 7.1506 12.7812 6.71491 13.1528C6.21496 13.5792 5.56177 13.8373 4.84711 13.8373C3.85434 13.8373 2.98025 13.3392 2.47073 12.5839C2.35663 12.4148 2 12.4639 2 12.6667V18.9343C2 19.5031 2.4941 19.96 3.06528 19.8606C4.00774 19.6967 4.67833 19.4208 5.1814 19.1033C5.99623 18.5891 6.48469 17.8986 6.98221 17.0709C7.0474 16.9624 7.11406 16.8488 7.18279 16.7315C7.60735 16.0076 8.11456 15.1426 8.8786 14.4768C9.53566 13.9042 10.3473 13.4954 11.4008 13.2956C11.9714 13.1873 12.4106 12.6875 12.2815 12.1321C11.9919 10.8864 11.481 9.74476 10.7601 8.84196C9.82135 7.66623 8.52355 6.88799 6.84631 6.79391C6.6553 6.78317 6.49999 6.63226 6.49999 6.44464ZM6.69415 11.0461C6.69415 10.046 5.8672 9.23529 4.84711 9.23529C3.82701 9.23529 3.00005 10.046 3.00005 11.0461C3.00005 12.0462 3.82701 12.857 4.84711 12.857C5.8672 12.857 6.69415 12.0462 6.69415 11.0461ZM9.00004 11.1961C9.00004 10.9253 8.77615 10.7059 8.50006 10.7059C8.22391 10.7059 8.00005 10.9253 8.00005 11.1961C8.00005 11.4668 8.22391 11.6863 8.50006 11.6863C8.77615 11.6863 9.00004 11.4668 9.00004 11.1961Z" fill="#4F4F4F"/>
<path fill-rule="evenodd" clip-rule="evenodd" d="M13 -2.52942C12.7239 -2.52942 12.5093 -2.30142 12.4017 -2.0521C12.2118 -1.61241 11.7677 -1.30393 11.25 -1.30393H7.24999C6.14545 -1.30393 5.25001 -0.426057 5.25001 0.656855C5.25001 1.73977 6.14545 2.61764 7.24999 2.61764H11.4656C12.0369 2.61764 12.5 3.07166 12.5 3.63176V4.94729C12.5 5.70735 11.7756 6.01102 11.431 5.3302C11.3733 5.21632 11.3161 5.09582 11.2593 4.96882C11.0911 4.59226 10.7213 4.33332 10.3019 4.33332H9.49999C4.80559 4.33332 1 8.06432 1 12.6667V20.0196C1 20.5611 1.4489 21.0046 2 20.9693C5.99236 20.7127 7.0633 18.8954 8.0626 17.1997C8.99626 15.6154 9.86731 14.1373 13 14.1373C16.1327 14.1373 17.0037 15.6154 17.9374 17.1997C18.9367 18.8954 20.0076 20.7127 24 20.9693C24.5511 21.0046 25 20.5611 25 20.0196V12.6667C25 8.06432 21.1944 4.33332 16.5 4.33332H15.6971C15.2782 4.33332 14.9087 4.59161 14.7402 4.96758C14.6844 5.09205 14.6282 5.21029 14.5715 5.3222C14.2263 6.00417 13.5 5.70052 13.5 4.93917V3.63176C13.5 2.53024 12.5892 1.63725 11.4656 1.63725H7.24999C6.69769 1.63725 6.25 1.19831 6.25 0.656855C6.25 0.115399 6.69769 -0.323537 7.24999 -0.323537H11.25C12.3222 -0.323537 13.2192 -1.05878 13.4451 -2.04304C13.5057 -2.30718 13.2762 -2.52942 13 -2.52942ZM22.9348 19.8607C23.506 19.96 24 19.5031 24 18.9343V12.6667C24 12.625 23.9997 12.5834 23.999 12.5418C23.9906 12.0505 23.5596 11.6863 23.0583 11.6863H23C22.4477 11.6863 22 12.1252 22 12.6667V18.9217C22 19.3483 22.2806 19.7315 22.7067 19.8178C22.7809 19.8328 22.857 19.8471 22.9348 19.8607ZM21 19.0034C21 19.096 20.898 19.1534 20.8186 19.1033C20.0038 18.5891 19.5153 17.8986 19.0178 17.0709C18.9526 16.9624 18.8859 16.8488 18.8172 16.7315C18.3927 16.0076 17.8854 15.1426 17.1214 14.4768C16.4754 13.9139 15.6802 13.5093 14.6526 13.3059C14.0857 13.1937 13.6506 12.6957 13.7786 12.1428C14.0676 10.893 14.5794 9.74735 15.3024 8.84196C16.2435 7.66323 17.5456 6.88402 19.2291 6.79323C19.413 6.78332 19.5625 6.63793 19.5625 6.45735C19.5625 6.22035 19.8114 6.06314 20.0247 6.17464C20.2455 6.29008 20.4597 6.41608 20.6666 6.55185C20.8805 6.69226 21 6.93226 21 7.18464V9.72549C21 10.267 20.5523 10.7059 20 10.7059H18.5C18.2238 10.7059 18 10.9253 18 11.1961C18 11.4668 18.2238 11.6863 18.5 11.6863H20C20.5523 11.6863 21 12.1252 21 12.6667V19.0034ZM23.2521 9.46199C22.9056 8.76167 22 9.07126 22 9.8497V9.97255C22 10.3776 22.3349 10.7059 22.748 10.7059C23.2422 10.7059 23.6004 10.243 23.4074 9.79699C23.3584 9.68387 23.3066 9.5722 23.2521 9.46199ZM16.5 5.31373C17.1393 5.31373 17.12 6.22552 16.5572 6.52299C15.7587 6.94499 15.0771 7.53367 14.5149 8.23764C14.5013 8.25464 14.4878 8.27176 14.4743 8.28896C13.8758 9.0522 12.1867 9.0522 11.5882 8.28896C11.5747 8.27176 11.5612 8.25464 11.5476 8.23758C10.9725 7.51735 10.2722 6.91779 9.44974 6.49396C8.8951 6.20814 8.87341 5.31373 9.49999 5.31373H9.66454C10.0635 5.31373 10.4188 5.54911 10.6026 5.89626C10.7858 6.24211 10.9812 6.54714 11.1907 6.80493C11.6118 7.32314 12.2135 7.79464 12.9986 7.79446C13.7831 7.7942 14.3849 7.32285 14.8062 6.80508C15.0162 6.54705 15.2123 6.24155 15.3962 5.8952C15.5801 5.54858 15.9351 5.31373 16.3337 5.31373H16.5ZM6.49999 6.44464C6.49999 6.19976 6.24394 6.03638 6.02269 6.15008C5.37574 6.48258 4.78438 6.90499 4.26589 7.40038C3.99241 7.66167 4.46524 8.25491 4.84711 8.25491C5.69266 8.25491 6.45211 8.61626 6.97354 9.19008C7.31716 9.56817 7.98349 9.72549 8.50006 9.72549C9.32845 9.72549 10.0001 10.3839 10.0001 11.1961C10.0001 12.0083 9.32845 12.6667 8.50006 12.6667C7.9225 12.6667 7.1506 12.7812 6.71491 13.1528C6.21496 13.5792 5.56177 13.8373 4.84711 13.8373C3.85434 13.8373 2.98025 13.3392 2.47073 12.5839C2.35663 12.4148 2 12.4639 2 12.6667V18.9343C2 19.5031 2.4941 19.96 3.06528 19.8606C4.00774 19.6967 4.67833 19.4208 5.1814 19.1033C5.99623 18.5891 6.48469 17.8986 6.98221 17.0709C7.0474 16.9624 7.11406 16.8488 7.18279 16.7315C7.60735 16.0076 8.11456 15.1426 8.8786 14.4768C9.53566 13.9042 10.3473 13.4954 11.4008 13.2956C11.9714 13.1873 12.4106 12.6875 12.2815 12.1321C11.9919 10.8864 11.481 9.74476 10.7601 8.84196C9.82135 7.66623 8.52355 6.88799 6.84631 6.79391C6.6553 6.78317 6.49999 6.63226 6.49999 6.44464ZM6.69415 11.0461C6.69415 10.046 5.8672 9.23529 4.84711 9.23529C3.82701 9.23529 3.00005 10.046 3.00005 11.0461C3.00005 12.0462 3.82701 12.857 4.84711 12.857C5.8672 12.857 6.69415 12.0462 6.69415 11.0461ZM9.00004 11.1961C9.00004 10.9253 8.77615 10.7059 8.50006 10.7059C8.22391 10.7059 8.00005 10.9253 8.00005 11.1961C8.00005 11.4668 8.22391 11.6863 8.50006 11.6863C8.77615 11.6863 9.00004 11.4668 9.00004 11.1961Z" stroke="#4F4F4F" stroke-width="0.4" mask="url(#path-2-outside-1_2747_5561)"/>
<path d="M18.8172 16.7315C18.8859 16.8488 18.9526 16.9624 19.0178 17.0709C19.5153 17.8986 20.0038 18.5891 20.8186 19.1033C20.8452 19.1202 20.8724 19.1369 20.9 19.1534M18.8172 16.7315L21 19.2117C20.966 19.1924 20.9327 19.173 20.9 19.1534M18.8172 16.7315C18.3926 16.0075 17.8854 15.1426 17.1214 14.4768C16.2873 13.75 15.2042 13.287 13.6934 13.1805L18.8172 16.7315ZM20.9 19.1534V19.0363M20.9 19.1534V19.0363M20.9 19.0363V11.7863H18H17.9V11.6863V10.7059V10.6059H18H20.9V6.83452C20.5145 6.55468 20.1003 6.31067 19.6625 6.10751V6.78432V6.88432H19.5625C17.7496 6.88432 16.3657 7.6705 15.3805 8.90436C14.496 10.0121 13.9293 11.4895 13.7068 13.0812C15.2328 13.1899 16.3355 13.6593 17.1871 14.4014C17.9634 15.078 18.4775 15.9546 18.9005 16.6758L18.9035 16.6809L18.9035 16.681C18.9722 16.7983 19.0386 16.9115 19.1035 17.0194L19.0315 17.0626L19.1035 17.0194C19.5991 17.844 20.0777 18.5175 20.872 19.0187L20.872 19.0188C20.8813 19.0246 20.8906 19.0305 20.9 19.0363ZM12.5 -2.62942H12.4V-2.52942C12.4 -1.90969 11.887 -1.40393 11.25 -1.40393H7.24999C6.0921 -1.40393 5.15001 -0.483143 5.15001 0.656854C5.15001 1.79685 6.0921 2.71764 7.24999 2.71764H11.4656C11.9836 2.71764 12.4 3.12875 12.4 3.63176V6.48124C12.207 6.33156 12.011 6.10769 11.8153 5.80439C11.5692 5.42289 11.3271 4.92149 11.0936 4.29824L11.0693 4.23332H11H9.49999C4.75224 4.23332 0.9 8.00723 0.9 12.6667V20.0196V21V21.1H1C1.3544 21.1 1.68941 21.0894 2.00641 21.069C4.01785 20.9398 5.30435 20.4164 6.21536 19.7029C7.12195 18.9929 7.64767 18.1008 8.14543 17.2561L8.14875 17.2505C8.61717 16.4556 9.05955 15.7072 9.76825 15.1532C10.4729 14.6023 11.4506 14.2373 13 14.2373C14.5494 14.2373 15.5271 14.6023 16.2317 15.1532C16.9405 15.7072 17.3828 16.4556 17.8512 17.2505L17.8546 17.2561C18.3523 18.1008 18.878 18.9929 19.7846 19.7029C20.6957 20.4164 21.9822 20.9398 23.9936 21.069C24.3106 21.0894 24.6456 21.1 25 21.1H25.1V21V20.0196V12.6667C25.1 8.00723 21.2478 4.23332 16.5 4.23332H15H14.9308L14.9064 4.29811C14.6726 4.91975 14.4303 5.42024 14.1841 5.80143C13.9885 6.10429 13.7928 6.32825 13.6 6.47844V3.63176C13.6 2.47315 12.6425 1.53725 11.4656 1.53725H7.24999C6.75105 1.53725 6.35 1.14123 6.35 0.656854C6.35 0.172482 6.75104 -0.223537 7.24999 -0.223537H11.25C12.546 -0.223537 13.6 -1.25406 13.6 -2.52942V-2.62942H13.5H12.5ZM13.6068 13.0746C13.8305 11.4666 14.4029 9.96835 15.3024 8.84196C16.3048 7.58652 17.7165 6.78432 19.5625 6.78432V6.68432V6.062L13.6068 13.0746ZM10.682 8.90436C11.5657 10.0111 12.1322 11.4869 12.3551 13.077C10.7971 13.1773 9.67604 13.6492 8.8129 14.4014C8.03655 15.078 7.52247 15.9546 7.09954 16.6758L7.09653 16.6809L7.09651 16.681C7.02775 16.7983 6.96136 16.9115 6.8965 17.0194L6.98221 17.0709L6.8965 17.0194C6.40087 17.844 5.9223 18.5175 5.12804 19.0187C4.48569 19.4241 3.55585 19.765 2.1 19.879V12.6667C2.1 12.4902 2.10643 12.3152 2.11907 12.1418C2.55944 13.1961 3.61572 13.9373 4.84711 13.9373C5.98042 13.9373 6.96509 13.3096 7.45815 12.3881C7.73819 12.6241 8.10236 12.7667 8.50006 12.7667C9.3818 12.7667 10.1001 12.0654 10.1001 11.1961C10.1001 10.3268 9.3818 9.62549 8.50006 9.62549C8.15045 9.62549 7.82678 9.73565 7.56334 9.92264C7.11617 8.88321 6.06779 8.1549 4.84711 8.1549C4.33671 8.1549 3.85638 8.28226 3.43756 8.50643C4.18512 7.4619 5.20664 6.61923 6.39999 6.07884V6.78432V6.88432H6.49999C8.31285 6.88432 9.69678 7.6705 10.682 8.90436ZM23.9 12.6667V19.879C23.1812 19.8227 22.5908 19.7111 22.1 19.5639V11.7863H23.846C23.8817 12.0748 23.9 12.3686 23.9 12.6667ZM23.5971 10.6059H22.1V7.92527C22.7788 8.6947 23.2951 9.60528 23.5971 10.6059ZM16.5 5.41373C17.2799 5.41373 18.0315 5.53192 18.7371 5.75101C16.9134 5.96319 15.4734 6.87693 14.4368 8.17524C13.8308 8.93412 13.364 9.82128 13.0313 10.775C12.6985 9.82129 12.2317 8.93411 11.6257 8.17518C10.5804 6.86602 9.12493 5.94796 7.27963 5.74584C7.98043 5.53007 8.72629 5.41373 9.49999 5.41373H10.2569C10.5131 5.98539 10.7963 6.47811 11.1131 6.86799C11.5428 7.3968 12.1701 7.89465 12.9986 7.89446C13.8265 7.89418 14.4538 7.39652 14.8838 6.8682C15.201 6.47832 15.485 5.98555 15.7421 5.41373H16.5ZM4.84711 9.33529C5.81385 9.33529 6.59415 10.1031 6.59415 11.0461C6.59415 11.9891 5.81385 12.757 4.84711 12.757C3.88036 12.757 3.10005 11.9891 3.10005 11.0461C3.10005 10.1031 3.88036 9.33529 4.84711 9.33529ZM8.50006 10.8059C8.7228 10.8059 8.90004 10.9824 8.90004 11.1961C8.90004 11.4097 8.72281 11.5863 8.50006 11.5863C8.27726 11.5863 8.10005 11.4097 8.10005 11.1961C8.10005 10.9824 8.27726 10.8059 8.50006 10.8059Z" fill="#4F4F4F" stroke="#4F4F4F" stroke-width="0.2"/>
</g>
</svg>
