<svg width="22" height="22" viewBox="0 0 22 22" fill="none" xmlns="http://www.w3.org/2000/svg">
<path fill-rule="evenodd" clip-rule="evenodd" d="M10.8875 1.35664C8.08702 1.35664 5.47622 2.65443 3.68847 4.70308C3.66355 4.73164 3.6891 4.77573 3.72646 4.76938V4.76938C4.45646 4.64537 5.33994 4.68901 6.2999 4.86215C7.16333 5.01787 8.11689 5.28356 9.11986 5.65267C9.2275 5.69228 9.34511 5.62477 9.36545 5.51189V5.51189C9.49263 4.80643 9.64862 4.19801 9.8343 3.75099C9.92591 3.53046 10.0396 3.31234 10.1865 3.13848C10.3269 2.97225 10.5794 2.75376 10.9451 2.75376C11.3112 2.75376 11.5637 2.97277 11.704 3.13952C11.8505 3.31372 11.9635 3.53212 12.0544 3.75265C12.2387 4.19972 12.3929 4.80814 12.5183 5.51339V5.51339C12.5374 5.62079 12.6494 5.68497 12.7516 5.64691C13.7791 5.26432 14.7555 4.98843 15.6379 4.82626V4.82626C16.4849 4.67057 16.9714 3.52891 16.2592 3.04461C14.6941 1.98031 12.8301 1.35664 10.8875 1.35664ZM12.8719 7.41575C12.8037 7.3768 12.7585 7.30639 12.7507 7.22832V7.22832C12.7399 7.12107 12.8011 7.02014 12.9016 6.98097C13.9777 6.56125 14.9872 6.26762 15.8728 6.10484C16.7585 5.94207 17.4855 5.91669 18.018 6.00433C18.5615 6.09378 18.7919 6.27876 18.8792 6.43006C18.9661 6.58052 19.0108 6.86988 18.8155 7.38184C18.6241 7.88386 18.237 8.4972 17.651 9.1795V9.1795C17.1666 9.74351 16.3196 9.75544 15.7287 9.30425C14.8968 8.66902 13.9707 8.04986 12.972 7.47329C12.9386 7.45401 12.9052 7.43483 12.8719 7.41575ZM11.082 6.34372C11.2218 6.27921 11.3036 6.13059 11.2788 5.97863C11.2656 5.89766 11.2522 5.81844 11.2384 5.74102V5.74102C11.1671 5.3404 10.717 5.34207 10.6448 5.74252V5.74252C10.6303 5.82305 10.6161 5.90553 10.6022 5.9899C10.5778 6.13811 10.6571 6.28291 10.7936 6.34558V6.34558C10.8837 6.38694 10.988 6.38712 11.0779 6.34557C11.0793 6.34495 11.0806 6.34434 11.082 6.34372ZM10.3277 8.50181C10.3418 8.28712 10.4685 8.09455 10.6598 7.99607V7.99607C10.835 7.90584 11.0404 7.90602 11.2158 7.99605V7.99605C11.4086 8.09506 11.5371 8.28961 11.5509 8.50594C11.6005 9.2817 11.6281 10.1195 11.6281 10.9951C11.6281 11.8716 11.6005 12.7103 11.5507 13.4868C11.5369 13.702 11.4101 13.8952 11.2184 13.9942V13.9942C11.0425 14.085 10.8367 14.0851 10.6606 13.9945V13.9945C10.4689 13.8958 10.3417 13.7027 10.3277 13.4875C10.277 12.7108 10.2488 11.8719 10.2488 10.9951C10.2488 10.118 10.277 9.27873 10.3277 8.50181ZM8.98218 6.99013C9.08007 7.02796 9.13984 7.12627 9.12916 7.23067V7.23067C9.12143 7.30625 9.07761 7.37435 9.01165 7.41205C8.97617 7.43232 8.94068 7.4527 8.9052 7.47319C7.88576 8.06177 6.94085 8.69356 6.09304 9.34103C5.53833 9.76466 4.74328 9.74839 4.29027 9.2174V9.2174C3.71253 8.54019 3.33184 7.93109 3.14453 7.43221C2.95379 6.92418 2.99832 6.63428 3.08664 6.48132C3.17543 6.32753 3.40633 6.14239 3.94418 6.05102C4.47192 5.96137 5.19205 5.98331 6.06916 6.1415C6.93846 6.29828 7.9278 6.5826 8.98218 6.99013ZM7.2815 10.076C7.9902 9.55853 8.94878 10.1176 8.94878 10.9951V10.9951V10.9951C8.94878 11.8725 7.99018 12.4316 7.28167 11.914C7.2495 11.8905 7.21748 11.8669 7.18561 11.8434C6.60912 11.4177 6.60957 10.5714 7.18624 10.1459C7.21785 10.1225 7.24961 10.0992 7.2815 10.076ZM9.12965 14.7642C9.12161 14.6857 9.07608 14.6149 9.00756 14.5758C8.97348 14.5563 8.93941 14.5367 8.90533 14.517C7.90816 13.9413 6.98254 13.3244 6.15033 12.6921C5.56051 12.244 4.71657 12.2592 4.23635 12.8232V12.8232C3.65258 13.5088 3.26709 14.1257 3.07674 14.6307C2.88246 15.1461 2.92747 15.4381 3.01482 15.5894C3.10169 15.7398 3.32995 15.9232 3.87093 16.0101C4.4014 16.0953 5.12613 16.0667 6.01001 15.9004C6.89431 15.734 7.90258 15.4365 8.97823 15.0137C9.07925 14.9739 9.14071 14.8722 9.12965 14.7642V14.7642ZM9.36545 16.4782C9.34627 16.3718 9.2351 16.3085 9.13389 16.3465C8.10699 16.7324 7.13165 17.0122 6.25041 17.178V17.178C5.39155 17.3396 4.89339 18.503 5.61757 18.9923C7.15132 20.0284 8.97518 20.6335 10.8875 20.6335C13.6949 20.6335 16.338 19.331 18.1523 17.2785C18.1645 17.2646 18.1524 17.243 18.1341 17.2461V17.2461C17.4053 17.367 16.5237 17.3192 15.5663 17.1423C14.705 16.9832 13.7537 16.7142 12.7527 16.3425C12.6499 16.3043 12.5375 16.3689 12.5183 16.4767V16.4767C12.3929 17.182 12.2387 17.7904 12.0544 18.2375C11.9635 18.458 11.8505 18.6764 11.704 18.8506C11.5637 19.0174 11.3112 19.2364 10.9451 19.2364C10.5794 19.2364 10.3269 19.0179 10.1865 18.8517C10.0396 18.6778 9.92591 18.4597 9.83431 18.2391C9.64862 17.7921 9.49263 17.1837 9.36545 16.4782V16.4782ZM11.2794 16.0077C11.3038 15.8579 11.2236 15.7116 11.0858 15.648V15.648C10.9943 15.6058 10.8875 15.6059 10.7961 15.6483V15.6483C10.6585 15.7121 10.5788 15.8584 10.6035 16.008C10.617 16.0897 10.6308 16.1696 10.6448 16.2476V16.2476C10.717 16.6481 11.1671 16.6497 11.2384 16.2491V16.2491C11.2524 16.1705 11.2661 16.09 11.2794 16.0077ZM12.7507 14.7615C12.7399 14.8685 12.8011 14.9692 12.9014 15.0082C13.9519 15.4171 14.937 15.704 15.8025 15.864C16.6778 16.0257 17.3956 16.0508 17.9213 15.9636C18.4567 15.8748 18.6855 15.6913 18.7738 15.5383C18.8626 15.3845 18.9075 15.092 18.7177 14.5805C18.5314 14.0786 18.1524 13.466 17.5768 12.7854V12.7854C17.1277 12.2544 16.3354 12.2351 15.7815 12.6559C14.9337 13.3001 13.9895 13.9294 12.9719 14.5169C12.9384 14.5362 12.905 14.5555 12.8715 14.5746C12.8036 14.6134 12.7585 14.6836 12.7507 14.7615V14.7615ZM12.9281 10.9951C12.9281 11.8732 13.8873 12.4326 14.5975 11.9162C14.6282 11.8939 14.6587 11.8716 14.6891 11.8493C15.2664 11.4254 15.2696 10.5797 14.6945 10.1529C14.6612 10.1281 14.6277 10.1034 14.5941 10.0787C13.8867 9.55967 12.9281 10.1177 12.9281 10.9951V10.9951V10.9951ZM3.30128 10.0611V10.0611C3.75603 10.5942 3.75528 11.3899 3.29778 11.9206C3.28058 11.9405 3.26351 11.9605 3.24656 11.9804C2.60883 12.7293 2.12274 13.4759 1.86029 14.1721V14.1721C1.85901 14.1755 1.85419 14.1755 1.85296 14.1721C1.49607 13.1771 1.3 12.1079 1.3 10.9951C1.3 9.90862 1.48688 8.86381 1.82785 7.88899C1.84408 7.84259 1.91021 7.84313 1.92749 7.88915V7.88915C2.18718 8.58084 2.66932 9.32038 3.30128 10.0611ZM18.5694 11.9459V11.9459C18.1181 11.4124 18.1221 10.6187 18.5809 10.0916C18.5998 10.0699 18.6186 10.0482 18.6372 10.0265V10.0265C19.2193 9.34873 20.497 9.48984 20.5565 10.3812C20.57 10.5843 20.5769 10.7889 20.5769 10.9951C20.5769 12.0913 20.3821 13.1458 20.0278 14.1289C20.0125 14.1712 19.9521 14.1704 19.9365 14.1282V14.1282C19.6789 13.434 19.1993 12.6907 18.5694 11.9459ZM0 10.9951C0 4.94918 5.06967 0.0566406 10.8875 0.0566406C16.697 0.0566406 21.8769 4.94097 21.8769 10.9951C21.8769 17.0492 16.697 21.9335 10.8875 21.9335C5.06967 21.9335 0 17.041 0 10.9951ZM10.7054 3.97208C10.7039 3.97041 10.7039 3.97046 10.7054 3.97208V3.97208V3.97208ZM11.1834 3.97302V3.97302C11.185 3.97133 11.1849 3.97128 11.1834 3.97302V3.97302ZM11.1834 18.0171C11.1849 18.0189 11.185 18.0188 11.1834 18.0171V18.0171V18.0171ZM10.7054 18.0181V18.0181C10.7039 18.0197 10.7039 18.0197 10.7054 18.0181V18.0181Z" fill="#4F4F4F"/>
</svg>
