<svg width="20" height="16" viewBox="0 0 20 16" fill="none" xmlns="http://www.w3.org/2000/svg">
<path fill-rule="evenodd" clip-rule="evenodd" d="M18.5 2.89587C18.5 2.12495 17.875 1.5 17.1041 1.5H8C7.72386 1.5 7.5 1.72386 7.5 2V2V3.5V12.5V14V14C7.5 14.2761 7.72386 14.5 8 14.5H16.5C17.6046 14.5 18.5 13.6046 18.5 12.5V9.36511C18.5 8.26054 17.6046 7.36511 16.5 7.36511H9.53656C9.24016 7.36511 8.99988 7.12483 8.99988 6.82843V6.82843C8.99988 6.53203 9.24016 6.29175 9.53656 6.29175H18.0367C18.2926 6.29175 18.5 6.08431 18.5 5.82843V5.82843C18.5 5.57255 18.2926 5.36511 18.0367 5.36511H14.6838C14.3874 5.36511 14.1471 5.12483 14.1471 4.82843V4.82843C14.1471 4.53203 14.3874 4.29175 14.6838 4.29175H17.1041C17.875 4.29175 18.5 3.66679 18.5 2.89587V2.89587ZM6 1.5V1.5C6 1.77614 5.77614 2 5.5 2H4.5V2C3.67157 2 3 2.67157 3 3.5V3.5V3.5C3 3.77614 2.77614 4 2.5 4H1.5V4C0.671573 4 0 4.67157 0 5.5V5.5V10.5V10.5C0 11.3284 0.671573 12 1.5 12V12H2.5C2.77614 12 3 12.2239 3 12.5V12.5V12.5C3 13.3284 3.67157 14 4.5 14V14H5.5C5.77614 14 6 14.2239 6 14.5V14.5V14.5C6 15.3284 6.67157 16 7.5 16V16H18.5V16C19.3284 16 20 15.3284 20 14.5V14.5V1.5V1.5C20 0.671573 19.3284 0 18.5 0V0H7.5V0C6.67157 0 6 0.671573 6 1.5V1.5ZM2.25 10.5C2.66421 10.5 3 10.1642 3 9.75V6.25C3 5.83579 2.66421 5.5 2.25 5.5V5.5C1.83579 5.5 1.5 5.83579 1.5 6.25V9.75C1.5 10.1642 1.83579 10.5 2.25 10.5V10.5ZM4.5 12V12C4.5 12.2761 4.72386 12.5 5 12.5H5.25C5.66421 12.5 6 12.1642 6 11.75V4.25C6 3.83579 5.66421 3.5 5.25 3.5H5C4.72386 3.5 4.5 3.72386 4.5 4V4V5.5V10.5V12Z" fill="#4F4F4F"/>
<path fill-rule="evenodd" clip-rule="evenodd" d="M18.5 1.5H7.5V2V3.5V12.5V14V14.5H18.5V7.36511H8.99988V6.29175H18.5V5.36511H14.1471V4.29175H18.5V1.5ZM6 1.5V2H4.5H3V3.5V4H1.5H0V5.5V10.5V12H1.5H3V12.5V14H4.5H6V14.5V16H7.5H18.5H20V14.5V1.5V0H18.5H7.5H6V1.5ZM3 10.5V5.5H1.5V10.5H3ZM4.5 12V12.5H6V3.5H4.5V4V5.5V10.5V12Z" fill="#4F4F4F"/>
</svg>
