<svg width="22" height="22" viewBox="0 0 22 22" fill="none" xmlns="http://www.w3.org/2000/svg">
<path d="M8.62427 10.0996L8.62428 10.0996C8.65017 10.0305 8.64064 9.94993 8.60323 9.88657C8.56659 9.82452 8.51147 9.79097 8.45103 9.79097H6.90512C6.79107 9.79097 6.69979 9.86264 6.67668 9.96024C6.67668 9.96024 6.67668 9.96025 6.67668 9.96026M8.62427 10.0996L8.76473 10.1523C8.71611 10.282 8.59622 10.3785 8.45766 10.3785H6.90595C6.6631 10.3785 6.47479 10.1621 6.53071 9.92571L6.67668 9.96026M8.62427 10.0996C8.59397 10.1805 8.52396 10.2285 8.45766 10.2285H6.90595C6.74991 10.2285 6.6453 10.0929 6.67668 9.96026M8.62427 10.0996L6.67668 9.96026M14.656 13.4541L14.656 13.4541C13.8607 14.6338 12.5126 15.4091 10.9836 15.4091C9.4149 15.4091 8.03674 14.5931 7.25055 13.3617C7.19225 13.2704 7.19898 13.1739 7.24662 13.0966C7.29548 13.0174 7.38859 12.958 7.50562 12.958H7.56112C7.87371 12.958 8.12707 12.7046 8.12707 12.3921C8.12707 12.0795 7.8737 11.8261 7.56112 11.8261H6.85097C6.72143 11.8261 6.62074 11.7398 6.60439 11.6276C6.58441 11.4906 6.69587 11.3605 6.85168 11.3605H7.86902C8.21406 11.3605 8.5174 11.6354 8.67852 12.0001C9.06911 12.8843 9.95398 13.502 10.9834 13.502C12.0129 13.502 12.8977 12.8844 13.2883 12.0001C13.4494 11.6354 13.7528 11.3605 14.0979 11.3605H15.1155C15.2713 11.3605 15.3827 11.4906 15.3628 11.6276C15.3464 11.7398 15.2457 11.8261 15.1162 11.8261H14.2168C13.9042 11.8261 13.6508 12.0795 13.6508 12.3921C13.6508 12.7046 13.9042 12.958 14.2168 12.958H14.3472C14.4914 12.958 14.6064 13.0314 14.6659 13.1288C14.724 13.2239 14.731 13.3429 14.656 13.4541ZM10.1537 8.60467L10.1992 8.7349L7.90068 7.80802C7.90068 7.80802 7.90068 7.80802 7.90068 7.80802C8.69777 7.034 9.78492 6.55765 10.9836 6.55765C11.5949 6.55765 12.1769 6.68153 12.7062 6.90538C13.4075 7.20202 14.0165 7.67434 14.4781 8.26731C14.5438 8.35177 14.5427 8.44481 14.5007 8.52038C14.4573 8.59825 14.3685 8.65903 14.2526 8.65903H14.2168C13.9042 8.65903 13.6508 8.91246 13.6508 9.22501C13.6508 9.5376 13.9042 9.79097 14.2168 9.79097H15.062C15.1761 9.79097 15.2674 9.86265 15.2905 9.96028C15.3218 10.0929 15.2172 10.2285 15.0612 10.2285H13.9153C13.6111 10.2285 13.3344 10.0133 13.1582 9.71235L13.1582 9.71233C12.7213 8.96632 11.9111 8.46478 10.9834 8.46478C10.693 8.46478 10.4137 8.51403 10.1537 8.60467ZM11.4073 2.94082L11.3996 3.09062L11.4073 2.94082C11.087 2.92422 10.8336 3.18541 10.8336 3.49585C10.8336 3.81063 11.088 4.05603 11.391 4.07359C14.8892 4.27654 17.6905 7.07782 17.8934 10.576C17.911 10.879 18.1564 11.1334 18.4712 11.1334C18.7816 11.1334 19.0428 10.88 19.0262 10.5597C18.8131 6.44904 15.518 3.15393 11.4073 2.94082ZM9.62522 18.1127L9.62523 18.1126L4.18584 8.9035L4.22466 8.75862C4.22466 8.75861 4.22465 8.75861 4.22465 8.75861C3.92482 8.67829 3.60694 8.85534 3.54008 9.16907C2.682 13.1948 5.01202 17.2305 8.92744 18.5003C9.23258 18.5992 9.54483 18.4125 9.62522 18.1127ZM1.98195 11C1.98195 6.02361 6.17139 1.98195 10.9525 1.98195C15.7409 1.98195 20.0181 6.03071 20.0181 11C20.0181 15.9693 15.7409 20.0181 10.9525 20.0181C6.17139 20.0181 1.98195 15.9764 1.98195 11ZM10.9525 0.85C5.55461 0.85 0.85 5.39012 0.85 11C0.85 16.6099 5.55461 21.15 10.9525 21.15C16.3432 21.15 21.15 16.617 21.15 11C21.15 5.38297 16.3432 0.85 10.9525 0.85ZM10.9834 9.59671C11.7492 9.59671 12.3701 10.2175 12.3701 10.9834C12.3701 11.7492 11.7492 12.3701 10.9834 12.3701C10.2176 12.3701 9.59676 11.7492 9.59676 10.9834C9.59676 10.4719 9.87358 10.025 10.2862 9.78445C10.3073 9.7781 10.3268 9.76731 10.3432 9.75301C10.5346 9.6532 10.7522 9.59671 10.9834 9.59671ZM16.5412 10.9834C16.5412 9.44868 15.919 8.05911 14.9134 7.05351C14.7529 6.89299 14.5826 6.74224 14.4035 6.60224C14.0217 6.30371 13.5996 6.05398 13.1469 5.86251L13.0885 6.00066L13.1469 5.86251C12.4818 5.58121 11.7506 5.42572 10.9836 5.42572C7.91417 5.42572 5.42592 7.91395 5.42592 10.9834C5.42592 14.0528 7.91417 16.541 10.9836 16.541C14.053 16.541 16.5412 14.0528 16.5412 10.9834Z" fill="#4F4F4F" stroke="#4F4F4F" stroke-width="0.3"/>
<path d="M10.3959 9.79097V9.72698C10.5742 9.64344 10.7732 9.59671 10.9834 9.59671C11.7492 9.59671 12.3701 10.2175 12.3701 10.9834C12.3701 11.7492 11.7492 12.3701 10.9834 12.3701C10.2176 12.3701 9.59676 11.7492 9.59676 10.9834C9.59676 10.4766 9.86862 10.033 10.2751 9.79097H10.3959ZM8.12707 11.9761V11.8261H7.97707H6.63798C6.60859 11.6735 6.58702 11.5182 6.57371 11.3605H8.4929C8.67492 12.5726 9.72055 13.502 10.9834 13.502C12.2463 13.502 13.2919 12.5726 13.474 11.3605H15.3935C15.3802 11.5182 15.3586 11.6735 15.3292 11.8261H13.8008H13.6508V11.9761V12.808V12.958H13.8008H14.9454C14.2197 14.4114 12.718 15.4091 10.9836 15.4091C9.24917 15.4091 7.74747 14.4114 7.02169 12.958H7.97707H8.12707V12.808V11.9761ZM10.0119 8.65903H7.21661C7.99659 7.39764 9.39211 6.55765 10.9836 6.55765C11.5949 6.55765 12.1769 6.68153 12.7062 6.90538C13.5558 7.26475 14.27 7.88204 14.7505 8.65903H13.8008H13.6508V8.80903V9.64097V9.79097H13.8008H15.2468C15.2868 9.93402 15.3197 10.08 15.3452 10.2285H13.3869C13.0662 9.20642 12.1116 8.46478 10.9834 8.46478C10.6393 8.46478 10.311 8.53389 10.0119 8.65903ZM17.9052 10.9834V11.1334H18.0552H18.8871H19.0371V10.9834C19.0371 6.53554 15.4315 2.92987 10.9836 2.92987H10.8336V3.07987V3.9118V4.0618H10.9836C14.8063 4.0618 17.9052 7.16072 17.9052 10.9834ZM9.73286 17.7108L9.77169 17.566L9.62679 17.5271C5.93439 16.5377 3.74315 12.7424 4.73252 9.04999L4.77134 8.9051L4.62645 8.86628L3.82285 8.65096L3.67797 8.61213L3.63914 8.75702C2.48796 13.0533 5.03756 17.4693 9.3338 18.6205L9.47869 18.6593L9.51751 18.5144L9.73286 17.7108ZM1.98195 11C1.98195 6.02361 6.17139 1.98195 10.9525 1.98195C15.7409 1.98195 20.0181 6.03071 20.0181 11C20.0181 15.9693 15.7409 20.0181 10.9525 20.0181C6.17139 20.0181 1.98195 15.9764 1.98195 11ZM10.9525 0.85C5.55461 0.85 0.85 5.39012 0.85 11C0.85 16.6099 5.55461 21.15 10.9525 21.15C16.3432 21.15 21.15 16.617 21.15 11C21.15 5.38297 16.3432 0.85 10.9525 0.85ZM6.62198 10.2285C6.64748 10.08 6.68039 9.93402 6.72032 9.79097H8.76445C8.68986 9.92951 8.62786 10.0759 8.57997 10.2285H6.62198ZM16.5412 10.9834C16.5412 9.44868 15.919 8.05911 14.9134 7.05351C14.7529 6.89299 14.5826 6.74224 14.4035 6.60224C14.0217 6.30371 13.5996 6.05398 13.1469 5.86251L13.0885 6.00066L13.1469 5.86251C12.4818 5.58121 11.7506 5.42572 10.9836 5.42572C7.91417 5.42572 5.42592 7.91395 5.42592 10.9834C5.42592 14.0528 7.91417 16.541 10.9836 16.541C14.053 16.541 16.5412 14.0528 16.5412 10.9834Z" fill="#4F4F4F" stroke="#4F4F4F" stroke-width="0.3"/>
</svg>
