<svg width="21" height="22" viewBox="0 0 21 22" fill="none" xmlns="http://www.w3.org/2000/svg">
<path fill-rule="evenodd" clip-rule="evenodd" d="M10.2674 8.61489C11.5755 8.61489 12.636 9.67535 12.636 10.9835C12.636 12.2916 11.5755 13.3521 10.2674 13.3521C8.95925 13.3521 7.89879 12.2916 7.89879 10.9835C7.89879 9.67535 8.95925 8.61489 10.2674 8.61489ZM10.2674 10.0149C10.8023 10.0149 11.236 10.4486 11.236 10.9835C11.236 11.5184 10.8023 11.9521 10.2674 11.9521C9.73244 11.9521 9.29879 11.5184 9.29879 10.9835C9.29879 10.4486 9.73244 10.0149 10.2674 10.0149Z" fill="#4F4F4F"/>
<path d="M17.7551 10.9835C17.3685 10.9835 17.0589 10.6692 17.0196 10.2846C16.6932 7.09403 14.157 4.55782 10.9665 4.23147C10.5819 4.19213 10.2676 3.88253 10.2676 3.49593C10.2676 3.10933 10.5821 2.79281 10.9673 2.82541C14.931 3.16087 18.0902 6.32007 18.4256 10.2837C18.4582 10.669 18.1417 10.9835 17.7551 10.9835Z" fill="#4F4F4F"/>
<path d="M8.76434 18.0739C8.8644 17.7004 8.64094 17.32 8.27963 17.1825C5.28228 16.0415 3.48891 12.9353 3.99945 9.76901C4.061 9.38734 3.84329 9.00362 3.46986 8.90356C3.09643 8.8035 2.7093 9.02535 2.64109 9.40589C1.93925 13.3213 4.17314 17.1905 7.91493 18.5404C8.27858 18.6716 8.66428 18.4473 8.76434 18.0739Z" fill="#4F4F4F"/>
<path fill-rule="evenodd" clip-rule="evenodd" d="M10.2365 0.716064C4.76557 0.716064 0 5.31524 0 11.0001C0 16.6849 4.76557 21.2841 10.2365 21.2841C15.6986 21.2841 20.5681 16.6938 20.5681 11.0001C20.5681 5.30641 15.6986 0.716064 10.2365 0.716064ZM1.4 11.0001C1.4 6.09871 5.52846 2.11606 10.2365 2.11606C14.9536 2.11606 19.1681 6.10755 19.1681 11.0001C19.1681 15.8926 14.9536 19.8841 10.2365 19.8841C5.52846 19.8841 1.4 15.9015 1.4 11.0001Z" fill="#4F4F4F"/>
<path fill-rule="evenodd" clip-rule="evenodd" d="M10.2674 8.61489C11.5755 8.61489 12.636 9.67535 12.636 10.9835C12.636 12.2916 11.5755 13.3521 10.2674 13.3521C8.95925 13.3521 7.89879 12.2916 7.89879 10.9835C7.89879 9.67535 8.95925 8.61489 10.2674 8.61489ZM10.2674 10.0149C10.8023 10.0149 11.236 10.4486 11.236 10.9835C11.236 11.5184 10.8023 11.9521 10.2674 11.9521C9.73244 11.9521 9.29879 11.5184 9.29879 10.9835C9.29879 10.4486 9.73244 10.0149 10.2674 10.0149Z" fill="#4F4F4F"/>
<path d="M17.0551 10.9835C17.0551 7.23481 14.0162 4.19593 10.2676 4.19593V2.79593C14.7894 2.79593 18.4551 6.46161 18.4551 10.9835H17.0551Z" fill="#4F4F4F"/>
<path d="M8.94551 17.3977C5.3246 16.4275 3.17579 12.7056 4.14601 9.08474L2.79371 8.72239C1.62337 13.0902 4.2154 17.5797 8.58316 18.75L8.94551 17.3977Z" fill="#4F4F4F"/>
<path fill-rule="evenodd" clip-rule="evenodd" d="M10.2365 0.716064C4.76557 0.716064 0 5.31524 0 11.0001C0 16.6849 4.76557 21.2841 10.2365 21.2841C15.6986 21.2841 20.5681 16.6938 20.5681 11.0001C20.5681 5.30641 15.6986 0.716064 10.2365 0.716064ZM1.4 11.0001C1.4 6.09871 5.52846 2.11606 10.2365 2.11606C14.9536 2.11606 19.1681 6.10755 19.1681 11.0001C19.1681 15.8926 14.9536 19.8841 10.2365 19.8841C5.52846 19.8841 1.4 15.9015 1.4 11.0001Z" fill="#4F4F4F"/>
</svg>
