<svg width="22" height="22" viewBox="0 0 22 22" fill="none" xmlns="http://www.w3.org/2000/svg">
<mask id="mask0_2747_5575" style="mask-type:luminance" maskUnits="userSpaceOnUse" x="-1" y="-1" width="24" height="24">
<path d="M0 -0.1H-0.1V0V22V22.1H0H22H22.1V22V0V-0.1H22H0Z" fill="white" stroke="white" stroke-width="0.2"/>
</mask>
<g mask="url(#mask0_2747_5575)">
<path d="M11.165 7.51855L11.165 7.51856C11.1039 8.31447 11.1513 9.1099 11.2826 9.88565C11.3535 10.3043 11.6724 10.6358 12.0833 10.7909C13.3981 11.2873 14.6629 12.0326 15.7251 13.0947C16.3904 13.76 16.9464 14.4942 17.3948 15.2744C17.6353 15.6927 18.0524 15.9569 18.4604 16.0106C18.8643 16.0637 19.2548 15.9115 19.4695 15.4989C19.5534 15.3375 19.6326 15.1738 19.707 15.0082M11.165 7.51855L19.707 15.0082M11.165 7.51855C11.2112 6.91592 11.7698 6.50225 12.3638 6.62566C14.1186 6.99025 15.7883 7.84051 17.1393 9.19153C18.6029 10.6551 19.4788 12.4925 19.7862 14.4071C19.8189 14.611 19.7915 14.8199 19.707 15.0082M11.165 7.51855L19.7982 15.0491L19.707 15.0082M10.3691 1.36159C10.3733 1.39992 10.3537 1.43821 10.3193 1.45669M10.3691 1.36159L10.2748 1.38888L10.2746 1.38846L10.2691 1.37985L10.2746 1.38818L10.2748 1.38858L10.3193 1.45669M10.3691 1.36159C10.3694 1.36157 10.3696 1.36156 10.3698 1.36154L10.3691 1.36159ZM10.3193 1.45669L10.3238 1.46355C10.3237 1.46361 10.3237 1.46366 10.3236 1.46372L10.3193 1.45669ZM11.8878 2.45275C12.0286 2.24956 12.0456 2.00267 11.9672 1.80506C11.8896 1.60937 11.7205 1.46491 11.4829 1.45337C11.0956 1.43455 10.7078 1.43847 10.3217 1.46492C9.80324 1.80406 9.3155 2.1978 8.86787 2.64541C6.71974 4.79354 5.78475 7.89789 6.18634 10.8531C6.26247 11.4134 6.77144 11.8007 7.3281 11.7159C8.07937 11.6014 8.80644 11.3896 9.49869 11.1047C10.0022 10.8975 10.2532 10.338 10.1727 9.77763C9.98307 8.45891 10.0149 7.0726 10.3823 5.7014C10.7023 4.50706 11.2198 3.41662 11.8878 2.45275ZM11.8878 2.45275L11.9699 2.50971L11.8878 2.45275ZM13.0932 5.68708L13.0707 5.77398L13.0932 5.68708C12.7116 5.58835 12.3934 5.34302 12.217 5.03892C12.0417 4.73661 12.007 4.37859 12.1846 4.04137L12.0979 3.99567L12.1846 4.04137C12.5006 3.44145 12.8774 2.8841 13.3047 2.37445C13.5883 2.03622 14.053 1.91474 14.4659 2.07096C15.6789 2.52995 16.815 3.242 17.7865 4.21348C18.8361 5.26304 19.5828 6.50476 20.0348 7.82797C20.1354 8.12257 20.1039 8.35254 20.0011 8.52203C19.8968 8.69386 19.7101 8.81854 19.4731 8.88158C18.9969 9.00822 18.3512 8.87608 17.903 8.42785C16.5266 7.05141 14.8559 6.14323 13.0932 5.68708ZM10.2803 1.36758L10.2736 1.37204L10.2736 1.37207L10.2703 1.37428L10.2736 1.37209L10.2736 1.37206L10.2804 1.36758C10.2804 1.36758 10.2803 1.36758 10.2803 1.36758ZM3.65374 11.4955L3.65373 11.4955C3.13032 11.3557 2.62416 11.1719 2.13915 10.9486L2.09765 11.0387L2.13914 10.9486C1.73077 10.7606 1.49118 10.3326 1.54249 9.88556C1.78595 7.76462 2.70151 5.72539 4.24895 4.17797C5.34163 3.08529 6.67379 2.3139 8.10469 1.8745C8.10481 1.87446 8.10492 1.87443 8.10503 1.8744C8.10511 1.87453 8.1052 1.87467 8.10528 1.87482C8.10635 1.8767 8.10643 1.87827 8.10639 1.87875L8.10628 1.87911C8.10622 1.87924 8.10578 1.88017 8.1042 1.88175C5.91286 4.07307 4.86356 7.1332 5.03344 10.1351C5.05688 10.5498 4.90382 10.9449 4.64819 11.208C4.39424 11.4694 4.04164 11.5991 3.65374 11.4955ZM2.67186 15.7388L2.67186 15.7388C2.34839 15.1543 2.09143 14.5409 1.89999 13.9103L1.80458 13.9393L1.89999 13.9103C1.76562 13.4679 1.93441 13.0821 2.25676 12.8299C2.58199 12.5754 3.06065 12.4611 3.5255 12.578C4.34079 12.7828 5.19292 12.8922 6.06983 12.8922C7.69 12.8922 9.21605 12.4649 10.5732 11.8059C10.8707 11.6615 11.2064 11.6229 11.5085 11.7304L11.5085 11.7304C12.2832 12.0061 13.0327 12.3714 13.7238 12.8393C14.2508 13.1961 14.3055 13.9331 13.8415 14.3723L13.9028 14.437L13.8415 14.3723C12.5816 15.565 10.9918 16.4325 9.17861 16.7913C7.16223 17.1903 4.93865 16.9589 3.16683 16.1898C2.95673 16.0986 2.78301 15.9397 2.67186 15.7388ZM16.2228 15.4246L16.3045 15.3722L16.2228 15.4246C16.6309 16.0611 16.9554 16.7371 17.1974 17.4366C17.3444 17.8614 17.2017 18.3306 16.8424 18.5999C13.1646 21.356 7.63341 21.2066 4.21342 17.7865L4.14664 17.8533L4.21341 17.7865C4.20233 17.7755 4.19919 17.7656 4.19854 17.7578C4.19781 17.749 4.20005 17.7384 4.20643 17.728C4.21911 17.7073 4.2422 17.6953 4.27065 17.7026C5.9089 18.1223 7.71417 18.1821 9.38824 17.8508C11.3227 17.4679 13.0259 16.5668 14.3947 15.3314C14.675 15.0785 15.0364 14.9476 15.3754 14.9579C15.7126 14.9681 16.0257 15.1173 16.2228 15.4246ZM10.9356 10.9428C10.9285 10.9444 10.9221 10.941 10.919 10.9355C10.919 10.9355 10.919 10.9355 10.919 10.9355C10.9172 10.9322 10.9166 10.9282 10.9177 10.9242L10.932 10.9283L10.932 10.9283L10.932 10.9283L10.9321 10.9283L10.9463 10.9324C10.9449 10.9373 10.9411 10.9413 10.9357 10.9427C10.9357 10.9427 10.9357 10.9427 10.9356 10.9427C10.9356 10.9427 10.9356 10.9427 10.9356 10.9428ZM10.9463 10.9324L10.9321 10.9283L10.932 10.9283L10.932 10.9283L10.932 10.9283L10.9177 10.9241C10.9183 10.9223 10.92 10.9192 10.9231 10.9167C10.925 10.9152 10.9268 10.9143 10.9284 10.9139C10.9285 10.9139 10.9285 10.9139 10.9285 10.9138C10.9292 10.9137 10.9298 10.9135 10.9304 10.9135C10.9324 10.9133 10.9351 10.9135 10.9382 10.915C10.9418 10.9167 10.9441 10.9194 10.9451 10.9211C10.9471 10.9247 10.9474 10.9288 10.9463 10.9324ZM18.5857 18.5147C22.6004 14.4999 22.7228 7.6225 18.5501 3.44982C14.3775 -0.722877 7.50002 -0.600473 3.48527 3.41428C-0.524619 7.42418 -0.727768 14.3727 3.44973 18.5502C7.62725 22.7277 14.5758 22.5246 18.5857 18.5147Z" fill="#4F4F4F" stroke="#4F4F4F" stroke-width="0.2"/>
<path d="M11.4883 10.6118V10.5118H11.3883H10.6118H10.5118V10.6118V11.3883V11.4883H10.6118H11.3883H11.4883V11.3883V10.6118Z" fill="#4F4F4F" stroke="#4F4F4F" stroke-width="0.2"/>
</g>
</svg>
