<svg width="22" height="22" viewBox="0 0 22 22" fill="none" xmlns="http://www.w3.org/2000/svg">
<mask id="mask0_2747_5575" style="mask-type:luminance" maskUnits="userSpaceOnUse" x="-1" y="-1" width="24" height="24">
<path d="M0 -0.1H-0.1V0V22V22.1H0H22H22.1V22V0V-0.1H22H0Z" fill="white" stroke="white" stroke-width="0.2"/>
</mask>
<g mask="url(#mask0_2747_5575)">
<path d="M12.1846 4.04137L12.0961 3.99477L12.1846 4.04137C12.5006 3.44145 12.8774 2.8841 13.3047 2.37445C13.5883 2.03622 14.053 1.91474 14.4659 2.07096C15.6789 2.52995 16.815 3.242 17.7865 4.21348C18.8361 5.26304 19.5828 6.50476 20.0348 7.82797C20.1354 8.12257 20.1039 8.35254 20.0011 8.52203C19.8968 8.69386 19.7101 8.81854 19.4731 8.88158C18.9969 9.00822 18.3512 8.87608 17.903 8.42785C16.5266 7.05141 14.8559 6.14323 13.0932 5.68708L13.0682 5.78389L13.0932 5.68708C12.7116 5.58835 12.3934 5.34302 12.217 5.03892C12.0417 4.73661 12.007 4.37859 12.1846 4.04137ZM8.86787 2.64541C9.3155 2.1978 9.80324 1.80406 10.3217 1.46492C10.7078 1.43847 11.0956 1.43455 11.4829 1.45337C11.7205 1.46491 11.8896 1.60937 11.9672 1.80506C12.0456 2.00267 12.0286 2.24956 11.8878 2.45275C11.2198 3.41662 10.7023 4.50706 10.3823 5.7014C10.0149 7.0726 9.98307 8.45891 10.1727 9.77763C10.2532 10.338 10.0022 10.8975 9.49869 11.1047C8.80644 11.3896 8.07937 11.6014 7.3281 11.7159L7.34316 11.8148L7.3281 11.7159C6.77144 11.8007 6.26247 11.4134 6.18634 10.8531C5.78475 7.89789 6.71974 4.79354 8.86787 2.64541ZM3.65374 11.4955L3.65373 11.4955C3.13032 11.3557 2.62416 11.1719 2.13915 10.9486L2.09733 11.0394L2.13914 10.9486C1.73077 10.7606 1.49118 10.3326 1.54249 9.88556C1.78595 7.76463 2.70151 5.72539 4.24895 4.17797C5.34164 3.08528 6.6738 2.31389 8.1047 1.8745C8.10482 1.87446 8.10492 1.87443 8.10503 1.8744C8.10511 1.87453 8.1052 1.87467 8.10528 1.87482C8.10635 1.8767 8.10643 1.87827 8.10639 1.87875L8.10628 1.87911C8.10622 1.87924 8.10578 1.88017 8.1042 1.88175C5.91285 4.07307 4.86356 7.1332 5.03344 10.1351C5.05688 10.5498 4.90382 10.9449 4.64819 11.208C4.39424 11.4694 4.04164 11.5991 3.65374 11.4955ZM2.67186 15.7388L2.67186 15.7388C2.34839 15.1543 2.09143 14.5409 1.89999 13.9103L1.8043 13.9394L1.89999 13.9103C1.76562 13.4679 1.93441 13.0821 2.25676 12.8299C2.58199 12.5754 3.06065 12.4611 3.5255 12.578C4.34079 12.7828 5.19292 12.8922 6.06983 12.8922C7.69 12.8922 9.21605 12.4649 10.5732 11.8059C10.8707 11.6615 11.2064 11.6229 11.5085 11.7304L11.5085 11.7304C12.2832 12.0061 13.0327 12.3714 13.7238 12.8393C14.2508 13.1961 14.3055 13.9331 13.8415 14.3723L13.9103 14.4449L13.8415 14.3723C12.5816 15.565 10.9918 16.4325 9.17861 16.7913C7.16223 17.1903 4.93866 16.9589 3.16683 16.1898C2.95673 16.0986 2.78301 15.9397 2.67186 15.7388ZM11.165 7.51856C11.2112 6.91592 11.7698 6.50225 12.3638 6.62566C14.1186 6.99025 15.7883 7.84051 17.1393 9.19153C18.6029 10.6551 19.4788 12.4925 19.7862 14.4071C19.8189 14.611 19.7915 14.8199 19.707 15.0082C19.6326 15.1738 19.5534 15.3375 19.4695 15.4989C19.2548 15.9115 18.8643 16.0637 18.4604 16.0106C18.0524 15.9569 17.6353 15.6927 17.3948 15.2744C16.9464 14.4942 16.3904 13.76 15.7251 13.0947C14.6629 12.0326 13.3981 11.2873 12.0833 10.7909C11.6724 10.6358 11.3535 10.3043 11.2826 9.88565C11.1513 9.1099 11.1039 8.31447 11.165 7.51856ZM16.2228 15.4246L16.3069 15.3707L16.2228 15.4246C16.6309 16.0611 16.9554 16.7371 17.1974 17.4366C17.3444 17.8614 17.2017 18.3306 16.8424 18.5999C13.1646 21.356 7.63341 21.2066 4.21342 17.7865L4.14271 17.8573L4.21341 17.7865C4.20233 17.7755 4.19919 17.7656 4.19854 17.7578C4.19781 17.749 4.20005 17.7384 4.20643 17.728C4.21911 17.7073 4.2422 17.6953 4.27065 17.7026C5.9089 18.1223 7.71417 18.1821 9.38824 17.8508C11.3227 17.4679 13.0259 16.5668 14.3947 15.3314C14.675 15.0785 15.0364 14.9476 15.3754 14.9579C15.7126 14.9681 16.0257 15.1173 16.2228 15.4246ZM18.5857 18.5147C22.6004 14.4999 22.7228 7.6225 18.5501 3.44982C14.3775 -0.722877 7.50002 -0.600473 3.48527 3.41428C-0.524619 7.42418 -0.727768 14.3727 3.44973 18.5502C7.62725 22.7277 14.5758 22.5246 18.5857 18.5147Z" fill="#4F4F4F" stroke="#4F4F4F" stroke-width="0.2"/>
</g>
</svg>
