<svg width="22" height="16" viewBox="0 0 22 16" fill="none" xmlns="http://www.w3.org/2000/svg">
<path fill-rule="evenodd" clip-rule="evenodd" d="M20.5 2.91422C20.5 2.13317 19.8668 1.5 19.0858 1.5H3.5C2.39543 1.5 1.5 2.39543 1.5 3.5V8.5C1.5 9.60457 2.39543 10.5 3.5 10.5H18.9142C19.79 10.5 20.5 9.79002 20.5 8.91422V8.91422C20.5 8.03841 19.79 7.32843 18.9142 7.32843H9.5C9.22386 7.32843 9 7.10457 9 6.82843V6.82843C9 6.55229 9.22386 6.32843 9.5 6.32843L20 6.32843C20.2761 6.32843 20.5 6.10457 20.5 5.82843V5.82843C20.5 5.55229 20.2761 5.32843 20 5.32843L15.5 5.32843C15.2239 5.32843 15 5.10457 15 4.82843V4.82843C15 4.55229 15.2239 4.32843 15.5 4.32843H19.0858C19.8668 4.32843 20.5 3.69526 20.5 2.91422V2.91422ZM1.5 0V0C0.671573 0 0 0.671573 0 1.5V1.5V10.5V10.5C0 11.3284 0.671573 12 1.5 12V12H7.9898C8.26594 12 8.4898 12.2239 8.4898 12.5V12.5V13.5408V13.6633C8.4898 14.0099 8.20883 14.2908 7.86225 14.2908V14.2908C7.51566 14.2908 7.23469 14.5718 7.23469 14.9184V15.0408C7.23469 15.455 7.57048 15.7908 7.98469 15.7908L13.25 15.7908C13.6642 15.7908 14 15.455 14 15.0408V14.7908C14 14.5147 13.7761 14.2908 13.5 14.2908V14.2908C13.2239 14.2908 13 14.067 13 13.7908V13.5408V12.5V12.5C13 12.2239 13.2239 12 13.5 12H20.5V12C21.3284 12 22 11.3284 22 10.5V10.5V1.5V1.5C22 0.671573 21.3284 0 20.5 0V0H1.5ZM9.9898 13.0204C9.9898 13.3078 10.2228 13.5408 10.5102 13.5408H10.9796C11.267 13.5408 11.5 13.3078 11.5 13.0204V13.0204C11.5 12.733 11.267 12.5 10.9796 12.5H10.5102C10.2228 12.5 9.9898 12.733 9.9898 13.0204V13.0204Z" fill="#4F4F4F"/>
<path fill-rule="evenodd" clip-rule="evenodd" d="M20.5 1.5H1.5V10.5H20.5V7.32843H9L9 6.32843L20.5 6.32843V5.32843L15 5.32843V4.32843H20.5V1.5ZM1.5 0H0V1.5V10.5V12H1.5H8.4898V12.5V13.5408V14.2908H7.23469V15.7908L14 15.7908V14.2908H13V13.5408V12.5V12H20.5H22V10.5V1.5V0H20.5H1.5ZM9.9898 13.5408H11.5V12.5H9.9898V13.5408Z" fill="#4F4F4F"/>
</svg>
