<svg width="22" height="22" viewBox="0 0 22 22" fill="none" xmlns="http://www.w3.org/2000/svg">
<path d="M11.8839 9.52687L11.7778 9.42081C11.3483 9.85039 10.6518 9.8504 10.2222 9.42081L4.612 3.81061C4.612 3.81061 4.612 3.81061 4.612 3.81061C4.3907 3.58931 4.03191 3.58931 3.81061 3.81061L11.8839 9.52687ZM11.8839 9.52687L11.7778 9.42081L17.388 3.81062C17.6093 3.58932 17.9681 3.58932 18.1894 3.81062L18.1106 3.88941L18.1894 3.81062C18.4107 4.03192 18.4107 4.3907 18.1894 4.612L18.085 4.50757L18.1894 4.61201L14.2459 8.55552C13.5529 9.24849 14.0437 10.4333 15.0237 10.4333H20.5833C20.8963 10.4333 21.15 10.687 21.15 11C21.15 11.313 20.8963 11.5667 20.5833 11.5667H15.0237C14.0437 11.5667 13.5529 12.7515 14.2459 13.4445L18.1894 17.388C18.4107 17.6093 18.4107 17.9681 18.1894 18.1894C17.9681 18.4107 17.6093 18.4107 17.388 18.1894L11.7778 12.5792L11.8839 12.4732L11.7778 12.5792C11.3483 12.1496 10.6518 12.1496 10.2222 12.5792L4.61199 18.1894C4.3907 18.4107 4.0319 18.4107 3.8106 18.1894M11.8839 9.52687L3.8106 18.1894M3.81059 17.388L3.8106 17.388L7.75414 13.4445C8.44711 12.7515 7.95632 11.5667 6.97633 11.5667H1.41667C1.10371 11.5667 0.85 11.313 0.85 11C0.85 10.687 1.10371 10.4333 1.41667 10.4333H6.97629C7.95633 10.4333 8.4471 9.24848 7.75414 8.55552L3.81061 4.612C3.81061 4.612 3.81061 4.612 3.81061 4.612C3.58931 4.3907 3.58931 4.03191 3.81061 3.81061L3.81059 17.388ZM3.81059 17.388C3.58932 17.6093 3.5893 17.9681 3.8106 18.1894M3.81059 17.388L3.8106 18.1894M10.4333 5.58333C10.4333 5.8963 10.687 6.15 11 6.15C11.313 6.15 11.5667 5.8963 11.5667 5.58333V1.41667C11.5667 1.10371 11.313 0.85 11 0.85C10.687 0.85 10.4333 1.10371 10.4333 1.41667V5.58333ZM11 15.85C10.687 15.85 10.4333 16.1037 10.4333 16.4167V20.5833C10.4333 20.8963 10.687 21.15 11 21.15C11.313 21.15 11.5667 20.8963 11.5667 20.5833V16.4167C11.5667 16.1037 11.313 15.85 11 15.85Z" fill="#4F4F4F" stroke="#4F4F4F" stroke-width="0.3"/>
<path d="M10.4333 6V6.15H10.5833H11.4167H11.5667V6V1V0.85H11.4167H10.5833H10.4333V1V6ZM21 11.5667H21.15V11.4167V10.5833V10.4333H21H12.3681L18.484 4.31738L18.5901 4.21131L18.484 4.10525L17.8948 3.51599L17.7887 3.40993L17.6826 3.51599L11 10.1986L4.31737 3.51598L4.2113 3.40991L4.10523 3.51598L3.51598 4.10523L3.40991 4.2113L3.51598 4.31737L9.63195 10.4333H1H0.85V10.5833V11.4167V11.5667H1H9.63195L3.51598 17.6826L3.40991 17.7887L3.51598 17.8948L4.10523 18.484L4.2113 18.5901L4.31737 18.484L11 11.8014L17.6826 18.484L17.7887 18.5901L17.8948 18.484L18.484 17.8948L18.5901 17.7887L18.484 17.6826L12.368 11.5667H21ZM10.5833 15.85H10.4333V16V21V21.15H10.5833H11.4167H11.5667V21V16V15.85H11.4167H10.5833Z" fill="#4F4F4F" stroke="#4F4F4F" stroke-width="0.3"/>
</svg>
