<svg width="22" height="22" viewBox="0 0 22 22" fill="none" xmlns="http://www.w3.org/2000/svg">
<path d="M11.7778 12.5792L11.7778 12.5792L11.7778 12.5792L17.1536 17.955L17.388 18.1894L17.6826 18.484L17.7887 18.5901L17.8948 18.484L18.1894 18.1894L18.484 17.8948L18.5901 17.7887L18.484 17.6826L18.1894 17.388L14.2459 13.4445C13.5529 12.7515 14.0437 11.5667 15.0237 11.5667H20.5833H21H21.15V11.4167V11V10.5833V10.4333H21H20.5833H15.0237C14.0437 10.4333 13.5529 9.24849 14.2459 8.55552L18.1894 4.61201C18.1897 4.61172 18.19 4.61142 18.1903 4.61113L18.484 4.31738L18.5901 4.21131L18.484 4.10525L18.1901 3.81134C18.1899 3.8111 18.1896 3.81086 18.1894 3.81062C18.189 3.81027 18.1887 3.80991 18.1883 3.80955L17.8948 3.51599L17.7887 3.40993L17.6826 3.51599L17.388 3.81062L11.7778 9.42081C11.3485 9.85018 10.6525 9.8504 10.2228 9.42146C10.2226 9.42124 10.2224 9.42102 10.2222 9.42081L4.612 3.81061C4.61186 3.81047 4.61172 3.81033 4.61158 3.81019L4.31737 3.51598L4.2113 3.40991L4.10523 3.51598L3.81061 3.81061L3.51598 4.10523L3.40991 4.2113L3.51598 4.31737L3.81017 4.61155C3.81031 4.6117 3.81046 4.61185 3.81061 4.612L7.75414 8.55552C7.75441 8.55579 7.75467 8.55605 7.75493 8.55631C8.44673 9.24938 7.95596 10.4333 6.97629 10.4333H1.41667H1H0.85V10.5833V11V11.4167V11.5667H1H1.41667H6.97633C7.95632 11.5667 8.44711 12.7515 7.75414 13.4445L3.8106 17.388L3.81059 17.388L3.51598 17.6826L3.40991 17.7887L3.51598 17.8948L3.80959 18.1884C3.80992 18.1887 3.81026 18.1891 3.8106 18.1894C3.8106 18.1894 3.8106 18.1894 3.81061 18.1894C3.81086 18.1897 3.81111 18.1899 3.81137 18.1902L4.10523 18.484L4.2113 18.5901L4.31737 18.484L4.61077 18.1906C4.61118 18.1902 4.61158 18.1898 4.61199 18.1894L10.2222 12.5792C10.6518 12.1496 11.3483 12.1496 11.7778 12.5792ZM10.4333 6V6.15H10.5833H11H11.4167H11.5667V6V5.58333V1.41667V1V0.85H11.4167H11H10.5833H10.4333V1V1.41667V5.58333V6ZM10.5833 15.85H10.4333V16V16.4167V20.5833V21V21.15H10.5833H11H11.4167H11.5667V21V20.5833V16.4167V16V15.85H11.4167H11H10.5833Z" fill="#4F4F4F" stroke="#4F4F4F" stroke-width="0.3"/>
</svg>
