<svg width="27" height="28" viewBox="0 0 27 28" fill="none" xmlns="http://www.w3.org/2000/svg">
<path d="M3 27H24.5L23.5 25L24.5 23H3C1.89543 23 1 23.8954 1 25C1 26.1046 1.89543 27 3 27Z" stroke="white" stroke-width="2"/>
<path d="M1 25V4V4C1 2.34315 2.34315 1 4 1V1H5H25V22" stroke="white" stroke-width="2"/>
<path d="M5 1V24" stroke="white" stroke-width="2"/>
<path d="M15 5H14C14 7.40137 13.5136 8.82218 12.6679 9.66789C11.8222 10.5136 10.4014 11 8 11V12V13C10.4014 13 11.8222 13.4864 12.6679 14.3321C13.5136 15.1778 14 16.5986 14 19H15H16C16 16.5986 16.4864 15.1778 17.3321 14.3321C18.1778 13.4864 19.5986 13 22 13V12V11C19.5986 11 18.1778 10.5136 17.3321 9.66789C16.4864 8.82218 16 7.40137 16 5H15Z" stroke="white" stroke-width="2"/>
</svg>
