<svg width="100" height="100" viewBox="0 0 100 100" fill="none" xmlns="http://www.w3.org/2000/svg">
<path fill-rule="evenodd" clip-rule="evenodd" d="M65.2381 0C37.1429 0 62.381 0 34.5238 0C6.90476 0 0 6.90476 0 34.7619C0 50.4762 0 37.619 0 65.4762C0 93.0952 6.90476 100 34.7619 100C62.8571 100 37.619 100 65.4762 100C93.3333 100 100 93.0952 100 65.2381C100 37.381 100 62.381 100 34.5238C100 6.90476 93.0952 0 65.2381 0Z" fill="#54008C"/>
<path d="M75.2381 62.3813V59.7623H82.381C83.3334 59.7623 84.0476 60.0003 84.0476 60.9527C84.0476 61.9051 83.5715 62.3813 82.381 62.3813H75.2381ZM75.2381 56.9051V54.2861H82.1429C83.0953 54.2861 83.8096 54.7623 83.8096 55.4765C83.8096 56.4289 83.3334 56.9051 82.1429 56.9051H75.2381ZM71.9048 51.667V65.2384H82.381C85.2381 65.2384 87.6191 64.048 87.6191 61.4289C87.6191 60.0003 86.9048 59.048 85.7143 58.3337C86.6667 57.8575 87.381 56.667 87.381 55.4765C87.381 52.8575 85.2381 51.667 82.381 51.667H71.9048ZM58.3334 48.5718V50.7146L67.8572 49.7623V48.5718H58.3334ZM60 51.667H56.9048V65.2384H60.4762L65.9524 55.9527L65.7143 65.2384H69.0476V51.667H65.4762L60 60.9527V51.667ZM50.4762 60.2384H47.6191L49.0476 54.7623L50.4762 60.2384ZM47.1429 51.667L42.8572 65.2384H46.4286L47.1429 63.0956H51.4286L52.1429 65.2384H55.7143L51.4286 51.667H47.1429ZM34.0476 57.6194V54.5242H38.5715C39.7619 54.5242 40.2381 55.2384 40.2381 56.1908C40.2381 57.1432 39.7619 57.8575 38.5715 57.8575H34.0476V57.6194ZM38.3334 51.667H30.7143V65.2384H34.0476V60.2384H38.3334C41.1905 60.2384 43.3334 58.8099 43.3334 55.9527C43.3334 53.0956 41.4286 51.667 38.3334 51.667ZM29.0476 67.8575V62.3813H27.1429V51.667H15L14.7619 57.8575C14.7619 59.5242 14.2857 60.9527 13.3334 62.3813H11.9048V67.8575H15.2381V65.2384H25.7143V67.8575H29.0476ZM18.0953 58.0956L18.3334 54.5242H23.8095V62.3813H16.9048C17.6191 61.1908 18.0953 59.7623 18.0953 58.0956Z" fill="#33D163"/>
<path d="M66.6667 33.5713H63.3333V47.1428H66.9048L74.7619 37.8571V47.1428H78.0952V33.5713H74.5238L66.6667 43.0952V33.5713ZM55 36.1904V46.9047H58.0952V36.1904H61.6667V33.5713H51.4286V36.1904H55ZM41.6667 33.5713H38.5714V47.1428H42.1429L46.6667 38.0952L46.4286 47.1428H49.5238V33.5713H45.9524L41.6667 42.8571V33.5713ZM36.9048 43.8094L33.8095 42.3809C32.8572 44.0475 31.1905 44.5237 29.2857 44.5237C26.1905 44.5237 24.5238 43.0952 24.5238 40.4761V40.238C24.5238 37.619 26.1905 36.1904 29.2857 36.1904C31.1905 36.1904 32.8572 36.6666 33.8095 38.3333L36.9048 36.9047C35.4762 33.8094 32.381 33.3333 29.2857 33.3333C24.2857 33.3333 20.9524 35.9523 20.9524 39.9999V40.4761C20.9524 44.7618 24.0476 47.1428 29.2857 47.1428C32.381 47.3809 35.4762 46.9047 36.9048 43.8094Z" fill="white"/>
</svg>
