<svg width="296" height="669" viewBox="0 0 296 669" fill="none" xmlns="http://www.w3.org/2000/svg">
<rect width="296" height="669" rx="24" fill="white"/>
<mask id="mask0_127_923" style="mask-type:alpha" maskUnits="userSpaceOnUse" x="0" y="0" width="296" height="669">
<rect width="296" height="669" rx="24" fill="white"/>
</mask>
<g mask="url(#mask0_127_923)">
<g filter="url(#filter0_f_127_923)">
<ellipse rx="433.601" ry="418.044" transform="matrix(0.958487 -0.285137 0.309684 0.950839 734.063 -156.473)" fill="#005FF9"/>
</g>
<g filter="url(#filter1_f_127_923)">
<ellipse rx="413.063" ry="415.858" transform="matrix(0.7045 -0.709704 0.740824 0.671699 -238.919 597.794)" fill="#FFD400"/>
</g>
<g style="mix-blend-mode:multiply" opacity="0.6">
<path d="M-5.44991 532.92L-4.66273 533.826L-3.75565 533.04L-4.54283 532.135L-5.44991 532.92ZM-17.0908 543.002L-17.878 542.097L-20.182 544.092L-17.1333 544.201L-17.0908 543.002ZM3.96343 543.751L4.87051 542.966L4.52806 542.572L4.00591 542.553L3.96343 543.751ZM9.70327 550.356L9.65003 551.553L12.4422 551.678L10.6104 549.57L9.70327 550.356ZM-9.10976 549.518L-9.05652 548.32L-10.0377 548.276L-10.2752 549.228L-9.10976 549.518ZM-15.0063 573.145L-15.9134 573.931L-14.3993 575.673L-13.8409 573.436L-15.0063 573.145ZM-20.2869 567.07L-21.4515 566.776L-21.6046 567.383L-21.194 567.855L-20.2869 567.07ZM-15.7984 549.291L-14.6338 549.585L-14.2724 548.153L-15.7499 548.093L-15.7984 549.291ZM-23.9695 548.96L-23.9211 547.762L-24.397 547.743L-24.7567 548.054L-23.9695 548.96ZM-30.8482 554.918L-31.7553 555.703L-30.9681 556.609L-30.061 555.823L-30.8482 554.918ZM-35.4401 549.634L-36.2273 548.728L-37.1344 549.514L-36.3472 550.42L-35.4401 549.634ZM-10.0418 527.637L-9.1347 526.851L-9.92188 525.945L-10.829 526.731L-10.0418 527.637ZM-6.23709 532.014L-17.878 542.097L-16.3036 543.908L-4.66273 533.826L-6.23709 532.014ZM-17.1333 544.201L3.92095 544.949L4.00591 542.553L-17.0483 541.804L-17.1333 544.201ZM3.05635 544.537L8.79618 551.141L10.6104 549.57L4.87051 542.966L3.05635 544.537ZM9.75651 549.158L-9.05652 548.32L-9.163 550.715L9.65003 551.553L9.75651 549.158ZM-10.2752 549.228L-16.1717 572.855L-13.8409 573.436L-7.94436 549.808L-10.2752 549.228ZM-14.0992 572.36L-19.3798 566.284L-21.194 567.855L-15.9134 573.931L-14.0992 572.36ZM-19.1223 567.363L-14.6338 549.585L-16.963 548.998L-21.4515 566.776L-19.1223 567.363ZM-15.7499 548.093L-23.9211 547.762L-24.018 550.158L-15.8469 550.489L-15.7499 548.093ZM-24.7567 548.054L-31.6354 554.012L-30.061 555.823L-23.1823 549.866L-24.7567 548.054ZM-29.9411 554.132L-34.533 548.849L-36.3472 550.42L-31.7553 555.703L-29.9411 554.132ZM-34.6529 550.54L-9.2546 528.543L-10.829 526.731L-36.2273 548.728L-34.6529 550.54ZM-10.9489 528.422L-6.35699 533.706L-4.54283 532.135L-9.1347 526.851L-10.9489 528.422Z" fill="black"/>
<path d="M18.2395 557.506L19.1802 558.251L19.9268 557.311L18.986 556.566L18.2395 557.506ZM4.39025 574.933L3.44952 574.188L2.70293 575.127L3.64366 575.872L4.39025 574.933ZM4.5 575.02L3.75341 575.959L4.21275 576.323L4.78268 576.185L4.5 575.02ZM31.9584 568.37L32.705 567.431L32.2457 567.067L31.6758 567.205L31.9584 568.37ZM36.8973 572.281L37.838 573.026L38.5846 572.087L37.6439 571.342L36.8973 572.281ZM15.9928 598.587L15.2462 599.526L16.187 600.271L16.9335 599.332L15.9928 598.587ZM10.5052 594.241L9.56449 593.496L8.8179 594.435L9.75863 595.18L10.5052 594.241ZM24.3544 576.814L25.2952 577.559L26.0417 576.619L25.101 575.874L24.3544 576.814ZM24.2447 576.727L24.9913 575.787L24.5319 575.423L23.962 575.561L24.2447 576.727ZM-3.21377 583.376L-3.96036 584.316L-3.50102 584.679L-2.93109 584.541L-3.21377 583.376ZM-8.15261 579.465L-9.09334 578.72L-9.83993 579.659L-8.8992 580.404L-8.15261 579.465ZM12.7519 553.16L13.4985 552.22L12.5577 551.475L11.8111 552.415L12.7519 553.16ZM17.2987 556.761L3.44952 574.188L5.33098 575.678L19.1802 558.251L17.2987 556.761ZM3.64366 575.872L3.75341 575.959L5.24659 574.08L5.13684 573.993L3.64366 575.872ZM4.78268 576.185L32.2411 569.535L31.6758 567.205L4.21731 573.854L4.78268 576.185ZM31.2119 569.31L36.1507 573.221L37.6439 571.342L32.705 567.431L31.2119 569.31ZM35.9566 571.536L15.0521 597.842L16.9335 599.332L37.838 573.026L35.9566 571.536ZM16.7394 597.647L11.2518 593.301L9.75863 595.18L15.2462 599.526L16.7394 597.647ZM11.4459 594.986L25.2952 577.559L23.4137 576.069L9.56449 593.496L11.4459 594.986ZM25.101 575.874L24.9913 575.787L23.4981 577.666L23.6078 577.753L25.101 575.874ZM23.962 575.561L-3.49646 582.211L-2.93109 584.541L24.5274 577.892L23.962 575.561ZM-2.46718 582.437L-7.40602 578.525L-8.8992 580.404L-3.96036 584.316L-2.46718 582.437ZM-7.21188 580.21L13.6926 553.905L11.8111 552.415L-9.09334 578.72L-7.21188 580.21ZM12.0053 554.099L17.4929 558.445L18.986 556.566L13.4985 552.22L12.0053 554.099Z" fill="black"/>
<path d="M63.6627 571.296L63.3167 572.445L63.3258 572.447L63.3348 572.45L63.6627 571.296ZM68.6931 572.532L68.4549 573.708L68.4718 573.712L68.4888 573.714L68.6931 572.532ZM72.6961 573.165L72.5295 574.353L72.5414 574.354L72.5533 574.356L72.6961 573.165ZM76.3268 573.449L77.5255 573.379L77.4619 572.282L76.3622 572.251L76.3268 573.449ZM76.7258 580.337L76.7134 581.536L77.9987 581.548L77.9244 580.266L76.7258 580.337ZM73.0951 580.052L73.2518 578.863L73.2424 578.862L73.233 578.861L73.0951 580.052ZM68.7789 579.417L68.5455 580.593L68.5609 580.596L68.5764 580.599L68.7789 579.417ZM62.967 578.016L63.2856 576.86L63.2823 576.859L62.967 578.016ZM53.8822 578.087L53.5015 576.95L53.5012 576.95L53.8822 578.087ZM46.5549 583.931L45.5823 583.229L44.7616 584.362L46.0069 584.999L46.5549 583.931ZM46.6795 583.995L46.1315 585.063L46.6256 585.315L47.1386 585.103L46.6795 583.995ZM50.3231 583.028L50.4833 584.217L50.4868 584.216L50.3231 583.028ZM54.1136 583.002L54.247 581.81L54.24 581.809L54.2329 581.808L54.1136 583.002ZM63.2362 588.376L62.2753 589.095L62.2858 589.109L62.2966 589.123L63.2362 588.376ZM66.8708 600.456L65.6734 600.368L65.6727 600.378L66.8708 600.456ZM60.7654 612.351L61.529 613.276L61.5365 613.269L60.7654 612.351ZM55.0634 615.488L54.6954 614.347L54.6954 614.347L55.0634 615.488ZM48.5706 616.334L48.5011 617.532L48.5138 617.532L48.5706 616.334ZM36.7617 610.215L35.8195 610.959L35.8263 610.968L35.8332 610.976L36.7617 610.215ZM33.694 603.928L32.5212 604.186L32.5247 604.202L32.5286 604.218L33.694 603.928ZM33.5556 596.074L32.3707 595.881L32.3692 595.89L32.3679 595.899L33.5556 596.074ZM42.8895 577.889L43.7645 578.71L43.7678 578.706L42.8895 577.889ZM49.7102 572.572L50.2477 573.644L50.2589 573.638L49.7102 572.572ZM56.7481 570.511L56.6764 569.314L56.6642 569.315L56.7481 570.511ZM40.104 598.952L38.9093 598.833L38.9067 598.859L38.9052 598.886L40.104 598.952ZM40.5336 602.867L39.3816 603.206L39.3816 603.206L40.5336 602.867ZM42.2528 606.262L41.2965 606.988L41.3137 607.011L41.3319 607.032L42.2528 606.262ZM48.9211 609.673L48.8498 610.87L48.8605 610.871L48.8712 610.871L48.9211 609.673ZM52.7484 609.115L53.1455 610.246L53.1455 610.246L52.7484 609.115ZM56.1204 607.144L55.3543 606.221L55.3459 606.228L55.3377 606.235L56.1204 607.144ZM59.9242 599.733L58.7295 599.615L58.7269 599.641L58.7254 599.668L59.9242 599.733ZM59.589 595.788L60.7409 595.449L60.7409 595.449L59.589 595.788ZM57.7755 592.423L56.8192 593.149L56.8363 593.171L56.8545 593.193L57.7755 592.423ZM51.1072 589.012L51.0359 590.209L51.0466 590.21L51.0574 590.21L51.1072 589.012ZM47.3742 589.54L47.7713 590.671L47.7713 590.671L47.3742 589.54ZM43.9079 591.541L43.1418 590.618L43.1335 590.625L43.1253 590.632L43.9079 591.541ZM63.3348 572.45C65.1904 572.974 66.8976 573.394 68.4549 573.708L68.9314 571.357C67.4461 571.058 65.7996 570.653 63.9905 570.142L63.3348 572.45ZM68.4888 573.714C70.0396 573.981 71.3872 574.194 72.5295 574.353L72.8627 571.977C71.753 571.823 70.4318 571.614 68.8975 571.35L68.4888 573.714ZM72.5533 574.356C73.9158 574.518 75.1627 574.616 76.2914 574.648L76.3622 572.251C75.3198 572.221 74.1461 572.129 72.8389 571.974L72.5533 574.356ZM75.1281 573.52L75.5271 580.407L77.9244 580.266L77.5255 573.379L75.1281 573.52ZM76.7381 579.137C75.7551 579.128 74.5949 579.038 73.2518 578.863L72.9384 581.241C74.3481 581.425 75.6084 581.525 76.7134 581.536L76.7381 579.137ZM73.233 578.861C72.0727 578.727 70.6567 578.519 68.9813 578.234L68.5764 580.599C70.2781 580.888 71.7397 581.104 72.9571 581.244L73.233 578.861ZM69.0123 578.24C67.3815 577.919 65.4737 577.46 63.2856 576.86L62.6484 579.173C64.875 579.783 66.8418 580.258 68.5455 580.593L69.0123 578.24ZM63.2823 576.859C59.8199 575.921 56.5464 575.93 53.5015 576.95L54.263 579.224C56.7921 578.377 59.5751 578.34 62.6517 579.174L63.2823 576.859ZM53.5012 576.95C50.4799 577.963 47.8484 580.1 45.5823 583.229L47.5275 584.634C49.5828 581.796 51.8363 580.037 54.2633 579.224L53.5012 576.95ZM46.0069 584.999L46.1315 585.063L47.2275 582.928L47.1028 582.864L46.0069 584.999ZM47.1386 585.103C48.1692 584.676 49.2826 584.379 50.4833 584.217L50.1628 581.84C48.7705 582.028 47.4548 582.376 46.2204 582.887L47.1386 585.103ZM50.4868 584.216C51.5035 584.076 52.6699 584.064 53.9942 584.195L54.2329 581.808C52.7618 581.662 51.4011 581.669 50.1593 581.84L50.4868 584.216ZM53.9801 584.194C55.2535 584.335 56.5813 584.747 57.968 585.456L59.064 583.321C57.4593 582.5 55.8521 581.988 54.247 581.81L53.9801 584.194ZM57.968 585.456C59.673 586.328 61.106 587.537 62.2753 589.095L64.1971 587.656C62.8121 585.81 61.0982 584.362 59.064 583.321L57.968 585.456ZM62.2966 589.123C63.543 590.687 64.4552 592.418 65.0373 594.324L67.3342 593.622C66.6638 591.427 65.6096 589.427 64.1758 587.628L62.2966 589.123ZM65.0373 594.324C65.6175 596.223 65.8326 598.235 65.6734 600.368L68.0681 600.544C68.2481 598.133 68.0065 595.823 67.3342 593.622L65.0373 594.324ZM65.6727 600.378C65.536 602.435 64.9668 604.45 63.9498 606.431L66.0865 607.524C67.2432 605.271 67.909 602.939 68.0688 600.535L65.6727 600.378ZM63.9498 606.431C62.9329 608.413 61.6143 610.075 59.9943 611.432L61.5365 613.269C63.4132 611.697 64.9297 609.778 66.0865 607.524L63.9498 606.431ZM60.0018 611.426C58.3886 612.755 56.6215 613.726 54.6954 614.347L55.4314 616.63C57.6539 615.913 59.6881 614.792 61.529 613.276L60.0018 611.426ZM54.6954 614.347C52.7631 614.97 50.743 615.234 48.6274 615.136L48.5138 617.532C50.9067 617.643 53.2152 617.344 55.4314 616.63L54.6954 614.347ZM48.64 615.137C46.6225 615.022 44.6713 614.486 42.7778 613.517L41.6818 615.652C43.8599 616.766 46.1358 617.397 48.5011 617.532L48.64 615.137ZM42.7778 613.517C40.7584 612.484 39.0669 611.13 37.6902 609.454L35.8332 610.976C37.4264 612.916 39.3803 614.475 41.6818 615.652L42.7778 613.517ZM37.7039 609.471C36.3487 607.759 35.4007 605.819 34.8594 603.639L32.5286 604.218C33.1503 606.722 34.2474 608.973 35.8195 610.959L37.7039 609.471ZM34.8668 603.671C34.385 601.476 34.3341 599.007 34.7433 596.248L32.3679 595.899C31.9243 598.889 31.9658 601.657 32.5212 604.186L34.8668 603.671ZM34.7405 596.267C35.184 593.562 36.19 590.657 37.7871 587.545L35.6504 586.452C33.9658 589.734 32.863 592.879 32.3707 595.881L34.7405 596.267ZM37.7871 587.545C39.6687 583.879 41.6652 580.943 43.7645 578.71L42.0144 577.069C39.722 579.508 37.6047 582.645 35.6504 586.452L37.7871 587.545ZM43.7678 578.706C45.9107 576.408 48.0729 574.733 50.2477 573.644L49.1728 571.5C46.6876 572.745 44.3026 574.615 42.0112 577.072L43.7678 578.706ZM50.2589 573.638C52.4839 572.495 54.6728 571.86 56.832 571.707L56.6642 569.315C54.1422 569.493 51.6392 570.232 49.1616 571.506L50.2589 573.638ZM56.8198 571.708C59.0646 571.572 61.2279 571.819 63.3167 572.445L64.0086 570.147C61.6422 569.438 59.1958 569.161 56.6764 569.314L56.8198 571.708ZM40.2681 594.318C39.522 595.771 39.0649 597.278 38.9093 598.833L41.2988 599.07C41.4226 597.832 41.787 596.614 42.4048 595.411L40.2681 594.318ZM38.9052 598.886C38.8213 600.389 38.9772 601.831 39.3816 603.206L41.6856 602.528C41.3637 601.434 41.2331 600.266 41.3029 599.017L38.9052 598.886ZM39.3816 603.206C39.7862 604.58 40.4258 605.843 41.2965 606.988L43.2091 605.536C42.5139 604.622 42.0074 603.621 41.6856 602.528L39.3816 603.206ZM41.3319 607.032C42.2799 608.164 43.411 609.067 44.7185 609.736L45.8145 607.601C44.7954 607.08 43.9173 606.379 43.1737 605.492L41.3319 607.032ZM44.7185 609.736C46.0261 610.405 47.4062 610.786 48.8498 610.87L48.9924 608.476C47.8897 608.411 46.8335 608.122 45.8145 607.601L44.7185 609.736ZM48.8712 610.871C50.3532 610.932 51.781 610.725 53.1455 610.246L52.3512 607.983C51.2845 608.358 50.1609 608.523 48.9709 608.475L48.8712 610.871ZM53.1455 610.246C54.5103 609.767 55.7636 609.032 56.903 608.053L55.3377 606.235C54.4123 607.03 53.4177 607.609 52.3512 607.983L53.1455 610.246ZM56.8865 608.067C58.1132 607.051 59.1021 605.802 59.8545 604.337L57.7178 603.244C57.1062 604.435 56.318 605.423 55.3543 606.221L56.8865 608.067ZM59.8545 604.337C60.6066 602.871 61.0361 601.356 61.1231 599.799L58.7254 599.668C58.6587 600.862 58.3295 602.052 57.7178 603.244L59.8545 604.337ZM61.119 599.852C61.2726 598.316 61.1516 596.844 60.7409 595.449L58.437 596.127C58.7527 597.2 58.8552 598.359 58.7295 599.615L61.119 599.852ZM60.7409 595.449C60.3301 594.053 59.6455 592.785 58.6964 591.652L56.8545 593.193C57.597 594.079 58.1214 595.055 58.437 596.127L60.7409 595.449ZM58.7318 591.697C57.839 590.523 56.7258 589.594 55.4041 588.918L54.3081 591.054C55.313 591.568 56.1461 592.264 56.8192 593.149L58.7318 591.697ZM55.4041 588.918C54.0826 588.242 52.6625 587.875 51.1571 587.814L51.0574 590.21C52.2238 590.258 53.303 590.539 54.3081 591.054L55.4041 588.918ZM51.1785 587.815C49.7449 587.731 48.3414 587.93 46.9771 588.408L47.7713 590.671C48.8382 590.297 49.9234 590.144 51.0359 590.209L51.1785 587.815ZM46.9771 588.408C45.6138 588.887 44.3353 589.629 43.1418 590.618L44.674 592.464C45.671 591.638 46.7034 591.046 47.7713 590.671L46.9771 588.408ZM43.1253 590.632C41.9641 591.63 41.014 592.865 40.2681 594.318L42.4048 595.411C43.0228 594.207 43.787 593.226 44.6906 592.45L43.1253 590.632Z" fill="black"/>
<path d="M100.373 628.156L101.07 629.133L101.879 628.555L101.464 627.653L100.373 628.156ZM96.1443 630.231L96.5013 631.376L96.5115 631.373L96.1443 630.231ZM91.2404 631.097L91.1493 629.9L91.1493 629.9L91.2404 631.097ZM78.6077 627.152L77.8462 628.08L77.8548 628.087L77.8635 628.094L78.6077 627.152ZM74.235 622.056L73.1779 622.625L73.1864 622.641L73.1953 622.656L74.235 622.056ZM72.1978 615.658L71.0054 615.796L71.0067 615.807L71.0081 615.818L72.1978 615.658ZM75.9516 602.462L75.0237 601.701L75.0158 601.711L75.9516 602.462ZM81.034 598.154L81.6182 599.202L81.6261 599.198L81.6338 599.193L81.034 598.154ZM87.2348 596.056L87.391 597.245L87.4036 597.244L87.2348 596.056ZM100.069 599.548L99.3202 600.487L99.3296 600.494L99.3391 600.502L100.069 599.548ZM104.114 604.26L103.056 604.828L103.065 604.845L103.075 604.862L104.114 604.26ZM105.997 610.178L104.802 610.298L104.804 610.31L104.805 610.322L105.997 610.178ZM104.958 618.178L103.847 617.725L103.822 617.787L103.804 617.851L104.958 618.178ZM104.585 619.236L105.625 619.834L105.656 619.78L105.681 619.724L104.585 619.236ZM104.114 620.122L103.786 621.276L104.764 621.553L105.199 620.634L104.114 620.122ZM79.1962 613.058L79.5245 611.904L78.1617 611.518L78.0034 612.925L79.1962 613.058ZM79.3927 616.461L78.222 616.726L78.2265 616.746L78.2318 616.766L79.3927 616.461ZM80.8009 619.697L79.7864 620.339L79.8041 620.367L79.8233 620.394L80.8009 619.697ZM83.4009 622.326L82.68 623.286L82.6963 623.298L82.713 623.31L83.4009 622.326ZM91.0975 624.435L90.9895 623.24L90.9895 623.24L91.0975 624.435ZM94.5013 623.727L94.134 622.585L94.1126 622.592L94.0915 622.599L94.5013 623.727ZM97.6733 622.298L98.7635 621.795L98.2056 620.584L97.0594 621.267L97.6733 622.298ZM99.0077 612.49L98.6794 613.644L100.122 614.053L100.206 612.556L99.0077 612.49ZM97.5574 606.331L96.5277 606.948L96.5327 606.956L96.5379 606.965L97.5574 606.331ZM85.6371 602.952L86.1548 604.034L86.1636 604.029L86.1724 604.025L85.6371 602.952ZM80.8241 607.335L79.8163 606.684L78.935 608.047L80.4958 608.489L80.8241 607.335ZM99.677 627.179C98.5722 627.967 97.2764 628.607 95.777 629.089L96.5115 631.373C98.2167 630.824 99.7403 630.08 101.07 629.133L99.677 627.179ZM95.7873 629.086C94.5108 629.485 92.9695 629.761 91.1493 629.9L91.3314 632.293C93.281 632.143 95.0089 631.842 96.5013 631.376L95.7873 629.086ZM91.1493 629.9C89.4417 630.032 87.4552 629.795 85.172 629.148L84.5154 631.456C86.9914 632.158 89.2693 632.451 91.3314 632.293L91.1493 629.9ZM85.172 629.148C82.9817 628.527 81.0457 627.547 79.3519 626.21L77.8635 628.094C79.815 629.634 82.0364 630.753 84.5154 631.456L85.172 629.148ZM79.3691 626.224C77.6643 624.827 76.3035 623.237 75.2747 621.456L73.1953 622.656C74.3769 624.703 75.9312 626.511 77.8462 628.08L79.3691 626.224ZM75.2921 621.487C74.317 619.676 73.6801 617.682 73.3875 615.498L71.0081 615.818C71.3368 618.272 72.058 620.545 73.1779 622.625L75.2921 621.487ZM73.3902 615.52C73.1433 613.376 73.3268 611.214 73.9497 609.024L71.6406 608.37C70.9357 610.848 70.7209 613.327 71.0054 615.796L73.3902 615.52ZM73.9497 609.024C74.5863 606.786 75.5686 604.855 76.8875 603.212L75.0158 601.711C73.4795 603.624 72.3575 605.85 71.6406 608.37L73.9497 609.024ZM76.8795 603.222C78.2765 601.519 79.8564 600.184 81.6182 599.202L80.4498 597.107C78.4057 598.247 76.5974 599.783 75.0238 601.701L76.8795 603.222ZM81.6338 599.193C83.4114 598.167 85.3274 597.518 87.391 597.245L87.0785 594.867C84.706 595.18 82.4881 595.93 80.4342 597.116L81.6338 599.193ZM87.4036 597.244C89.5071 596.943 91.6206 597.091 93.7547 597.696L94.4114 595.388C91.966 594.695 89.5139 594.519 87.0659 594.868L87.4036 597.244ZM93.7547 597.696C95.9059 598.306 97.7551 599.24 99.3202 600.487L100.818 598.61C98.9811 597.147 96.8398 596.076 94.4114 595.388L93.7547 597.696ZM99.3391 600.502C100.922 601.712 102.157 603.153 103.056 604.828L105.172 603.692C104.105 601.705 102.642 600.005 100.799 598.595L99.3391 600.502ZM103.075 604.862C104.027 606.507 104.604 608.315 104.802 610.298L107.191 610.058C106.961 607.749 106.283 605.611 105.153 603.659L103.075 604.862ZM104.805 610.322C105.044 612.309 104.866 614.373 104.254 616.523L106.563 617.178C107.254 614.75 107.468 612.366 107.189 610.034L104.805 610.322ZM104.254 616.523C104.123 616.983 103.987 617.383 103.847 617.725L106.07 618.631C106.249 618.191 106.413 617.706 106.563 617.178L104.254 616.523ZM103.804 617.851C103.7 618.214 103.594 618.511 103.488 618.749L105.681 619.724C105.844 619.358 105.986 618.95 106.113 618.505L103.804 617.851ZM103.544 618.639C103.341 618.991 103.169 619.316 103.03 619.609L105.199 620.634C105.303 620.415 105.444 620.149 105.625 619.834L103.544 618.639ZM104.443 618.967L79.5245 611.904L78.8679 614.212L103.786 621.276L104.443 618.967ZM78.0034 612.925C77.8612 614.19 77.9355 615.459 78.222 616.726L80.5635 616.195C80.3343 615.182 80.2776 614.182 80.389 613.191L78.0034 612.925ZM78.2318 616.766C78.5657 618.038 79.0844 619.23 79.7864 620.339L81.8154 619.055C81.2454 618.155 80.8253 617.189 80.5537 616.155L78.2318 616.766ZM79.8233 620.394C80.5945 621.476 81.5504 622.439 82.68 623.286L84.1218 621.366C83.1721 620.654 82.3946 619.865 81.7785 619.001L79.8233 620.394ZM82.713 623.31C83.8844 624.128 85.2077 624.74 86.6716 625.155L87.3282 622.847C86.0983 622.498 85.0222 621.994 84.0888 621.342L82.713 623.31ZM86.6716 625.155C88.2292 625.597 89.7437 625.763 91.2055 625.63L90.9895 623.24C89.8613 623.343 88.6441 623.22 87.3282 622.847L86.6716 625.155ZM91.2055 625.63C92.5787 625.505 93.8187 625.251 94.9111 624.854L94.0915 622.599C93.2356 622.911 92.2064 623.13 90.9895 623.24L91.2055 625.63ZM94.8685 624.868C96.0746 624.48 97.2149 623.967 98.2872 623.328L97.0594 621.267C96.1456 621.811 95.1712 622.251 94.134 622.585L94.8685 624.868ZM96.5831 622.8L99.2832 628.659L101.464 627.653L98.7635 621.795L96.5831 622.8ZM100.206 612.556C100.35 610.003 99.8219 607.699 98.577 605.697L96.5379 606.965C97.4901 608.496 97.929 610.298 97.8093 612.423L100.206 612.556ZM98.5872 605.713C97.3181 603.596 95.3075 602.19 92.6877 601.447L92.031 603.756C94.1704 604.362 95.6252 605.442 96.5277 606.948L98.5872 605.713ZM92.6877 601.447C89.9126 600.661 87.3521 600.756 85.1019 601.878L86.1724 604.025C87.7668 603.23 89.6879 603.092 92.031 603.756L92.6877 601.447ZM85.1195 601.87C82.9847 602.891 81.2198 604.514 79.8163 606.684L81.832 607.986C83.0267 606.139 84.4704 604.84 86.1548 604.034L85.1195 601.87ZM80.4958 608.489L98.6794 613.644L99.336 611.335L81.1525 606.181L80.4958 608.489Z" fill="black"/>
<path d="M115.848 602.885L115.939 601.688L114.742 601.598L114.652 602.795L115.848 602.885ZM122.828 603.411L124.025 603.502L124.115 602.305L122.919 602.215L122.828 603.411ZM122.469 608.158L121.272 608.068L121.182 609.264L122.379 609.354L122.469 608.158ZM122.539 608.163L122.448 609.36L123.058 609.406L123.453 608.94L122.539 608.163ZM125.537 605.651L126.155 606.68L126.169 606.672L126.182 606.663L125.537 605.651ZM129.239 604.035L129.587 605.184L129.587 605.184L129.239 604.035ZM140.301 605.361L139.716 606.409L139.726 606.415L139.737 606.42L140.301 605.361ZM144.982 609.364L144.025 610.088L144.036 610.103L144.048 610.118L144.982 609.364ZM147.985 615.137L146.838 615.489L146.841 615.499L146.845 615.51L147.985 615.137ZM146.929 629.097L145.857 628.556L145.852 628.566L145.847 628.577L146.929 629.097ZM143.086 634.423L142.263 633.55L142.261 633.551L143.086 634.423ZM137.855 637.679L138.253 638.81L138.265 638.806L138.276 638.802L137.855 637.679ZM126.725 637.26L126.179 638.329L126.193 638.336L126.209 638.344L126.725 637.26ZM123.308 635.107L122.542 636.032L122.547 636.036L123.308 635.107ZM120.722 632.174L121.743 631.544L121.422 631.024L120.812 630.978L120.722 632.174ZM120.652 632.169L120.742 630.973L119.546 630.882L119.455 632.079L120.652 632.169ZM119.183 651.574L119.093 652.77L120.289 652.861L120.38 651.664L119.183 651.574ZM112.203 651.047L111.006 650.957L110.916 652.154L112.113 652.244L112.203 651.047ZM121.995 624.619L120.845 624.959L120.852 624.983L120.86 625.007L121.995 624.619ZM123.9 628.202L122.952 628.938L122.971 628.962L122.99 628.985L123.9 628.202ZM126.942 630.678L126.359 631.727L126.383 631.74L126.407 631.752L126.942 630.678ZM134.83 631.273L135.213 632.41L135.223 632.407L135.233 632.403L134.83 631.273ZM138.21 629.281L137.406 628.391L137.405 628.392L138.21 629.281ZM140.633 626.024L139.561 625.484L139.557 625.493L139.552 625.503L140.633 626.024ZM141.293 617.299L140.142 617.639L140.149 617.664L140.157 617.688L141.293 617.299ZM139.388 613.716L138.44 614.452L138.458 614.476L138.478 614.498L139.388 613.716ZM136.346 611.24L135.762 612.289L135.786 612.302L135.811 612.314L136.346 611.24ZM128.458 610.645L128.841 611.782L128.852 611.779L128.862 611.775L128.458 610.645ZM125.079 612.637L124.274 611.746L124.273 611.747L125.079 612.637ZM122.656 615.894L121.585 615.353L121.58 615.363L121.575 615.372L122.656 615.894ZM115.758 604.082L122.738 604.608L122.919 602.215L115.939 601.688L115.758 604.082ZM121.632 603.321L121.272 608.068L123.666 608.248L124.025 603.502L121.632 603.321ZM122.379 609.354L122.448 609.36L122.629 606.967L122.56 606.961L122.379 609.354ZM123.453 608.94C124.184 608.08 125.081 607.325 126.155 606.68L124.919 604.623C123.64 605.391 122.538 606.311 121.624 607.386L123.453 608.94ZM126.182 606.663C127.049 606.11 128.175 605.611 129.587 605.184L128.892 602.887C127.334 603.359 125.992 603.937 124.891 604.64L126.182 606.663ZM129.587 605.184C130.898 604.787 132.464 604.64 134.308 604.779L134.489 602.385C132.424 602.23 130.551 602.385 128.892 602.887L129.587 605.184ZM134.308 604.779C136.227 604.923 138.026 605.465 139.716 606.409L140.886 604.313C138.894 603.201 136.758 602.557 134.489 602.385L134.308 604.779ZM139.737 606.42C141.426 607.319 142.853 608.538 144.025 610.088L145.939 608.64C144.559 606.816 142.865 605.366 140.865 604.302L139.737 606.42ZM144.048 610.118C145.27 611.633 146.203 613.418 146.838 615.489L149.133 614.785C148.416 612.448 147.347 610.385 145.916 608.611L144.048 610.118ZM146.845 615.51C147.514 617.556 147.766 619.757 147.587 622.126L149.98 622.307C150.181 619.651 149.901 617.132 149.126 614.763L146.845 615.51ZM147.587 622.126C147.407 624.496 146.827 626.634 145.857 628.556L148 629.637C149.123 627.411 149.779 624.963 149.98 622.307L147.587 622.126ZM145.847 628.577C144.907 630.531 143.71 632.185 142.263 633.55L143.909 635.296C145.586 633.714 146.951 631.817 148.01 629.617L145.847 628.577ZM142.261 633.551C140.867 634.87 139.261 635.87 137.434 636.555L138.276 638.802C140.399 638.007 142.28 636.836 143.91 635.294L142.261 633.551ZM137.457 636.547C135.643 637.185 133.777 637.431 131.848 637.286L131.667 639.679C133.925 639.849 136.124 639.56 138.253 638.81L137.457 636.547ZM131.848 637.286C130.004 637.147 128.478 636.766 127.241 636.177L126.209 638.344C127.773 639.089 129.602 639.523 131.667 639.679L131.848 637.286ZM127.271 636.192C125.924 635.503 124.864 634.83 124.068 634.179L122.547 636.036C123.514 636.828 124.732 637.59 126.179 638.329L127.271 636.192ZM124.073 634.183C123.109 633.384 122.336 632.504 121.743 631.544L119.701 632.805C120.442 634.005 121.393 635.08 122.542 636.031L124.073 634.183ZM120.812 630.978L120.742 630.973L120.561 633.366L120.631 633.371L120.812 630.978ZM119.455 632.079L117.987 651.483L120.38 651.664L121.848 632.259L119.455 632.079ZM119.274 650.377L112.294 649.851L112.113 652.244L119.093 652.77L119.274 650.377ZM113.4 651.137L117.045 602.975L114.652 602.795L111.006 650.957L113.4 651.137ZM120.364 620.073C120.234 621.786 120.39 623.418 120.845 624.959L123.146 624.279C122.782 623.043 122.647 621.705 122.757 620.254L120.364 620.073ZM120.86 625.007C121.359 626.468 122.055 627.782 122.952 628.938L124.849 627.466C124.126 626.535 123.551 625.46 123.131 624.23L120.86 625.007ZM122.99 628.985C123.944 630.094 125.069 631.009 126.359 631.727L127.526 629.629C126.48 629.048 125.577 628.312 124.811 627.42L122.99 628.985ZM126.407 631.752C127.768 632.43 129.226 632.826 130.772 632.942L130.953 630.549C129.708 630.455 128.552 630.139 127.478 629.604L126.407 631.752ZM130.772 632.942C132.318 633.059 133.802 632.885 135.213 632.41L134.447 630.136C133.36 630.502 132.199 630.643 130.953 630.549L130.772 632.942ZM135.233 632.403C136.67 631.89 137.935 631.148 139.015 630.171L137.405 628.392C136.575 629.143 135.588 629.728 134.427 630.143L135.233 632.403ZM139.014 630.172C140.138 629.157 141.038 627.945 141.713 626.546L139.552 625.503C139.006 626.633 138.291 627.592 137.406 628.391L139.014 630.172ZM141.704 626.565C142.441 625.106 142.869 623.506 143 621.78L140.606 621.6C140.498 623.038 140.145 624.328 139.561 625.484L141.704 626.565ZM143 621.78C143.13 620.055 142.947 618.427 142.428 616.911L140.157 617.688C140.559 618.862 140.715 620.161 140.606 621.6L143 621.78ZM142.444 616.959C141.991 615.424 141.279 614.075 140.298 612.934L138.478 614.498C139.217 615.358 139.776 616.398 140.142 617.639L142.444 616.959ZM140.336 612.98C139.412 611.79 138.255 610.851 136.881 610.166L135.811 612.314C136.872 612.843 137.743 613.555 138.44 614.452L140.336 612.98ZM136.93 610.192C135.603 609.453 134.152 609.029 132.591 608.911L132.41 611.304C133.641 611.397 134.754 611.728 135.762 612.289L136.93 610.192ZM132.591 608.911C131.03 608.793 129.515 608.994 128.055 609.515L128.862 611.775C130 611.369 131.179 611.212 132.41 611.304L132.591 608.911ZM128.076 609.508C126.667 609.983 125.398 610.732 124.274 611.746L125.883 613.527C126.769 612.727 127.753 612.149 128.841 611.782L128.076 609.508ZM124.273 611.747C123.195 612.723 122.303 613.932 121.585 615.353L123.727 616.435C124.33 615.241 125.052 614.279 125.884 613.526L124.273 611.747ZM121.575 615.372C120.891 616.788 120.493 618.361 120.364 620.073L122.757 620.254C122.867 618.802 123.199 617.528 123.736 616.415L121.575 615.372Z" fill="black"/>
<path d="M170.584 589.308L170.951 590.45L170.96 590.447L170.968 590.444L170.584 589.308ZM175.429 587.481L175.9 588.585L175.916 588.578L175.931 588.571L175.429 587.481ZM179.085 585.738L179.622 586.811L179.633 586.806L179.643 586.8L179.085 585.738ZM182.237 583.919L183.185 583.183L182.51 582.314L181.586 582.91L182.237 583.919ZM186.474 589.371L187.144 590.366L188.21 589.649L187.421 588.635L186.474 589.371ZM183.322 591.19L182.776 590.121L182.768 590.125L182.759 590.129L183.322 591.19ZM179.406 593.108L179.881 594.21L179.896 594.203L179.91 594.197L179.406 593.108ZM173.824 595.241L173.43 594.107L173.427 594.108L173.824 595.241ZM166.381 600.438L165.422 599.716L165.422 599.717L166.381 600.438ZM163.661 609.401L162.462 609.372L162.429 610.77L163.816 610.591L163.661 609.401ZM163.8 609.383L163.955 610.573L164.505 610.502L164.807 610.037L163.8 609.383ZM166.253 606.525L167.059 607.414L167.062 607.412L166.253 606.525ZM169.36 604.359L168.794 603.301L168.787 603.304L168.781 603.307L169.36 604.359ZM179.924 603.628L179.541 604.765L179.557 604.771L179.574 604.776L179.924 603.628ZM189.772 611.53L188.736 612.135L188.741 612.144L189.772 611.53ZM191.493 624.789L192.646 625.12L192.649 625.111L191.493 624.789ZM188.576 630.601L187.625 629.869L187.625 629.869L188.576 630.601ZM183.708 634.972L184.33 635.998L184.341 635.991L183.708 634.972ZM170.509 636.608L170.155 637.754L170.165 637.757L170.176 637.76L170.509 636.608ZM164.415 633.161L163.595 634.037L163.607 634.048L163.619 634.059L164.415 633.161ZM159.844 626.764L158.758 627.275L158.762 627.283L158.766 627.292L159.844 626.764ZM157.214 606.494L158.4 606.675L158.401 606.67L157.214 606.494ZM159.815 598.252L160.866 598.832L160.872 598.821L159.815 598.252ZM164.443 592.572L163.704 591.626L163.695 591.633L164.443 592.572ZM166.871 625.432L165.819 626.01L165.832 626.033L165.846 626.056L166.871 625.432ZM169.446 628.416L168.69 629.347L168.69 629.347L169.446 628.416ZM172.789 630.243L172.413 631.382L172.44 631.391L172.467 631.399L172.789 630.243ZM180.217 629.282L180.838 630.31L180.847 630.304L180.856 630.298L180.217 629.282ZM183.053 626.657L184.022 627.365L184.022 627.365L183.053 626.657ZM184.712 623.125L183.557 622.798L183.555 622.808L183.552 622.819L184.712 623.125ZM183.64 614.864L182.589 615.443L182.602 615.466L182.616 615.488L183.64 614.864ZM181.125 611.801L181.882 610.87L181.882 610.87L181.125 611.801ZM177.722 610.053L177.346 611.193L177.373 611.202L177.401 611.209L177.722 610.053ZM170.294 611.014L170.915 612.041L170.924 612.036L170.933 612.03L170.294 611.014ZM167.519 613.561L168.488 614.269L168.488 614.269L167.519 613.561ZM165.799 617.171L164.644 616.844L164.641 616.854L164.638 616.865L165.799 617.171ZM170.968 590.444C172.795 589.827 174.439 589.207 175.9 588.585L174.958 586.377C173.565 586.971 171.979 587.569 170.199 588.171L170.968 590.444ZM175.931 588.571C177.36 587.913 178.591 587.327 179.622 586.811L178.548 584.665C177.547 585.165 176.34 585.74 174.927 586.391L175.931 588.571ZM179.643 586.8C180.857 586.163 181.94 585.539 182.888 584.927L181.586 582.91C180.71 583.476 179.692 584.064 178.527 584.675L179.643 586.8ZM181.29 584.655L185.526 590.107L187.421 588.635L183.185 583.183L181.29 584.655ZM185.804 588.375C184.989 588.923 183.982 589.506 182.776 590.121L183.867 592.259C185.133 591.613 186.228 590.983 187.144 590.366L185.804 588.375ZM182.759 590.129C181.728 590.676 180.444 591.306 178.902 592.019L179.91 594.197C181.476 593.473 182.802 592.824 183.884 592.25L182.759 590.129ZM178.931 592.006C177.405 592.663 175.573 593.364 173.43 594.107L174.218 596.375C176.398 595.618 178.287 594.897 179.881 594.21L178.931 592.006ZM173.427 594.108C170.042 595.294 167.352 597.153 165.422 599.716L167.34 601.16C168.942 599.031 171.214 597.427 174.221 596.374L173.427 594.108ZM165.422 599.717C163.508 602.26 162.553 605.511 162.462 609.372L164.861 609.43C164.944 605.928 165.802 603.203 167.34 601.16L165.422 599.717ZM163.816 610.591L163.955 610.573L163.646 608.193L163.507 608.211L163.816 610.591ZM164.807 610.037C165.414 609.102 166.162 608.227 167.059 607.414L165.447 605.636C164.407 606.579 163.52 607.61 162.793 608.73L164.807 610.037ZM167.062 607.412C167.82 606.721 168.774 606.051 169.939 605.41L168.781 603.307C167.487 604.019 166.369 604.794 165.444 605.638L167.062 607.412ZM169.926 605.417C171.056 604.813 172.383 604.401 173.928 604.202L173.619 601.822C171.831 602.053 170.217 602.539 168.794 603.301L169.926 605.417ZM173.928 604.202C175.827 603.956 177.694 604.142 179.541 604.765L180.307 602.491C178.119 601.753 175.885 601.529 173.619 601.822L173.928 604.202ZM179.574 604.776C181.488 605.36 183.222 606.271 184.782 607.513L186.276 605.635C184.479 604.205 182.475 603.152 180.274 602.48L179.574 604.776ZM184.782 607.513C186.338 608.75 187.657 610.287 188.736 612.135L190.809 610.926C189.589 608.837 188.079 607.069 186.276 605.635L184.782 607.513ZM188.741 612.144C189.796 613.917 190.47 615.9 190.757 618.109L193.137 617.801C192.811 615.289 192.036 612.99 190.804 610.917L188.741 612.144ZM190.757 618.109C191.043 620.317 190.901 622.433 190.336 624.468L192.649 625.111C193.303 622.753 193.463 620.313 193.137 617.801L190.757 618.109ZM190.339 624.459C189.764 626.467 188.86 628.267 187.625 629.869L189.527 631.334C190.951 629.486 191.991 627.412 192.646 625.12L190.339 624.459ZM187.625 629.869C186.387 631.475 184.873 632.836 183.075 633.952L184.341 635.991C186.375 634.729 188.107 633.177 189.527 631.334L187.625 629.869ZM183.086 633.945C181.359 634.992 179.447 635.654 177.338 635.926L177.647 638.306C180.073 637.993 182.305 637.225 184.33 635.998L183.086 633.945ZM177.338 635.926C175.088 636.217 172.927 636.058 170.842 635.455L170.176 637.76C172.589 638.458 175.083 638.638 177.647 638.306L177.338 635.926ZM170.863 635.461C168.775 634.816 166.893 633.753 165.21 632.263L163.619 634.059C165.552 635.771 167.733 637.006 170.155 637.754L170.863 635.461ZM165.234 632.285C163.592 630.748 162.149 628.742 160.921 626.236L158.766 627.292C160.097 630.007 161.702 632.266 163.595 634.037L165.234 632.285ZM160.929 626.253C159.76 623.772 158.94 620.808 158.49 617.34L156.11 617.647C156.584 621.306 157.46 624.522 158.758 627.275L160.929 626.253ZM158.49 617.34C157.96 613.253 157.938 609.704 158.4 606.675L156.027 606.312C155.523 609.62 155.559 613.403 156.11 617.647L158.49 617.34ZM158.401 606.67C158.862 603.564 159.693 600.96 160.866 598.832L158.764 597.672C157.423 600.104 156.52 602.995 156.027 606.317L158.401 606.67ZM160.872 598.821C162.056 596.619 163.499 594.858 165.191 593.511L163.695 591.633C161.719 593.207 160.076 595.232 158.758 597.683L160.872 598.821ZM165.181 593.518C166.953 592.136 168.875 591.116 170.951 590.45L170.217 588.165C167.865 588.919 165.693 590.075 163.704 591.626L165.181 593.518ZM164.377 621.519C164.587 623.14 165.065 624.64 165.819 626.01L167.922 624.853C167.322 623.763 166.931 622.553 166.757 621.212L164.377 621.519ZM165.846 626.056C166.629 627.342 167.576 628.443 168.69 629.347L170.203 627.485C169.317 626.765 168.547 625.877 167.895 624.808L165.846 626.056ZM168.69 629.347C169.803 630.252 171.046 630.931 172.413 631.382L173.165 629.103C172.073 628.743 171.088 628.204 170.203 627.485L168.69 629.347ZM172.467 631.399C173.89 631.795 175.335 631.9 176.791 631.712L176.482 629.332C175.347 629.478 174.226 629.397 173.11 629.087L172.467 631.399ZM176.791 631.712C178.248 631.523 179.601 631.056 180.838 630.31L179.596 628.255C178.651 628.825 177.617 629.185 176.482 629.332L176.791 631.712ZM180.856 630.298C182.111 629.51 183.17 628.532 184.022 627.365L182.084 625.949C181.417 626.861 180.586 627.633 179.578 628.266L180.856 630.298ZM184.022 627.365C184.874 626.198 185.49 624.883 185.873 623.432L183.552 622.819C183.241 623.998 182.75 625.037 182.084 625.949L184.022 627.365ZM185.867 623.452C186.301 621.921 186.407 620.332 186.195 618.698L183.815 619.006C183.987 620.334 183.898 621.594 183.557 622.798L185.867 623.452ZM186.195 618.698C185.983 617.065 185.477 615.573 184.665 614.24L182.616 615.488C183.239 616.511 183.642 617.678 183.815 619.006L186.195 618.698ZM184.692 614.286C183.947 612.933 183.012 611.788 181.882 610.87L180.369 612.733C181.238 613.439 181.98 614.336 182.589 615.443L184.692 614.286ZM181.882 610.87C180.751 609.952 179.468 609.294 178.044 608.897L177.401 611.209C178.515 611.52 179.501 612.027 180.369 612.733L181.882 610.87ZM178.098 608.914C176.696 608.451 175.253 608.316 173.78 608.506L174.089 610.886C175.209 610.741 176.29 610.844 177.346 611.193L178.098 608.914ZM173.78 608.506C172.308 608.696 170.93 609.197 169.655 609.998L170.933 612.03C171.921 611.409 172.969 611.031 174.089 610.886L173.78 608.506ZM169.673 609.987C168.445 610.728 167.402 611.686 166.55 612.853L168.488 614.269C169.154 613.357 169.961 612.617 170.915 612.041L169.673 609.987ZM166.55 612.853C165.698 614.018 165.066 615.353 164.644 616.844L166.954 617.498C167.306 616.253 167.821 615.182 168.488 614.269L166.55 612.853ZM164.638 616.865C164.248 618.344 164.166 619.9 164.377 621.519L166.757 621.212C166.583 619.87 166.656 618.629 166.959 617.478L164.638 616.865Z" fill="black"/>
<path d="M193.115 601.28L192.741 600.14L191.046 600.694L192.199 602.054L193.115 601.28ZM200.434 598.886L201.367 598.133L200.846 597.488L200.059 597.746L200.434 598.886ZM217.055 619.448L216.121 620.201L216.642 620.845L217.429 620.588L217.055 619.448ZM217.188 619.404L217.562 620.544L218.349 620.287L218.387 619.46L217.188 619.404ZM218.397 593.01L218.023 591.87L217.236 592.128L217.198 592.955L218.397 593.01ZM225.716 590.617L226.914 590.686L227.014 588.929L225.341 589.476L225.716 590.617ZM223.423 630.769L224.621 630.841L224.621 630.838L223.423 630.769ZM221.076 640.006L220.033 639.412L220.026 639.425L220.019 639.438L221.076 640.006ZM213.035 645.361L212.908 644.168L212.874 644.172L212.839 644.178L213.035 645.361ZM211.418 645.596L211.412 646.795L211.487 646.796L211.561 646.787L211.418 645.596ZM209.846 645.521L208.706 645.894L208.949 646.635L209.725 646.714L209.846 645.521ZM207.772 639.202L207.948 638.016L206.026 637.73L206.632 639.575L207.772 639.202ZM209.078 639.364L208.957 640.558L209.06 640.568L209.164 640.561L209.078 639.364ZM210.429 639.217L210.368 638.019L210.317 638.021L210.265 638.028L210.429 639.217ZM215.092 636.587L214.098 635.913L214.081 635.938L214.065 635.964L215.092 636.587ZM216.328 632.721L215.13 632.644L215.13 632.644L216.328 632.721ZM216.567 628.961L217.765 629.038L217.796 628.555L217.483 628.186L216.567 628.961ZM193.489 602.42L200.808 600.026L200.059 597.746L192.741 600.14L193.489 602.42ZM199.5 599.639L216.121 620.201L217.988 618.694L201.367 598.133L199.5 599.639ZM217.429 620.588L217.562 620.544L216.813 618.264L216.68 618.308L217.429 620.588ZM218.387 619.46L219.596 593.066L217.198 592.955L215.989 619.348L218.387 619.46ZM218.771 594.151L226.09 591.757L225.341 589.476L218.023 591.87L218.771 594.151ZM224.517 590.547L222.224 630.7L224.621 630.838L226.914 590.686L224.517 590.547ZM222.225 630.697C222.007 634.389 221.252 637.27 220.033 639.412L222.12 640.6C223.58 638.036 224.39 634.759 224.621 630.841L222.225 630.697ZM220.019 639.438C218.889 641.539 217.169 642.968 214.789 643.746L215.538 646.026C218.481 645.064 220.702 643.239 222.134 640.574L220.019 639.438ZM214.789 643.746C214.101 643.971 213.475 644.108 212.908 644.168L213.162 646.554C213.925 646.474 214.718 646.294 215.538 646.026L214.789 643.746ZM212.839 644.178C212.246 644.275 211.725 644.351 211.275 644.404L211.561 646.787C212.056 646.728 212.613 646.647 213.232 646.545L212.839 644.178ZM211.424 644.396C210.861 644.393 210.377 644.369 209.967 644.327L209.725 646.714C210.23 646.766 210.793 646.792 211.412 646.795L211.424 644.396ZM210.987 645.148L208.913 638.829L206.632 639.575L208.706 645.894L210.987 645.148ZM207.597 640.389C208.03 640.453 208.483 640.509 208.957 640.558L209.199 638.171C208.758 638.126 208.341 638.074 207.948 638.016L207.597 640.389ZM209.164 640.561C209.582 640.531 210.059 640.479 210.593 640.405L210.265 638.028C209.766 638.097 209.342 638.143 208.991 638.168L209.164 640.561ZM210.49 640.415C211.142 640.382 211.802 640.252 212.466 640.034L211.717 637.754C211.228 637.914 210.78 637.998 210.368 638.019L210.49 640.415ZM212.466 640.034C214.044 639.518 215.287 638.579 216.118 637.21L214.065 635.964C213.557 636.801 212.801 637.4 211.717 637.754L212.466 640.034ZM216.085 637.261C216.952 635.984 217.419 634.481 217.526 632.798L215.13 632.644C215.046 633.97 214.688 635.044 214.098 635.913L216.085 637.261ZM217.526 632.798L217.765 629.038L215.369 628.884L215.13 632.644L217.526 632.798ZM217.483 628.186L194.031 600.505L192.199 602.054L215.651 629.735L217.483 628.186Z" fill="black"/>
<path d="M238.077 614.794L237.681 613.661L236.343 614.127L237.024 615.369L238.077 614.794ZM238.882 614.513L238.602 613.347L238.543 613.361L238.485 613.381L238.882 614.513ZM242.365 612.131L241.362 611.47L241.354 611.483L241.346 611.496L242.365 612.131ZM242.906 609.042L241.71 609.141L241.711 609.152L241.712 609.163L242.906 609.042ZM241.453 603.774L240.329 604.195L240.333 604.206L240.338 604.217L241.453 603.774ZM232.793 586.968L232.216 585.916L231.163 586.492L231.74 587.544L232.793 586.968ZM255.518 574.545L256.571 573.969L255.994 572.917L254.941 573.492L255.518 574.545ZM271.679 604.003L272.256 605.055L273.309 604.479L272.732 603.427L271.679 604.003ZM265.537 607.361L264.484 607.936L265.061 608.988L266.114 608.413L265.537 607.361ZM252.575 583.733L253.628 583.157L253.051 582.105L251.998 582.681L252.575 583.733ZM242.133 589.441L241.556 588.389L240.503 588.964L241.08 590.016L242.133 589.441ZM248.674 603.256L247.532 603.624L247.534 603.632L247.537 603.64L248.674 603.256ZM250.188 610.965L251.389 610.98L251.389 610.98L250.188 610.965ZM248.846 616.086L249.833 616.77L249.842 616.757L249.851 616.744L248.846 616.086ZM242.488 620.36L242.214 619.192L242.183 619.199L242.153 619.208L242.488 620.36ZM241.276 620.624L240.223 621.2L240.623 621.929L241.446 621.811L241.276 620.624ZM238.473 615.926C238.742 615.833 239.01 615.739 239.278 615.646L238.485 613.381C238.217 613.474 237.949 613.568 237.681 613.661L238.473 615.926ZM239.161 615.68C239.788 615.53 240.392 615.294 240.972 614.977L239.818 612.873C239.415 613.093 239.01 613.25 238.602 613.347L239.161 615.68ZM240.972 614.977C241.987 614.423 242.807 613.69 243.384 612.765L241.346 611.496C241.016 612.024 240.524 612.488 239.818 612.873L240.972 614.977ZM243.368 612.791C244.071 611.726 244.249 610.382 244.101 608.922L241.712 609.163C241.83 610.322 241.647 611.038 241.362 611.47L243.368 612.791ZM244.103 608.944C243.974 607.399 243.441 605.516 242.568 603.33L240.338 604.217C241.173 606.309 241.609 607.939 241.71 609.141L244.103 608.944ZM242.577 603.353C241.735 601.115 240.39 598.322 238.559 594.985L236.453 596.136C238.259 599.427 239.544 602.109 240.329 604.195L242.577 603.353ZM238.559 594.985L233.846 586.393L231.74 587.544L236.453 596.136L238.559 594.985ZM233.37 588.02L256.096 575.597L254.941 573.492L232.216 585.916L233.37 588.02ZM254.466 575.12L270.626 604.579L272.732 603.427L256.571 573.969L254.466 575.12ZM271.102 602.951L264.96 606.309L266.114 608.413L272.256 605.055L271.102 602.951ZM266.59 606.785L253.628 583.157L251.522 584.308L264.484 607.936L266.59 606.785ZM251.998 582.681L241.556 588.389L242.71 590.493L253.152 584.785L251.998 582.681ZM241.08 590.016L242.595 592.778L244.701 591.627L243.186 588.865L241.08 590.016ZM242.595 592.778C244.932 597.038 246.57 600.65 247.532 603.624L249.817 602.889C248.791 599.717 247.078 595.959 244.701 591.627L242.595 592.778ZM247.537 603.64C248.549 606.625 249.011 609.05 248.988 610.949L251.389 610.98C251.417 608.704 250.869 605.99 249.812 602.872L247.537 603.64ZM248.988 610.949C248.964 612.88 248.552 614.345 247.842 615.429L249.851 616.744C250.879 615.175 251.362 613.226 251.389 610.98L248.988 610.949ZM247.859 615.403C247.081 616.524 246.043 617.448 244.72 618.171L245.875 620.275C247.5 619.387 248.828 618.219 249.833 616.77L247.859 615.403ZM244.72 618.171C243.762 618.695 242.929 619.025 242.214 619.192L242.762 621.528C243.746 621.298 244.786 620.87 245.875 620.275L244.72 618.171ZM242.153 619.208C241.789 619.313 241.44 619.389 241.105 619.437L241.446 621.811C241.901 621.746 242.36 621.646 242.823 621.512L242.153 619.208ZM242.329 620.048L239.13 614.218L237.024 615.369L240.223 621.2L242.329 620.048Z" fill="black"/>
<path d="M275.388 594.121L274.784 593.085L273.559 593.797L274.464 594.886L275.388 594.121ZM276.125 593.692L275.628 592.601L275.572 592.626L275.52 592.656L276.125 593.692ZM279.09 590.69L277.98 590.233L277.974 590.247L277.969 590.261L279.09 590.69ZM279.034 587.556L277.878 587.88L277.881 587.891L277.884 587.901L279.034 587.556ZM276.603 582.661L275.58 583.288L275.586 583.298L275.592 583.308L276.603 582.661ZM264.898 567.815L264.131 566.892L263.207 567.657L263.974 568.58L264.898 567.815ZM284.842 551.291L285.767 550.526L284.999 549.603L284.075 550.368L284.842 551.291ZM306.322 577.129L307.089 578.051L308.013 577.286L307.246 576.363L306.322 577.129ZM300.932 581.594L300.008 582.36L300.775 583.283L301.699 582.517L300.932 581.594ZM283.703 560.871L284.627 560.105L283.86 559.182L282.936 559.948L283.703 560.871ZM274.539 568.462L273.772 567.54L272.848 568.305L273.615 569.228L274.539 568.462ZM283.594 580.778L282.542 581.356L282.547 581.364L282.551 581.371L283.594 580.778ZM286.55 588.055L287.731 587.842L287.731 587.842L286.55 588.055ZM286.208 593.338L287.307 593.821L287.314 593.807L287.32 593.792L286.208 593.338ZM280.78 598.744L280.288 597.65L280.259 597.663L280.231 597.677L280.78 598.744ZM279.64 599.234L278.716 600L279.247 600.639L280.033 600.367L279.64 599.234ZM275.993 595.157C276.239 595.014 276.484 594.871 276.73 594.728L275.52 592.656C275.274 592.799 275.029 592.942 274.784 593.085L275.993 595.157ZM276.622 594.784C277.209 594.518 277.757 594.171 278.266 593.749L276.732 591.904C276.378 592.197 276.01 592.427 275.628 592.601L276.622 594.784ZM278.266 593.749C279.156 593.012 279.822 592.137 280.212 591.119L277.969 590.261C277.746 590.842 277.351 591.391 276.732 591.904L278.266 593.749ZM280.201 591.147C280.688 589.968 280.608 588.615 280.184 587.21L277.884 587.901C278.22 589.017 278.178 589.754 277.98 590.233L280.201 591.147ZM280.19 587.231C279.769 585.739 278.887 583.993 277.613 582.013L275.592 583.308C276.811 585.203 277.55 586.719 277.878 587.88L280.19 587.231ZM277.626 582.033C276.373 579.998 274.52 577.512 272.087 574.585L270.239 576.116C272.639 579.003 274.412 581.39 275.58 583.288L277.626 582.033ZM272.087 574.585L265.822 567.049L263.974 568.58L270.239 576.116L272.087 574.585ZM265.665 568.737L285.61 552.214L284.075 550.368L264.131 566.892L265.665 568.737ZM283.918 552.057L305.398 577.894L307.246 576.363L285.767 550.526L283.918 552.057ZM305.555 576.206L300.165 580.672L301.699 582.517L307.089 578.051L305.555 576.206ZM301.856 580.829L284.627 560.105L282.779 561.636L300.008 582.36L301.856 580.829ZM282.936 559.948L273.772 567.54L275.307 569.385L284.47 561.793L282.936 559.948ZM273.615 569.228L275.629 571.65L277.477 570.119L275.464 567.697L273.615 569.228ZM275.629 571.65C278.735 575.387 281.031 578.62 282.542 581.356L284.646 580.199C283.034 577.281 280.636 573.919 277.477 570.119L275.629 571.65ZM282.551 581.371C284.113 584.107 285.029 586.4 285.368 588.269L287.731 587.842C287.325 585.602 286.27 583.043 284.637 580.184L282.551 581.371ZM285.368 588.269C285.713 590.169 285.587 591.685 285.096 592.884L287.32 593.792C288.03 592.056 288.132 590.051 287.731 587.842L285.368 588.269ZM285.108 592.855C284.558 594.104 283.715 595.208 282.554 596.17L284.088 598.016C285.515 596.834 286.596 595.435 287.307 593.821L285.108 592.855ZM282.554 596.17C281.713 596.867 280.958 597.35 280.288 597.65L281.272 599.838C282.194 599.425 283.133 598.808 284.088 598.016L282.554 596.17ZM280.231 597.677C279.894 597.85 279.566 597.991 279.246 598.101L280.033 600.367C280.467 600.217 280.899 600.031 281.328 599.811L280.231 597.677ZM280.564 598.469L276.312 593.355L274.464 594.886L278.716 600L280.564 598.469Z" fill="black"/>
<path d="M295.599 539.673L296.356 538.742L295.423 537.986L294.666 538.918L295.599 539.673ZM312.898 553.682L312.141 554.613L313.074 555.369L313.83 554.437L312.898 553.682ZM312.986 553.573L313.919 554.329L314.288 553.874L314.156 553.303L312.986 553.573ZM306.635 526.092L305.703 525.337L305.333 525.791L305.465 526.362L306.635 526.092ZM310.609 521.203L311.365 520.271L310.433 519.516L309.676 520.447L310.609 521.203ZM336.72 542.349L337.653 543.104L338.41 542.172L337.477 541.417L336.72 542.349ZM332.306 547.781L331.549 548.712L332.481 549.467L333.238 548.536L332.306 547.781ZM315.007 533.772L315.763 532.841L314.831 532.085L314.074 533.017L315.007 533.772ZM314.918 533.88L313.986 533.125L313.616 533.58L313.748 534.15L314.918 533.88ZM321.269 561.362L322.202 562.117L322.571 561.662L322.439 561.092L321.269 561.362ZM317.296 566.251L316.539 567.182L317.472 567.938L318.228 567.006L317.296 566.251ZM291.184 545.105L290.252 544.35L289.495 545.281L290.428 546.037L291.184 545.105ZM294.842 540.604L312.141 554.613L313.655 552.751L296.356 538.742L294.842 540.604ZM313.83 554.437L313.919 554.329L312.054 552.818L311.965 552.927L313.83 554.437ZM314.156 553.303L307.806 525.822L305.465 526.362L311.816 553.843L314.156 553.303ZM307.568 526.847L311.541 521.958L309.676 520.447L305.703 525.337L307.568 526.847ZM309.852 522.134L335.963 543.28L337.477 541.417L311.365 520.271L309.852 522.134ZM335.788 541.593L331.373 547.026L333.238 548.536L337.653 543.104L335.788 541.593ZM333.062 546.85L315.763 532.841L314.25 534.703L331.549 548.712L333.062 546.85ZM314.074 533.017L313.986 533.125L315.851 534.636L315.939 534.527L314.074 533.017ZM313.748 534.15L320.099 561.632L322.439 561.092L316.089 533.611L313.748 534.15ZM320.336 560.607L316.363 565.496L318.228 567.006L322.202 562.117L320.336 560.607ZM318.053 565.32L291.941 544.174L290.428 546.037L316.539 567.182L318.053 565.32ZM292.117 545.861L296.531 540.428L294.666 538.918L290.252 544.35L292.117 545.861Z" fill="black"/>
</g>
</g>
<defs>
<filter id="filter0_f_127_923" x="-1.35179" y="-872.861" width="1470.83" height="1432.78" filterUnits="userSpaceOnUse" color-interpolation-filters="sRGB">
<feFlood flood-opacity="0" result="BackgroundImageFix"/>
<feBlend mode="normal" in="SourceGraphic" in2="BackgroundImageFix" result="shape"/>
<feGaussianBlur stdDeviation="150" result="effect1_foregroundBlur_127_923"/>
</filter>
<filter id="filter1_f_127_923" x="-992.706" y="-137.132" width="1507.57" height="1469.85" filterUnits="userSpaceOnUse" color-interpolation-filters="sRGB">
<feFlood flood-opacity="0" result="BackgroundImageFix"/>
<feBlend mode="normal" in="SourceGraphic" in2="BackgroundImageFix" result="shape"/>
<feGaussianBlur stdDeviation="165" result="effect1_foregroundBlur_127_923"/>
</filter>
</defs>
</svg>
