<svg width="100" height="100" viewBox="0 0 100 100" fill="none" xmlns="http://www.w3.org/2000/svg">
<path d="M0 46.3834C0 24.5181 0 13.5854 6.7927 6.7927C13.5854 0 24.5181 0 46.3834 0H53.6166C75.4819 0 86.4146 0 93.2073 6.7927C100 13.5854 100 24.5181 100 46.3834V53.6166C100 75.4819 100 86.4146 93.2073 93.2073C86.4146 100 75.4819 100 53.6166 100H46.3834C24.5181 100 13.5854 100 6.7927 93.2073C0 86.4146 0 75.4819 0 53.6166V46.3834Z" fill="#0077FF"/>
<path d="M53.4063 72C29.3142 72 15.5726 55.4835 15 28H27.068C27.4644 48.1722 36.3612 56.7167 43.4082 58.4784V28H54.7719V45.3973C61.7309 44.6486 69.0414 36.7207 71.5078 28H82.8715C80.9776 38.7468 73.0497 46.6746 67.412 49.9339C73.0497 52.5765 82.0792 59.4915 85.5146 72H73.0057C70.319 63.6316 63.6248 57.1571 54.7719 56.2762V72H53.4063Z" fill="white"/>
</svg>
