<svg width="82" height="82" viewBox="0 0 82 82" fill="none" xmlns="http://www.w3.org/2000/svg">
<path fill-rule="evenodd" clip-rule="evenodd" d="M40.5597 3C29.5151 3 19.2298 8.14354 12.225 16.2526C11.6438 16.9254 12.5245 18.1157 13.4011 17.9668V17.9668C16.0338 17.5195 19.2815 17.6697 22.8816 18.319C26.1166 18.9024 29.7011 19.9009 33.4802 21.2918C34.459 21.6521 35.5323 21.0343 35.7174 20.0078V20.0078C36.1975 17.3442 36.7777 15.1021 37.4468 13.4914C37.7784 12.6929 38.1661 11.9647 38.6339 11.411C39.0869 10.8749 39.8017 10.2906 40.7797 10.2906C41.7588 10.2906 42.4733 10.8761 42.9253 11.4134C43.3918 11.9678 43.7772 12.6967 44.1063 13.4952C44.7702 15.1061 45.3437 17.3482 45.8173 20.0112V20.0112C45.9966 21.0193 47.0515 21.6258 48.011 21.2684C51.8832 19.8265 55.5542 18.7895 58.8609 18.1818C62.4905 17.5147 65.762 17.3495 68.4112 17.7856V17.7856C69.1397 17.9055 69.7633 16.9962 69.28 16.438C62.169 8.22459 51.6955 3 40.5597 3ZM47.6502 27.952C47.1123 27.6444 46.7541 27.0799 46.6919 26.4633V26.4633C46.6075 25.6259 47.0786 24.8421 47.8626 24.536C52.0304 22.9089 55.9503 21.7672 59.4032 21.1326C62.8439 20.5002 65.7403 20.3866 67.924 20.746C70.1331 21.1096 71.3559 21.9059 71.8994 22.8473C72.1028 23.1995 72.2406 23.6233 72.2915 24.1252C72.3456 24.6585 72.3016 25.2801 72.1341 25.9978C72.0387 26.4061 71.9034 26.8456 71.7234 27.3176C70.9379 29.3775 69.3844 31.8152 67.1081 34.4656C66.7994 34.825 66.4785 35.1872 66.1456 35.5517C64.4071 37.4549 61.4785 37.4653 59.4531 35.8709C56.0611 33.2008 52.2142 30.586 48.0222 28.1657C47.8982 28.0941 47.7742 28.0229 47.6502 27.952ZM41.7165 23.8953C42.6373 23.4704 43.1891 22.4962 43.0266 21.4952C42.9735 21.1684 42.9192 20.8487 42.8637 20.5365C42.4051 17.9582 41.8768 15.9587 41.3326 14.6383V14.6383C41.1095 14.0969 40.4419 14.1013 40.2173 14.6421V14.6421C39.6688 15.9627 39.1345 17.9622 38.6698 20.54C38.6113 20.8645 38.5541 21.1971 38.4982 21.5374C38.3362 22.525 38.8713 23.4826 39.7809 23.9001V23.9001C40.3887 24.179 41.1094 24.1755 41.7165 23.8953V23.8953ZM37.4462 31.1818C37.5222 30.0175 38.2115 28.9713 39.249 28.4373V28.4373C40.1982 27.9487 41.3034 27.9492 42.2532 28.4367V28.4367C43.2978 28.973 43.9946 30.0284 44.0695 31.2002C44.2602 34.1823 44.3656 37.398 44.3656 40.7543C44.3656 44.1144 44.26 47.3337 44.0689 50.3186C43.9942 51.4855 43.3044 52.5347 42.2654 53.0709V53.0709C41.3126 53.5626 40.2053 53.5635 39.2521 53.0729V53.0729C38.213 52.5381 37.5222 51.49 37.4461 50.3239C37.2512 47.3375 37.1431 44.1163 37.1431 40.7543C37.1431 37.3911 37.2512 34.169 37.4462 31.1818ZM33.6701 24.5701C34.4462 24.8704 34.9129 25.6459 34.8281 26.4737V26.4737C34.766 27.0799 34.4135 27.6345 33.8844 27.9369C33.7517 28.0128 33.6189 28.089 33.4862 28.1657C29.3123 30.5755 25.4754 33.1731 22.082 35.8245C20.0492 37.4128 17.1165 37.3867 15.394 35.4662C15.1359 35.1784 14.8854 34.8921 14.6426 34.6075C12.3974 31.9758 10.8684 29.5535 10.0992 27.5048C9.32208 25.4349 9.40135 23.9876 9.94709 23.0423C10.4939 22.0951 11.7142 21.2963 13.9035 20.9244C16.0695 20.5565 18.9402 20.6565 22.3492 21.2714C25.7402 21.8829 29.5845 22.9892 33.6701 24.5701ZM26.5608 36.211C29.8083 33.8627 34.1501 36.4765 34.1434 40.484C34.1432 40.574 34.1431 40.6641 34.1431 40.7543C34.1431 40.8445 34.1432 40.9346 34.1434 41.0246C34.1502 45.0322 29.8081 47.6462 26.5613 45.2969C26.1349 44.9883 25.7149 44.6788 25.3014 44.3685C22.8671 42.5415 22.8694 38.9618 25.3046 37.136C25.7169 36.8268 26.1357 36.5184 26.5608 36.211ZM34.8299 55.0528C34.7666 54.4356 34.4076 53.8706 33.869 53.5626C33.7414 53.4897 33.6138 53.4164 33.4862 53.3427C29.3052 50.9288 25.4638 48.3273 22.0727 45.6737C20.0422 44.0847 17.1126 44.1061 15.3823 46.0176C15.0554 46.3788 14.7401 46.7378 14.4367 47.094C12.1687 49.7576 10.6221 52.2091 9.84149 54.28C9.54421 55.0686 9.3699 55.7669 9.29714 56.3813C9.24914 56.7868 9.24536 57.1558 9.27963 57.4901C9.33136 57.9946 9.46975 58.4201 9.67357 58.7731C10.216 59.7126 11.4323 60.5024 13.6332 60.856C15.8098 61.2057 18.6978 61.0791 22.1312 60.4331C25.5789 59.7843 29.4945 58.6275 33.6602 56.9881C34.4454 56.6791 34.916 55.8922 34.8299 55.0528V55.0528ZM35.7174 61.5007C35.5363 60.4964 34.4833 59.8944 33.528 60.2535C29.657 61.7083 25.989 62.76 22.686 63.3815C19.0653 64.0629 15.8015 64.2431 13.1573 63.8183V63.8183C12.3882 63.6947 11.7144 64.6647 12.2236 65.2543C19.2285 73.3642 29.5144 78.5084 40.5597 78.5084C51.6145 78.5084 62.0167 73.3595 69.1245 65.249C69.683 64.6116 68.8832 63.4983 68.0471 63.637V63.637C65.4194 64.073 62.1794 63.9078 58.5882 63.2443C55.3618 62.6481 51.786 61.6373 48.0146 60.2369C47.0531 59.8799 45.9969 60.4876 45.8173 61.4973V61.4973C45.3437 64.1604 44.7702 66.4025 44.1063 68.0133C43.7772 68.8118 43.3918 69.5407 42.9253 70.0951C42.4733 70.6324 41.7588 71.2179 40.7797 71.2179C39.8017 71.2179 39.0869 70.6336 38.6339 70.0975C38.1661 69.5438 37.7784 68.8157 37.4468 68.0172C36.7777 66.4064 36.1975 64.1643 35.7174 61.5007V61.5007ZM43.0289 59.9989C43.19 59.0057 42.652 58.0435 41.7383 57.6224V57.6224C41.1241 57.3394 40.401 57.3399 39.7874 57.6242V57.6242C38.8751 58.0469 38.34 59.0096 38.5032 60.0016C38.5575 60.3313 38.613 60.6537 38.6698 60.9685C39.1345 63.5463 39.6688 65.5458 40.2173 66.8664V66.8664C40.4419 67.4072 41.1095 67.4117 41.3326 66.8702V66.8702C41.8768 65.5498 42.4051 63.5503 42.8637 60.972C42.92 60.6552 42.9751 60.3307 43.0289 59.9989ZM46.692 55.044C46.6077 55.8808 47.0788 56.6641 47.8625 56.9693C51.9317 58.5545 55.758 59.6705 59.1333 60.2942C62.535 60.9227 65.3972 61.0357 67.5561 60.6775C69.7372 60.3156 70.951 59.5233 71.4967 58.578C72.0436 57.6308 72.1252 56.1747 71.3527 54.0927C70.5883 52.0329 69.0663 49.5969 66.8294 46.952C66.5916 46.6709 66.3463 46.388 66.0937 46.1038C64.3795 44.1747 61.4454 44.1375 59.4074 45.7206C56.0156 48.3554 52.1847 50.9397 48.0222 53.3429C47.8976 53.4148 47.773 53.4864 47.6484 53.5577C47.1114 53.8648 46.7541 54.4285 46.692 55.044V55.044ZM47.3654 41.0347C47.3585 45.0395 51.6978 47.6499 54.9477 45.3097C55.3689 45.0064 55.784 44.7022 56.1929 44.3972C58.6324 42.5774 58.6472 38.9979 56.2177 37.1649C55.798 36.8483 55.3715 36.5325 54.9384 36.2178C51.698 33.8636 47.3586 36.4714 47.3654 40.4768C47.3655 40.5692 47.3656 40.6617 47.3656 40.7543C47.3656 40.8478 47.3655 40.9413 47.3654 41.0347ZM75.6418 26.6362C75.5278 26.3658 75.1156 26.4184 75.0485 26.7041V26.7041C74.9172 27.2625 74.7407 27.8252 74.5265 28.3868C73.5723 30.8891 71.7844 33.6255 69.384 36.4205C69.2017 36.6327 69.0155 36.8457 68.8255 37.0593C66.9265 39.195 66.9112 42.4561 68.7805 44.6178C68.8951 44.7504 69.0083 44.8827 69.12 45.0147C71.4824 47.8079 73.2362 50.5453 74.1653 53.049V53.049C74.4843 53.9087 75.9715 54.0945 76.287 53.2335C77.7194 49.3256 78.5084 45.1256 78.5084 40.7542C78.5084 35.7652 77.4806 30.9994 75.6418 26.6362ZM12.6978 44.5195C14.5873 42.3753 14.5899 39.114 12.7107 36.9606C12.5923 36.825 12.4755 36.6897 12.3603 36.5546C9.99 33.7762 8.22692 31.0529 7.29066 28.5592V28.5592C6.96852 27.7012 5.44662 27.516 5.13912 28.3793C3.7581 32.2567 3 36.4206 3 40.7542C3 45.1672 3.7861 49.4041 5.21554 53.3416C5.49645 54.1154 6.74393 53.9919 7.0343 53.2216V53.2216C7.9813 50.7092 9.76006 47.9586 12.1526 45.1489C12.3306 44.9397 12.5124 44.7299 12.6978 44.5195ZM0 40.7542C0 18.2353 18.8967 0 40.5597 0C62.2036 0 81.5084 18.2163 81.5084 40.7542C81.5084 63.2921 62.2036 81.5084 40.5597 81.5084C18.8967 81.5084 0 63.2731 0 40.7542ZM40.5108 13.2245C40.5108 13.2248 40.5139 13.2272 40.5201 13.2311C40.5139 13.2261 40.5108 13.2242 40.5108 13.2245ZM41.037 13.2321C41.0433 13.2283 41.0464 13.2258 41.0464 13.2255C41.0464 13.2253 41.0432 13.2272 41.037 13.2321ZM41.0464 68.283C41.0464 68.2827 41.0433 68.2802 41.037 68.2764C41.0432 68.2813 41.0464 68.2832 41.0464 68.283ZM40.5201 68.2774C40.5139 68.2813 40.5108 68.2837 40.5108 68.284C40.5108 68.2843 40.5139 68.2824 40.5201 68.2774Z" fill="#4F4F4F"/>
</svg>
