<svg width="83" height="83" viewBox="0 0 83 83" fill="none" xmlns="http://www.w3.org/2000/svg">
<path fill-rule="evenodd" clip-rule="evenodd" d="M3.38776 40.7208C3.38776 20.1148 20.7254 3.38776 40.5275 3.38776C60.3512 3.38776 78.0539 20.1361 78.0539 40.7208C78.0539 61.3055 60.3512 78.0539 40.5275 78.0539C20.7254 78.0539 3.38776 61.3268 3.38776 40.7208ZM40.5275 0C18.8795 0 0 18.2188 0 40.7208C0 63.2228 18.8795 81.4416 40.5275 81.4416C62.1538 81.4416 81.4416 63.2441 81.4416 40.7208C81.4416 18.1975 62.1538 0 40.5275 0ZM40.6532 34.3957C44.1091 34.3957 46.9106 37.1972 46.9106 40.6531C46.9106 44.1089 44.1091 46.9106 40.6532 46.9106C37.1974 46.9106 34.3959 44.1089 34.3959 40.6531C34.3959 38.307 35.6871 36.2625 37.5976 35.1913C37.6029 35.1884 37.6088 35.1867 37.6148 35.1867H37.6346C37.643 35.1867 37.65 35.18 37.65 35.1715C37.65 35.1657 37.653 35.1607 37.6579 35.158C38.5476 34.672 39.5681 34.3957 40.6532 34.3957ZM30.3682 38.19C30.9324 38.19 31.4206 37.797 31.6186 37.2687C31.9699 36.3316 31.342 35.1867 30.3412 35.1867H24.0461C23.3269 35.1867 22.6871 35.6465 22.5215 36.3462C22.2938 37.3087 23.0606 38.19 24.0495 38.19H30.3682ZM31.8263 44.5464C31.1204 42.9486 29.7179 41.5778 27.9712 41.5778H23.8285C22.8572 41.5778 22.077 42.4037 22.2171 43.3646C22.3321 44.1535 23.0284 44.6955 23.8256 44.6955H26.7174C27.6529 44.6955 28.4112 45.4538 28.4112 46.3894C28.4112 47.3249 27.6529 48.0833 26.7174 48.0833H26.4914C25.1083 48.0833 24.1937 49.5007 24.9379 50.6664C28.2468 55.8492 34.049 59.2857 40.6539 59.2857C47.092 59.2857 52.7675 56.0204 56.1146 51.0555C57.0107 49.7267 55.9537 48.0833 54.3509 48.0833H53.8199C52.8844 48.0833 52.126 47.3249 52.126 46.3894C52.126 45.4538 52.8844 44.6955 53.8199 44.6955H57.4822C58.2794 44.6955 58.9757 44.1535 59.0907 43.3646C59.2308 42.4037 58.4506 41.5778 57.4795 41.5778H53.3355C51.5887 41.5778 50.1862 42.9486 49.4804 44.5464C47.984 47.934 44.5947 50.2983 40.6532 50.2983C36.7119 50.2983 33.3226 47.934 31.8263 44.5464ZM40.6532 31.008C39.54 31.008 38.4708 31.1967 37.4759 31.5436C37.0383 31.6962 36.5825 31.799 36.1192 31.799H29.9401C27.3736 31.799 25.8335 29.0725 27.6746 27.2846C31.0298 24.0265 35.6077 22.0204 40.6539 22.0204C43.2266 22.0204 45.6774 22.5418 47.9066 23.4846C50.8594 24.7337 53.4232 26.7221 55.3659 29.2179C56.2218 30.3175 55.3593 31.799 53.9656 31.799H53.8199C52.8844 31.799 52.126 32.5575 52.126 33.4929C52.126 34.4284 52.8844 35.1867 53.8199 35.1867H57.2617C57.9808 35.1867 58.6207 35.6465 58.7864 36.3462C59.014 37.3087 58.2472 38.19 57.2583 38.19H52.5922C51.0535 38.19 49.7597 37.1139 48.9822 35.786C47.3081 32.9276 44.205 31.008 40.6532 31.008ZM56.2247 25.0823C60.2096 29.0673 62.6743 34.5722 62.6743 40.6531C62.6743 52.8146 52.8154 62.6735 40.6539 62.6735C28.4924 62.6735 18.6335 52.8146 18.6335 40.6531C18.6335 28.4915 28.4924 18.6327 40.6539 18.6327C43.6942 18.6327 46.5908 19.2489 49.2253 20.3631C51.0187 21.1216 52.6908 22.111 54.2041 23.294C54.9138 23.8488 55.5887 24.4462 56.2247 25.0823ZM71.144 40.6531C70.2085 40.6531 69.4554 39.893 69.4012 38.959C68.5568 24.4045 56.9028 12.7505 42.3483 11.9061C41.4143 11.852 40.6542 11.0988 40.6542 10.1633C40.6542 9.22777 41.4134 8.46475 42.3478 8.51317C58.7743 9.36475 71.9425 22.533 72.7942 38.9595C72.8425 39.8939 72.0796 40.6531 71.144 40.6531ZM34.5326 69.5259C34.7746 68.6222 34.2353 67.698 33.3474 67.404C19.5072 62.8213 11.2666 48.5482 14.218 34.271C14.4074 33.355 13.8766 32.4257 12.973 32.1837C12.0694 31.9416 11.1358 32.4774 10.9408 33.3924C7.51186 49.4795 16.8233 65.6074 32.4696 70.6814C33.3596 70.9701 34.2903 70.4296 34.5326 69.5259Z" fill="#4F4F4F"/>
<path fill-rule="evenodd" clip-rule="evenodd" d="M3.38776 40.7208C3.38776 20.1148 20.7254 3.38776 40.5275 3.38776C60.3512 3.38776 78.0539 20.1361 78.0539 40.7208C78.0539 61.3055 60.3512 78.0539 40.5275 78.0539C20.7254 78.0539 3.38776 61.3268 3.38776 40.7208ZM40.5275 0C18.8795 0 0 18.2188 0 40.7208C0 63.2228 18.8795 81.4416 40.5275 81.4416C62.1538 81.4416 81.4416 63.2441 81.4416 40.7208C81.4416 18.1975 62.1538 0 40.5275 0ZM40.6532 34.3957C44.1091 34.3957 46.9106 37.1972 46.9106 40.6531C46.9106 44.1089 44.1091 46.9106 40.6532 46.9106C37.1974 46.9106 34.3959 44.1089 34.3959 40.6531C34.3959 38.3038 35.6907 36.2568 37.6056 35.1867H37.65V35.1624C38.5415 34.6737 39.5649 34.3957 40.6532 34.3957ZM31.3256 38.19C31.6122 37.1018 32.0841 36.0887 32.7056 35.1867H22.836C22.5387 36.1567 22.3187 37.1601 22.1827 38.19H31.3256ZM31.052 41.5778H22.0438C22.096 42.643 22.2374 43.6846 22.461 44.6955H28.4112V48.0833H23.5617C26.4316 54.6762 33.0045 59.2857 40.6539 59.2857C48.3033 59.2857 54.8762 54.6762 57.7461 48.0833H52.126V44.6955H58.8468C59.0704 43.6846 59.212 42.643 59.264 41.5778H50.2546C49.7893 46.4709 45.6683 50.2983 40.6532 50.2983C35.6383 50.2983 31.5173 46.4709 31.052 41.5778ZM40.6532 31.008C39.2917 31.008 37.996 31.2902 36.8217 31.799H24.2553C27.4059 25.9758 33.5681 22.0204 40.6539 22.0204C43.2266 22.0204 45.6774 22.5418 47.9066 23.4846C51.8172 25.1388 55.0458 28.0901 57.0525 31.799H52.126V35.1867H58.4718C58.7691 36.1567 58.9891 37.1601 59.1251 38.19H49.9811C48.8924 34.0564 45.1288 31.008 40.6532 31.008ZM56.2247 25.0823C60.2096 29.0673 62.6743 34.5722 62.6743 40.6531C62.6743 52.8146 52.8154 62.6735 40.6539 62.6735C28.4924 62.6735 18.6335 52.8146 18.6335 40.6531C18.6335 28.4915 28.4924 18.6327 40.6539 18.6327C43.6942 18.6327 46.5908 19.2489 49.2253 20.3631C51.0187 21.1216 52.6908 22.111 54.2041 23.294C54.9138 23.8488 55.5887 24.4462 56.2247 25.0823ZM69.4502 40.6531C69.4502 24.7496 56.5577 11.8571 40.6542 11.8571V8.46939C58.4288 8.46939 72.8379 22.8785 72.8379 40.6531H69.4502ZM34.9709 67.8898C19.6093 63.7736 10.493 47.9837 14.6091 32.6221L11.3368 31.7453C6.73642 48.9141 16.9252 66.5616 34.094 71.162L34.9709 67.8898Z" fill="#4F4F4F"/>
</svg>
