<svg width="80" height="80" viewBox="0 0 80 80" fill="none" xmlns="http://www.w3.org/2000/svg">
<path fill-rule="evenodd" clip-rule="evenodd" d="M40 20C39.0795 20 38.3333 19.2538 38.3333 18.3333V1.66667C38.3333 0.746192 39.0795 0 40 0C40.9205 0 41.6667 0.746192 41.6667 1.66667V18.3333C41.6667 19.2538 40.9205 20 40 20ZM80 40C80 40.9205 79.2538 41.6667 78.3333 41.6667H56.0948C51.6402 41.6667 49.4093 47.0523 52.5592 50.2022L68.3333 65.9763C68.9842 66.6272 68.9842 67.6825 68.3333 68.3333C67.6825 68.9842 66.6272 68.9842 65.9763 68.3333L43.5355 45.8927C41.583 43.94 38.4172 43.94 36.4645 45.8927L14.0237 68.3333C13.3728 68.9843 12.3176 68.9843 11.6667 68.3333C11.0158 67.6825 11.0158 66.6273 11.6667 65.9763L27.4408 50.2022C30.5907 47.0523 28.3598 41.6667 23.9053 41.6667H1.66667C0.746192 41.6667 0 40.9205 0 40C0 39.0795 0.746188 38.3333 1.66666 38.3333H23.9052C28.3598 38.3333 30.5907 32.9477 27.4408 29.7978L11.6667 14.0237C11.0158 13.3729 11.0158 12.3176 11.6667 11.6667C12.3176 11.0158 13.3729 11.0158 14.0237 11.6667L36.4645 34.1075C38.4172 36.0602 41.583 36.0602 43.5355 34.1075L65.9763 11.6667C66.6272 11.0159 67.6825 11.0159 68.3333 11.6667C68.9842 12.3176 68.9842 13.3729 68.3333 14.0238L52.5593 29.7978C49.4095 32.9477 51.6403 38.3333 56.0948 38.3333H78.3333C79.2538 38.3333 80 39.0795 80 40ZM40 60C39.0795 60 38.3333 60.7462 38.3333 61.6667V78.3333C38.3333 79.2538 39.0795 80 40 80C40.9205 80 41.6667 79.2538 41.6667 78.3333V61.6667C41.6667 60.7462 40.9205 60 40 60Z" fill="#4F4F4F"/>
<path fill-rule="evenodd" clip-rule="evenodd" d="M38.3333 20V0H41.6667V20H38.3333ZM80 41.6667H44.0237L69.5118 67.1548L67.1548 69.5118L40 42.357L12.8452 69.5118L10.4882 67.1548L35.9763 41.6667H0V38.3333H35.9763L10.4882 12.8452L12.8452 10.4882L40 37.643L67.1548 10.4882L69.5118 12.8452L44.0238 38.3333H80V41.6667ZM38.3333 60V80H41.6667V60H38.3333Z" fill="#4F4F4F"/>
</svg>
