<svg width="20" height="20" viewBox="0 0 20 20" fill="none" xmlns="http://www.w3.org/2000/svg">
<path fill-rule="evenodd" clip-rule="evenodd" d="M11.4001 2.42482C10.5338 1.92464 9.46642 1.92464 8.6001 2.42481L4.13984 4.99994C3.27352 5.50012 2.73984 6.42447 2.73984 7.42481V12.5751C2.73984 13.5754 3.27352 14.4998 4.13984 14.9999L8.6001 17.5751C9.46642 18.0752 10.5338 18.0752 11.4001 17.5751L15.8604 14.9999C16.7267 14.4998 17.2604 13.5754 17.2604 12.5751V7.42482C17.2604 6.42447 16.7267 5.50012 15.8604 4.99994L11.4001 2.42482ZM18.6604 6.61652C18.6604 5.61618 18.1267 4.69183 17.2604 4.19165L11.4001 0.808234C10.5338 0.308062 9.46642 0.308063 8.6001 0.808234L2.73984 4.19165C1.87352 4.69183 1.33984 5.61618 1.33984 6.61652V13.3834C1.33984 14.3837 1.87352 15.3081 2.73984 15.8082L8.6001 19.1917C9.46642 19.6918 10.5338 19.6918 11.4001 19.1917L17.2604 15.8082C18.1267 15.3081 18.6604 14.3837 18.6604 13.3834V6.61652Z" fill="#E8E8E5"/>
<path d="M2.03975 5.40415L10 0.808291L17.9603 5.40415V14.5959L10 19.1917L2.03975 14.5959V5.40415Z" stroke="#E8E8E5" stroke-width="1.4"/>
</svg>
