<svg width="20" height="20" viewBox="0 0 20 20" fill="none" xmlns="http://www.w3.org/2000/svg">
<path fill-rule="evenodd" clip-rule="evenodd" d="M9.30015 2.71356C9.30015 2.40564 8.96682 2.21319 8.70015 2.36715L3.84615 5.16961C3.57921 5.32372 3.57955 5.70913 3.84676 5.86278L8.70076 8.65383C8.96743 8.80716 9.30015 8.61467 9.30015 8.30707V2.71356ZM11.3002 2.36715C11.0335 2.21319 10.7002 2.40564 10.7002 2.71356V8.307C10.7002 8.6146 11.0329 8.80709 11.2995 8.65376L16.1535 5.86274C16.4207 5.7091 16.421 5.32369 16.1541 5.16957L11.3002 2.36715ZM18.665 5.99349C18.662 5.98823 18.6604 5.98226 18.6604 5.97619V5.23095C18.6604 5.08804 18.5842 4.95599 18.4604 4.88454L10.2001 0.11548C10.0764 0.0440264 9.92391 0.0440264 9.80015 0.115479L1.5399 4.88454C1.41613 4.95599 1.3399 5.08804 1.3399 5.23095V5.97592C1.3399 5.98203 1.33829 5.98803 1.33525 5.99333L1.32588 6.00962C1.32144 6.01734 1.3241 6.02719 1.33181 6.03162V6.03162C1.33681 6.0345 1.3399 6.03982 1.3399 6.04559V14.7691C1.3399 14.912 1.41613 15.044 1.5399 15.1155L9.80015 19.8845C9.92391 19.956 10.0764 19.956 10.2001 19.8845L18.4604 15.1155C18.5842 15.044 18.6604 14.912 18.6604 14.7691V6.04547C18.6604 6.03974 18.6635 6.03444 18.6684 6.03158V6.03158C18.6761 6.02717 18.6788 6.01737 18.6743 6.0097L18.665 5.99349ZM17.2604 7.53261C17.2604 7.225 16.9277 7.03251 16.661 7.18585L12.1487 9.78041C11.8769 9.9367 11.8824 10.3307 12.1585 10.4794L16.6708 12.9091C16.9373 13.0525 17.2604 12.8595 17.2604 12.5569V7.53261ZM11.3002 17.6329C11.0335 17.7868 10.7002 17.5944 10.7002 17.2865L10.7001 11.9539C10.7001 11.6512 11.0233 11.4582 11.2898 11.6017L16.0689 14.175C16.3447 14.3235 16.3505 14.717 16.0793 14.8736L11.3002 17.6329ZM7.89423 10.5018C8.16425 10.3495 8.16585 9.96119 7.89709 9.80666L3.33928 7.18592C3.07262 7.03259 2.7399 7.22508 2.7399 7.53268V12.7245C2.7399 13.0306 3.06978 13.2233 3.33642 13.0729L7.89423 10.5018ZM4.07316 14.2647C3.80342 14.4168 3.80148 14.8046 4.06969 14.9595L8.70015 17.6329C8.96682 17.7868 9.30015 17.5944 9.30015 17.2865L9.30015 12.001C9.30015 11.6949 8.97027 11.5022 8.70362 11.6526L4.07316 14.2647Z" fill="#E8E8E5"/>
<path d="M2.03975 5.40415L10 0.808291L17.9603 5.40415V14.5959L10 19.1917L2.03975 14.5959V5.40415Z" stroke="#E8E8E5" stroke-width="1.4"/>
</svg>
