<svg width="18" height="19" viewBox="0 0 18 19" fill="none" xmlns="http://www.w3.org/2000/svg">
<path d="M3.51549 1.03602L3.51549 1.03601C3.77285 0.862797 4.1219 0.931005 4.29511 1.18836L8.76768 7.83332C8.97513 8.14154 9.42866 8.14154 9.63611 7.83332L14.1087 1.18837L14.1087 1.18836C14.2819 0.931012 14.6309 0.862807 14.8883 1.03602L14.7918 1.17938L14.8883 1.03602C15.1457 1.20925 15.2139 1.5583 15.0406 1.81565L10.0757 9.19212C9.95678 9.36884 9.95679 9.59998 10.0757 9.77664L10.4229 10.2925L10.4246 10.295L10.4246 10.295L10.4251 10.2958L12.6579 13.6329L12.525 13.7219L12.6579 13.6329C12.7779 13.8121 13.0261 13.9063 13.3567 13.9013C13.681 13.8964 14.0293 13.7945 14.2707 13.6522L14.2707 13.6522C14.607 13.4539 14.999 13.3402 15.417 13.3402C16.6649 13.3402 17.6766 14.3518 17.6766 15.5998C17.6766 16.8477 16.6649 17.8593 15.417 17.8593C14.627 17.8593 13.9319 17.4538 13.5282 16.8404C13.4725 16.8275 13.4214 16.7942 13.3872 16.7429M3.51549 1.03602L9.60064 10.8448L9.60061 10.8448L9.49042 10.919M3.51549 1.03602C3.25814 1.20924 3.18993 1.55828 3.36315 1.81564L8.32809 9.19213L8.32809 9.19214C8.44704 9.36885 8.44703 9.59997 8.3281 9.77662L8.32809 9.77664L7.98086 10.2925L7.98084 10.2925L7.98001 10.2938L7.97928 10.2949L7.97874 10.2957L5.75069 13.6257C5.63288 13.8017 5.39658 13.8947 5.08441 13.8926C4.77689 13.8905 4.44538 13.7941 4.21026 13.6548L4.11475 13.8159L4.21026 13.6548C3.87307 13.4549 3.47941 13.3402 3.05957 13.3402C1.81165 13.3402 0.8 14.3518 0.8 15.5998C0.8 16.8477 1.81165 17.8593 3.05957 17.8593C3.86797 17.8593 4.577 17.4347 4.97609 16.7972C4.98449 16.7887 4.99218 16.7793 4.99902 16.7692L4.99966 16.7683L8.91313 10.9194L8.91314 10.9194L8.91409 10.9179C9.05189 10.7148 9.35124 10.7146 9.48931 10.9174L9.49042 10.919M3.51549 1.03602L9.49042 10.919M13.3872 16.7429L13.5535 16.6318L13.3873 16.743L13.3872 16.7429ZM13.3872 16.7429L9.49066 10.9194L9.49042 10.919M13.599 16.6408L13.6175 16.6686L13.599 16.6408ZM4.71695 16.8227L4.71787 16.8233C4.7188 16.8239 4.71974 16.8246 4.72068 16.8252L4.71695 16.8227ZM3.05957 14.4636C3.68706 14.4636 4.19574 14.9723 4.19574 15.5998C4.19574 16.2273 3.68706 16.7359 3.05957 16.7359C2.43208 16.7359 1.9234 16.2273 1.9234 15.5998C1.9234 14.9723 2.43208 14.4636 3.05957 14.4636ZM15.417 14.4636C16.0445 14.4636 16.5532 14.9723 16.5532 15.5998C16.5532 16.2273 16.0445 16.7359 15.417 16.7359C14.7895 16.7359 14.2809 16.2273 14.2809 15.5998C14.2809 14.9723 14.7895 14.4636 15.417 14.4636Z" fill="#E8E8E5" stroke="#E8E8E5" stroke-width="0.4"/>
<path d="M7.98086 10.2926L7.98084 10.2926L7.98001 10.2939L7.97928 10.295L7.97874 10.2958L5.09165 14.6107C4.72487 13.8586 3.95294 13.3403 3.05957 13.3403C1.81165 13.3403 0.8 14.3519 0.8 15.5998C0.8 16.8477 1.81164 17.8594 3.05957 17.8594C3.80864 17.8594 4.47238 17.4948 4.88329 16.9341L4.88702 16.9366L4.99829 16.7703L8.91313 10.9194L8.91314 10.9194L8.91416 10.9178L8.9144 10.9175L9.20189 10.4904L9.48931 10.9174L9.49042 10.9191L9.49066 10.9194L13.4055 16.7703L13.5167 16.9366L13.5696 16.9012C13.9785 17.4805 14.6534 17.8594 15.417 17.8594C16.6649 17.8594 17.6766 16.8477 17.6766 15.5998C17.6766 14.3519 16.6649 13.3403 15.417 13.3403C14.4986 13.3403 13.7084 13.8881 13.355 14.6747L10.4251 10.2959L10.4246 10.2951L10.4246 10.2951L10.4229 10.2926L9.87897 9.48442L15.2426 1.51561L15.3543 1.34969L15.1884 1.23802L14.5882 0.834082L14.4223 0.722408L14.3106 0.888325L9.20189 8.47847L4.09315 0.888334L3.98148 0.722417L3.81556 0.834092L3.21543 1.23802L3.04951 1.3497L3.16119 1.51562L8.52482 9.48442L7.98086 10.2926ZM3.05957 14.4637C3.68706 14.4637 4.19574 14.9723 4.19574 15.5998C4.19574 16.2273 3.68706 16.736 3.05957 16.736C2.43208 16.736 1.9234 16.2273 1.9234 15.5998C1.9234 14.9723 2.43208 14.4637 3.05957 14.4637ZM15.417 14.4637C16.0445 14.4637 16.5532 14.9723 16.5532 15.5998C16.5532 16.2273 16.0445 16.736 15.417 16.736C14.7895 16.736 14.2809 16.2273 14.2809 15.5998C14.2809 14.9723 14.7895 14.4637 15.417 14.4637Z" fill="#E8E8E5" stroke="#E8E8E5" stroke-width="0.4"/>
<path d="M3.05957 14.4636C3.68706 14.4636 4.19574 14.9722 4.19574 15.5997C4.19574 16.2272 3.68706 16.7359 3.05957 16.7359C2.43208 16.7359 1.9234 16.2272 1.9234 15.5997C1.9234 14.9722 2.43208 14.4636 3.05957 14.4636ZM5.31915 15.5997C5.31915 14.3518 4.3075 13.3402 3.05957 13.3402C1.81164 13.3402 0.8 14.3518 0.8 15.5997C0.8 16.8477 1.81165 17.8593 3.05957 17.8593C4.3075 17.8593 5.31915 16.8477 5.31915 15.5997ZM15.417 14.4636C16.0445 14.4636 16.5532 14.9722 16.5532 15.5997C16.5532 16.2272 16.0445 16.7359 15.417 16.7359C14.7895 16.7359 14.2808 16.2272 14.2808 15.5997C14.2808 14.9722 14.7895 14.4636 15.417 14.4636ZM17.6766 15.5997C17.6766 14.3518 16.6649 13.3402 15.417 13.3402C14.1691 13.3402 13.1574 14.3518 13.1574 15.5997C13.1574 16.8477 14.1691 17.8593 15.417 17.8593C16.6649 17.8593 17.6766 16.8477 17.6766 15.5997Z" fill="#E8E8E5" stroke="#E8E8E5" stroke-width="0.4"/>
</svg>
