<svg width="21" height="21" viewBox="0 0 21 21" fill="none" xmlns="http://www.w3.org/2000/svg">
<path fill-rule="evenodd" clip-rule="evenodd" d="M18.2427 3.24256C18.6332 2.85203 18.6332 2.21885 18.2426 1.82833C17.8521 1.4378 17.2189 1.4378 16.8284 1.82833C16.4379 2.21885 16.4379 2.85203 16.8284 3.24255C17.219 3.63308 17.8521 3.63308 18.2427 3.24256ZM19.3033 4.30322C20.2796 3.3269 20.2796 1.74398 19.3033 0.767666C18.327 -0.208649 16.7441 -0.208649 15.7678 0.767666C15.6638 0.871607 15.5709 0.982424 15.4891 1.09865C15.473 1.12159 15.4415 1.12785 15.4182 1.11229V1.11229C15.3947 1.09667 15.3631 1.103 15.3475 1.12643L11.4919 6.91007C11.1883 7.3655 10.5981 7.5115 10.0508 7.50045V7.50045C9.54832 7.4903 9.02152 7.34345 8.7326 6.93217L4.62602 1.08655C4.61918 1.07681 4.60574 1.07446 4.596 1.0813V1.0813C4.58628 1.08813 4.57289 1.0858 4.56594 1.07617C4.48811 0.96816 4.4006 0.864966 4.30341 0.767781C3.3271 -0.208534 1.74418 -0.208534 0.767863 0.767782C-0.208452 1.7441 -0.208452 3.32702 0.767863 4.30333C1.74418 5.27965 3.3271 5.27965 4.30341 4.30333V4.30333C4.51623 4.09051 4.89279 4.07572 5.0658 4.32199L7.16424 7.30908C7.66266 8.01858 7.55836 8.97928 7.50484 9.8447C7.50127 9.90255 7.49969 9.96051 7.50012 10.0185C7.50573 10.7815 7.53641 11.6088 7.10037 12.235L4.6552 15.7464C4.57416 15.8627 4.40363 15.8681 4.30335 15.7678V15.7678C3.32704 14.7915 1.74412 14.7915 0.767806 15.7678C-0.208509 16.7441 -0.208509 18.327 0.767806 19.3034C1.74412 20.2797 3.32704 20.2797 4.30336 19.3034C4.58617 19.0205 4.78706 18.6868 4.90603 18.3317C5.00843 18.026 5.11156 17.7159 5.29579 17.4513L8.25944 13.1954C8.63754 12.6524 9.36465 12.5067 10.0263 12.4998V12.4998C10.6726 12.4931 11.3825 12.6183 11.7715 13.1345L14.6155 16.9087C14.8881 17.2704 15.0017 17.7216 15.1144 18.1602C15.2221 18.579 15.4399 18.9754 15.7678 19.3034C16.7441 20.2797 18.327 20.2797 19.3034 19.3034C20.2797 18.327 20.2797 16.7441 19.3034 15.7678C18.327 14.7915 16.7441 14.7915 15.7678 15.7678V15.7678C15.728 15.8076 15.6617 15.8045 15.6278 15.7595L12.9709 12.2337C12.4975 11.6055 12.512 10.7472 12.4998 9.96068C12.4994 9.93876 12.4988 9.91685 12.4979 9.89495C12.465 9.10835 12.4003 8.25157 12.837 7.5965L15.0142 4.33063C15.1799 4.08203 15.5565 4.09195 15.7678 4.30322V4.30322C16.7441 5.27953 18.327 5.27953 19.3033 4.30322ZM3.50874 17.3048C3.51901 17.3483 3.5081 17.3937 3.48255 17.4304L3.44578 17.4832C3.41184 17.5319 3.42383 17.5989 3.47258 17.6329V17.6329C3.50569 17.6559 3.52359 17.6957 3.51557 17.7352C3.47787 17.9212 3.38691 18.0985 3.2427 18.2427C2.85217 18.6332 2.219 18.6332 1.82847 18.2427C1.43794 17.8522 1.43794 17.219 1.82847 16.8285C2.21899 16.4379 2.85217 16.4379 3.24269 16.8285C3.37883 16.9646 3.46752 17.1302 3.50874 17.3048ZM18.2427 16.8285C18.6332 17.219 18.6332 17.8522 18.2427 18.2427C17.8522 18.6332 17.219 18.6332 16.8285 18.2427C16.4379 17.8522 16.4379 17.219 16.8285 16.8285C17.219 16.4379 17.8522 16.4379 18.2427 16.8285ZM10.7072 10.7071C11.0977 10.3165 11.0977 9.68336 10.7072 9.29283C10.3166 8.9023 9.68347 8.9023 9.29294 9.29283C8.90241 9.68336 8.90241 10.3165 9.29294 10.7071C9.68347 11.0976 10.3166 11.0976 10.7072 10.7071ZM3.24275 1.82844C3.63328 2.21897 3.63328 2.85214 3.24275 3.24267C2.85222 3.6332 2.21905 3.6332 1.82852 3.24267C1.43799 2.85214 1.438 2.21897 1.82852 1.82844C2.21905 1.43791 2.85222 1.43791 3.24275 1.82844Z" fill="#E8E8E5"/>
</svg>
