<svg width="80" height="68" viewBox="0 0 80 68" fill="none" xmlns="http://www.w3.org/2000/svg">
<g clip-path="url(#clip0_2732_393)">
<path fill-rule="evenodd" clip-rule="evenodd" d="M40 -12C39.0795 -12 38.3643 -11.2248 38.0055 -10.3771C37.3727 -8.88218 35.8922 -7.83333 34.1667 -7.83333H20.8333C17.1515 -7.83333 14.1667 -4.84857 14.1667 -1.16667C14.1667 2.51523 17.1515 5.5 20.8333 5.5H34.8853C36.7897 5.5 38.3333 7.04366 38.3333 8.948V13.4208C38.3333 16.005 35.9187 17.0375 34.77 14.7227C34.5778 14.3355 34.387 13.9258 34.1978 13.494C33.637 12.2137 32.4042 11.3333 31.0063 11.3333H28.3333C12.6853 11.3333 0 24.0187 0 39.6667V64.6667C0 66.5077 1.49632 68.0158 3.33333 67.8955C16.6412 67.0233 20.211 60.8445 23.542 55.079C26.6542 49.6925 29.5577 44.6667 40 44.6667C50.4423 44.6667 53.3458 49.6925 56.458 55.079C59.789 60.8445 63.3588 67.0233 76.6667 67.8955C78.5037 68.0158 80 66.5077 80 64.6667V39.6667C80 24.0187 67.3147 11.3333 51.6667 11.3333H48.9902C47.594 11.3333 46.3623 12.2115 45.8007 13.4898C45.6147 13.913 45.4272 14.315 45.2383 14.6955C44.0875 17.0142 41.6667 15.9818 41.6667 13.3932V8.948C41.6667 5.20283 38.6305 2.16667 34.8853 2.16667H20.8333C18.9923 2.16667 17.5 0.674282 17.5 -1.16667C17.5 -3.00762 18.9923 -4.5 20.8333 -4.5H34.1667C37.7407 -4.5 40.7307 -6.99983 41.4838 -10.3463C41.6858 -11.2444 40.9205 -12 40 -12ZM73.116 64.1263C75.02 64.464 76.6667 62.9105 76.6667 60.9768V39.6667C76.6667 39.525 76.6655 39.3835 76.6632 39.2423C76.6353 37.5717 75.1985 36.3333 73.5277 36.3333H73.3333C71.4923 36.3333 70 37.8257 70 39.6667V60.9337C70 62.3842 70.9352 63.687 72.3557 63.9805C72.603 64.0315 72.8565 64.0802 73.116 64.1263ZM66.6667 61.2115C66.6667 61.5265 66.3267 61.7217 66.062 61.5513C63.346 59.803 61.7177 57.4553 60.0593 54.641C59.842 54.2723 59.6198 53.886 59.3907 53.4872C57.9755 51.0257 56.2848 48.085 53.738 45.8212C51.5848 43.9073 48.934 42.5317 45.5085 41.8402C43.619 41.4587 42.1687 39.7653 42.5952 37.8855C43.5588 33.6362 45.2647 29.741 47.6745 26.6627C50.8118 22.655 55.152 20.0057 60.7637 19.697C61.3767 19.6633 61.875 19.169 61.875 18.555C61.875 17.7492 62.7047 17.2147 63.4157 17.5938C64.1515 17.9863 64.8655 18.4147 65.5552 18.8763C66.2683 19.3537 66.6667 20.1697 66.6667 21.0278V29.6667C66.6667 31.5077 65.1743 33 63.3333 33H58.3333C57.4128 33 56.6667 33.7462 56.6667 34.6667C56.6667 35.5872 57.4128 36.3333 58.3333 36.3333H63.3333C65.1743 36.3333 66.6667 37.8257 66.6667 39.6667V61.2115ZM74.1737 28.7708C73.0188 26.3897 70 27.4423 70 30.089V30.5067C70 31.8837 71.1163 33 72.4933 33C74.1405 33 75.3345 31.4262 74.6912 29.9098C74.528 29.5252 74.3553 29.1455 74.1737 28.7708ZM51.6667 14.6667C53.7978 14.6667 53.7332 17.7668 51.8572 18.7782C49.1957 20.213 46.9235 22.2145 45.0498 24.608C45.0043 24.6658 44.9593 24.724 44.9143 24.7825C42.9193 27.3775 37.289 27.3775 35.294 24.7825C35.249 24.724 35.204 24.6658 35.1585 24.6078C33.2415 22.159 30.9073 20.1205 28.1658 18.6795C26.317 17.7077 26.2447 14.6667 28.3333 14.6667H28.8818C30.2117 14.6667 31.396 15.467 32.0088 16.6473C32.6193 17.8232 33.2708 18.8603 33.969 19.7368C35.3725 21.4987 37.3783 23.1018 39.9952 23.1012C42.6103 23.1003 44.6162 21.4977 46.0207 19.7373C46.7207 18.86 47.3743 17.8213 47.9872 16.6437C48.6003 15.4652 49.7837 14.6667 51.1122 14.6667H51.6667ZM18.3333 18.5118C18.3333 17.6792 17.4798 17.1237 16.7423 17.5103C14.5858 18.6408 12.6146 20.077 10.8863 21.7613C9.9747 22.6497 11.5508 24.6667 12.8237 24.6667C15.6422 24.6667 18.1737 25.8953 19.9118 27.8463C21.0572 29.1318 23.2783 29.6667 25.0002 29.6667C27.7615 29.6667 30.0002 31.9053 30.0002 34.6667C30.0002 37.4282 27.7615 39.6667 25.0002 39.6667C23.075 39.6667 20.502 40.056 19.0497 41.3195C17.3832 42.7693 15.2059 43.647 12.8237 43.647C9.51445 43.647 6.60082 41.9533 4.90243 39.3853C4.5221 38.8103 3.33333 38.9772 3.33333 39.6667V60.9768C3.33333 62.9105 4.98032 64.464 6.88425 64.1262C10.0258 63.5688 12.2611 62.6307 13.938 61.5513C16.6541 59.803 18.2823 57.4553 19.9407 54.641C20.158 54.2723 20.3802 53.886 20.6093 53.4872C22.0245 51.0257 23.7152 48.085 26.262 45.8212C28.4522 43.8743 31.1577 42.4843 34.6695 41.805C36.5712 41.437 38.0353 39.7375 37.605 37.849C36.6397 33.6138 34.9368 29.7322 32.5338 26.6627C29.4045 22.6652 25.0785 20.0192 19.4877 19.6993C18.851 19.6628 18.3333 19.1497 18.3333 18.5118ZM18.9805 34.1568C18.9805 30.7565 16.224 28 12.8237 28C9.42335 28 6.66683 30.7565 6.66683 34.1568C6.66683 37.5572 9.42335 40.3137 12.8237 40.3137C16.224 40.3137 18.9805 37.5572 18.9805 34.1568ZM26.6668 34.6667C26.6668 33.7462 25.9205 33 25.0002 33C24.0797 33 23.3335 33.7462 23.3335 34.6667C23.3335 35.5872 24.0797 36.3333 25.0002 36.3333C25.9205 36.3333 26.6668 35.5872 26.6668 34.6667Z" fill="#E8E8E5"/>
<path fill-rule="evenodd" clip-rule="evenodd" d="M38.3333 -12C38.3333 -9.69882 36.4678 -7.83333 34.1667 -7.83333H20.8333C17.1515 -7.83333 14.1667 -4.84857 14.1667 -1.16667C14.1667 2.51523 17.1515 5.5 20.8333 5.5H34.8853C36.7897 5.5 38.3333 7.04367 38.3333 8.948V19.277C36.6002 18.2478 34.9002 15.6002 33.3333 11.3333H28.3333C12.6853 11.3333 0 24.0187 0 39.6667V64.6667V68C1.17472 68 2.28428 67.9642 3.33333 67.8955C16.6412 67.0233 20.211 60.8445 23.542 55.079C26.6542 49.6925 29.5577 44.6667 40 44.6667C50.4423 44.6667 53.3458 49.6925 56.458 55.079C59.789 60.8445 63.3588 67.0233 76.6667 67.8955C77.7157 67.9642 78.8253 68 80 68V64.6667V39.6667C80 24.0187 67.3147 11.3333 51.6667 11.3333H46.6667C45.0973 15.5892 43.3973 18.2348 41.6667 19.2695V8.948C41.6667 5.20283 38.6305 2.16667 34.8853 2.16667H20.8333C18.9923 2.16667 17.5 0.674283 17.5 -1.16667C17.5 -3.00762 18.9923 -4.5 20.8333 -4.5H34.1667C38.3088 -4.5 41.6667 -7.85787 41.6667 -12H38.3333ZM76.6667 64.5545V39.6667C76.6667 38.5365 76.5917 37.4238 76.4463 36.3333H70V63.3687C71.7892 63.9398 73.97 64.3635 76.6667 64.5545ZM66.6667 61.9197C66.4573 61.799 66.2558 61.6762 66.062 61.5513C63.346 59.803 61.7177 57.4553 60.0593 54.641C59.842 54.2723 59.6198 53.886 59.3907 53.4872C57.9755 51.0257 56.2848 48.085 53.738 45.8212C50.8968 43.2957 47.1887 41.7073 41.978 41.3915C42.6902 35.7965 44.6148 30.5712 47.6745 26.6627C51.016 22.3942 55.7218 19.6667 61.875 19.6667V16.839C63.5822 17.6037 65.188 18.5542 66.6667 19.6648V33H56.6667V36.3333H66.6667V61.9197ZM70 22.6698V33H75.768C74.6883 29.0883 72.682 25.5613 70 22.6698ZM51.6667 14.6667C54.864 14.6667 57.9212 15.2668 60.7315 16.3608C53.9988 16.6862 48.748 19.8837 45.0498 24.608C42.8582 27.4073 41.216 30.7327 40.1042 34.3117C38.9923 30.7327 37.3502 27.4073 35.1585 24.6078C31.4262 19.84 26.1123 16.6273 19.2898 16.3525C22.0943 15.2638 25.1442 14.6667 28.3333 14.6667H31.0728C31.9427 16.6798 32.9013 18.3965 33.969 19.7368C35.3725 21.4987 37.3783 23.1018 39.9952 23.1012C42.6103 23.1003 44.6162 21.4977 46.0207 19.7373C47.09 18.397 48.0512 16.6802 48.924 14.6667H51.6667ZM18.3333 16.7468C13.5937 18.8177 9.62035 22.3155 6.95625 26.6973C8.57097 25.4255 10.6087 24.6667 12.8237 24.6667C16.9137 24.6667 20.3995 27.254 21.7333 30.8813C22.6097 30.1245 23.7513 29.6667 25.0002 29.6667C27.7615 29.6667 30.0002 31.9053 30.0002 34.6667C30.0002 37.4282 27.7615 39.6667 25.0002 39.6667C23.6008 39.6667 22.3357 39.0918 21.4282 38.1655C19.9172 41.4033 16.6325 43.647 12.8237 43.647C8.30138 43.647 4.51787 40.4838 3.56495 36.2493C3.41223 37.3667 3.33333 38.5075 3.33333 39.6667V64.5545C8.43333 64.1933 11.6882 62.9993 13.938 61.5513C16.6541 59.803 18.2823 57.4553 19.9407 54.641C20.158 54.2723 20.3802 53.886 20.6093 53.4872C22.0245 51.0257 23.7152 48.085 26.262 45.8212C29.1407 43.2623 32.9093 41.6657 38.2288 41.3797C37.5155 35.789 35.5913 30.5683 32.5338 26.6627C29.1923 22.3942 24.4865 19.6667 18.3333 19.6667V16.7468ZM18.9805 34.1568C18.9805 30.7565 16.224 28 12.8237 28C9.42335 28 6.66683 30.7565 6.66683 34.1568C6.66683 37.5572 9.42335 40.3137 12.8237 40.3137C16.224 40.3137 18.9805 37.5572 18.9805 34.1568ZM26.6668 34.6667C26.6668 33.7462 25.9205 33 25.0002 33C24.0797 33 23.3335 33.7462 23.3335 34.6667C23.3335 35.5872 24.0797 36.3333 25.0002 36.3333C25.9205 36.3333 26.6668 35.5872 26.6668 34.6667Z" fill="#E8E8E5"/>
</g>
<defs>
<clipPath id="clip0_2732_393">
<rect width="80" height="68" fill="white"/>
</clipPath>
</defs>
</svg>
