<svg width="18" height="22" viewBox="0 0 18 22" fill="none" xmlns="http://www.w3.org/2000/svg">
<path fill-rule="evenodd" clip-rule="evenodd" d="M13.2496 12V11.1152C13.2496 10.1486 12.4661 9.36511 11.4996 9.36511H10.2862C9.9898 9.36511 9.74952 9.12483 9.74952 8.82843V8.82843C9.74952 8.53203 9.9898 8.29175 10.2862 8.29175L12.7863 8.29175C13.0422 8.29175 13.2496 8.08431 13.2496 7.82843V7.82843C13.2496 7.57255 13.0422 7.36511 12.7863 7.36511H11.4335C11.1371 7.36511 10.8968 7.12483 10.8968 6.82843V6.82843C10.8968 6.53203 11.1371 6.29175 11.4335 6.29175H12.9579C13.119 6.29175 13.2496 6.16113 13.2496 6V6C13.2496 3.51472 11.2349 1.5 8.74965 1.5C6.26437 1.5 4.24965 3.51472 4.24965 6V6C4.24965 6.16113 4.38027 6.29175 4.5414 6.29175H6.06584C6.36224 6.29175 6.60252 6.53203 6.60252 6.82843V6.82843C6.60252 7.12483 6.36224 7.36511 6.06584 7.36511H4.71297C4.45708 7.36511 4.24965 7.57255 4.24965 7.82843V7.82843C4.24965 8.08431 4.45708 8.29175 4.71297 8.29175L7.21309 8.29175C7.50949 8.29175 7.74977 8.53203 7.74977 8.82843V8.82843C7.74977 9.12483 7.50949 9.36511 7.21309 9.36511H5.99971C5.03318 9.36511 4.24965 10.1486 4.24965 11.1152V12C4.24965 14.4853 6.26437 16.5 8.74965 16.5C11.2349 16.5 13.2496 14.4853 13.2496 12ZM2.28633 7.36511C2.54221 7.36511 2.74965 7.57255 2.74965 7.82843V7.82843C2.74965 8.08431 2.54221 8.29175 2.28633 8.29175H2.24965C1.9735 8.29175 1.74965 8.51561 1.74965 8.79175V8.86511C1.74965 9.14125 1.97351 9.36511 2.24965 9.36511V9.36511C2.52579 9.36511 2.74965 9.58897 2.74965 9.86511V12C2.74965 14.8674 4.76112 17.2651 7.45002 17.8589C7.76127 17.9276 7.99976 18.1928 7.99976 18.5116V18.5116C7.99976 18.8861 7.67483 19.1807 7.30772 19.1066C4.23314 18.4862 1.86335 15.9204 1.53786 12.749C1.49558 12.3369 1.16386 12 0.749647 12V12C0.335434 12 -0.0037133 12.3368 0.0313016 12.7495C0.37863 16.8436 3.54492 20.1342 7.58154 20.6727C7.81733 20.7042 7.99976 20.9011 7.99976 21.139V21.139C7.99976 21.3919 8.20477 21.5969 8.45767 21.5969H9.49869C9.77542 21.5969 9.99976 21.3726 9.99976 21.0959V21.0959C9.99976 20.8465 10.1836 20.6367 10.4283 20.5891C14.2188 19.8526 17.1355 16.6693 17.468 12.7494C17.503 12.3367 17.1639 12 16.7496 12V12C16.3354 12 16.0037 12.337 15.9614 12.749C15.6555 15.73 13.5434 18.1757 10.7377 18.974C10.3575 19.0822 9.99976 18.7809 9.99976 18.3856V18.3856C9.99976 18.0848 10.2115 17.8285 10.4993 17.7409C12.9595 16.992 14.7496 14.7051 14.7496 12V9.86511C14.7496 9.58897 14.9735 9.36511 15.2496 9.36511V9.36511C15.5258 9.36511 15.7496 9.14125 15.7496 8.86511V8.79175C15.7496 8.51561 15.5258 8.29175 15.2496 8.29175H15.213C14.9571 8.29175 14.7496 8.08431 14.7496 7.82843V7.82843C14.7496 7.57255 14.9571 7.36511 15.213 7.36511H15.2496C15.5258 7.36511 15.7496 7.14126 15.7496 6.86511V6.79175C15.7496 6.51561 15.5258 6.29175 15.2496 6.29175H15.0414C14.8803 6.29175 14.7496 6.16113 14.7496 6V6C14.7496 2.68629 12.0634 0 8.74965 0C5.43594 0 2.74965 2.68629 2.74965 6V6C2.74965 6.16113 2.61903 6.29175 2.4579 6.29175H2.24965C1.9735 6.29175 1.74965 6.51561 1.74965 6.79175V6.86511C1.74965 7.14125 1.97351 7.36511 2.24965 7.36511H2.28633Z" fill="#E8E8E5"/>
<path fill-rule="evenodd" clip-rule="evenodd" d="M13.25 12V9.36511H9.74988V8.29175L13.25 8.29175V7.36511H10.8971V6.29175H13.25V6C13.25 3.51472 11.2353 1.5 8.75 1.5C6.26472 1.5 4.25 3.51472 4.25 6V6.29175H6.60288L6.60288 7.36511H4.25V8.29175L7.75012 8.29175L7.75012 9.36511H4.25V12C4.25 14.4853 6.26472 16.5 8.75 16.5C11.2353 16.5 13.25 14.4853 13.25 12ZM2.75 7.36511V8.29175H1.75V9.36511H2.75V12C2.75 15.3137 5.43629 18 8.75 18C12.0637 18 14.75 15.3137 14.75 12V9.36511H15.75V8.29175H14.75V7.36511H15.75V6.29175H14.75V6C14.75 2.68629 12.0637 0 8.75 0C5.43629 0 2.75 2.68629 2.75 6V6.29175H1.75V7.36511H2.75ZM9.75 20.6935C14.1116 20.1973 17.5 16.4943 17.5 12H16C16 16.0041 12.7541 19.25 8.75 19.25C4.74593 19.25 1.5 16.0041 1.5 12H0C0 16.4943 3.38843 20.1973 7.75 20.6935V22H9.75V20.6935Z" fill="#E8E8E5"/>
</svg>
