<svg width="85" height="85" viewBox="0 0 85 85" fill="none" xmlns="http://www.w3.org/2000/svg">
<g clip-path="url(#clip0_2731_389)">
<path fill-rule="evenodd" clip-rule="evenodd" d="M68.8975 32.8353C72.5595 36.4973 79.4469 35.0205 77.7727 30.1195C76.0081 24.9536 73.0923 20.1047 68.9937 16.0061C65.2 12.2125 60.7634 9.43204 56.0276 7.64003C54.2789 6.97832 52.3099 7.49308 51.1085 8.92573C49.4403 10.9154 47.9688 13.0916 46.7351 15.4343C45.2231 18.3051 47.3494 21.5341 50.4906 22.3468C57.2378 24.0928 63.6306 27.5684 68.8975 32.8353ZM47.8478 25.2208C45.329 24.6975 42.9487 26.4543 42.7522 29.0194C42.5137 32.1292 42.6991 35.2342 43.211 38.259C43.5122 40.0384 44.8605 41.4161 46.5489 42.0536C51.5864 43.9554 56.4238 46.8075 60.4829 50.8665C63.0287 53.4123 65.1562 56.2217 66.8723 59.2072C68.8485 62.645 73.7356 63.578 75.5657 60.0603C75.8935 59.4301 76.2027 58.7911 76.4931 58.1443C76.8505 57.348 76.9664 56.4644 76.8281 55.6025C75.6283 48.13 72.2088 40.955 66.4933 35.2395C61.2174 29.9635 54.6973 26.6439 47.8478 25.2208ZM42.5534 42.314C42.6235 42.0705 42.404 41.8426 42.1583 41.9037C41.9484 41.9556 41.845 42.1927 41.9496 42.3819C42.0913 42.6383 42.4722 42.5954 42.5534 42.314ZM36.8465 43.2618C38.9926 42.3786 40.0161 40.0193 39.6859 37.7222C38.9596 32.6706 39.0826 27.3679 40.4865 22.1281C41.7111 17.5577 43.6913 13.3851 46.2475 9.69655C47.4873 7.90739 46.5585 5.33498 44.3843 5.22933C42.8195 5.1533 41.2521 5.17241 39.6924 5.28576C39.6806 5.28648 39.674 5.29982 39.6805 5.30968C39.6853 5.31689 39.6833 5.32663 39.6761 5.3312C37.648 6.65697 35.74 8.19672 33.989 9.94767C25.5978 18.3389 21.9523 30.4561 23.5189 41.9846C23.8415 44.3587 26.0028 46.0088 28.3713 45.6479C31.3074 45.2006 34.1463 44.3729 36.8465 43.2618ZM31.5849 7.54351C23.2021 15.9262 19.1825 27.6394 19.8331 39.1366C20.0261 42.5498 17.3199 45.6701 14.017 44.7877C11.9731 44.2419 9.9968 43.5241 8.10329 42.6523C6.37301 41.8558 5.35857 40.0423 5.57578 38.1501C6.52555 29.8758 10.098 21.914 16.1432 15.8689C20.412 11.6001 25.6148 8.58812 31.2002 6.87299C31.5974 6.75109 31.8785 7.24984 31.5849 7.54351ZM12.0816 62.9059C11.1907 62.5191 10.4552 61.8459 9.98502 60.9961C8.72175 58.7135 7.7185 56.3182 6.97116 53.8567C5.82642 50.0871 9.89462 47.2618 13.7154 48.2219C16.8351 49.0057 20.0958 49.4245 23.4516 49.4245C29.6428 49.4245 35.4814 47.7915 40.6823 45.2661C41.9068 44.6716 43.3119 44.5015 44.5943 44.9581C47.6144 46.033 50.54 47.4581 53.2404 49.2865C55.485 50.8063 55.7127 53.9464 53.7442 55.8098C48.8262 60.4655 42.6185 63.8531 35.5378 65.2545C27.6736 66.8108 19.0024 65.9101 12.0816 62.9059ZM65.3046 72.1724C66.828 71.0308 67.4324 69.0413 66.8098 67.2423C65.865 64.5115 64.5979 61.8719 63.0041 59.3866C61.3266 56.7705 57.6643 56.8661 55.3572 58.9481C50.1176 63.6769 43.6 67.1248 36.1977 68.5898C29.7875 69.8585 22.871 69.6298 16.5961 68.0222C16.0131 67.8729 15.5803 68.5684 16.0059 68.9939C29.3641 82.3522 50.9512 82.9287 65.3046 72.1724ZM71.3978 13.602C87.3667 29.5708 86.8978 55.8981 71.5351 71.2608C56.1876 86.6083 29.5857 87.382 13.6017 71.3981C-2.38224 55.4141 -1.60845 28.8122 13.739 13.4647C29.1017 -1.898 55.429 -2.36686 71.3978 13.602Z" fill="#E8E8E5"/>
<path d="M44 41H41V44H44V41Z" fill="#E8E8E5"/>
</g>
<defs>
<clipPath id="clip0_2731_389">
<rect width="85" height="85" fill="white"/>
</clipPath>
</defs>
</svg>
